<?xml version="1.0" encoding="iso-8859-1"?>
<svg version="1.1" id="Layer_1" xmlns="http://www.w3.org/2000/svg" xmlns:xlink="http://www.w3.org/1999/xlink" x="0px" y="0px"
	 viewBox="0 0 226.26 226.26" style="enable-background:new 0 0 226.26 226.26;" xml:space="preserve">
<g>
	<path style="fill:#1D1D1B;" d="M218.748,16.383c0.402,17.119,2.13,38.417-2.934,54.974c-0.241,0.683-1.165,0.804-1.607,0.402
		c0.201,0.764-0.201,1.608-1.206,1.648c-21.379,0.482-43.682,3.215-65.061,2.572c-0.201,0.08-0.442,0.161-0.723,0.161
		c-1.326-0.08-2.612-0.121-3.938-0.161c3.376,48.504,5.907,98.857,1.768,147.321c-0.08,1.125-1.648,1.246-1.808,0.201
		c-0.04-0.04-0.04-0.12-0.04-0.201c-1.005-49.308,0.08-98.254-2.692-147.602c-0.161,0-0.281,0-0.402-0.04
		c-1.366-0.603-2.09-1.889-2.974-3.014c-0.04-0.04-0.04-0.08-0.08-0.08c5.305,47.62,2.733,97.37,2.773,145.191
		c0,0.442-0.121,0.763-0.322,1.005c0.482,0.683,0.924,1.407,1.447,2.009c0.844,0.964,1.688,1.607,2.09,2.773
		c0.201,0.563-0.281,1.125-0.844,1.125c-0.241,0.281-0.563,0.482-1.045,0.522c-11.091,0.964-22.504,1.326-33.635,0.884
		c-0.482,0-0.683-0.281-0.804-0.603c-0.161,0.04-0.322,0.04-0.563,0c-1.527-0.442-2.451-1.969-3.657-3.014
		c-0.844-0.763-2.13-1.447-2.733-2.451c-0.321-0.281-0.603-0.643-0.563-1.246c1.045-47.781,1.286-96.687,6.55-144.266
		c-0.08,0-0.121,0.04-0.201,0.04c-6.791,0.924-13.743,1.286-20.776,1.286c-12.297,0-24.754-1.165-36.649-2.733
		c0.04,0.442-0.322,0.723-0.683,0.723c-0.402,0.281-0.884,0.362-1.447,0.04c-11.814-6.752-23.388-15.512-32.791-25.478
		c-0.281,0.04-0.563,0-0.804-0.201c-2.009-1.808-2.733-5.104-3.496-7.595c-0.804-2.733-1.366-5.506-1.527-8.359
		c-0.08-0.12-0.201-0.241-0.281-0.362c-0.482-0.764,0.04-1.608,0.764-1.889c10.89-11.211,23.628-21.86,37.854-28.451
		c0.402-0.201,0.804-0.201,1.206-0.121c0.121-0.04,0.161-0.161,0.321-0.161c52.884-2.813,106.773-0.04,159.738,0.763
		c0.563,0,0.924,0.241,1.165,0.603c2.492,0.964,4.782,2.612,6.47,4.621c1.728,2.009,3.536,5.224,3.496,8.037
		C218.466,15.459,218.707,15.821,218.748,16.383z M215.894,16.785c-0.121-0.08-0.241-0.121-0.321-0.281
		c-1.125-2.411-1.607-4.862-3.215-7.073c-1.165-1.608-2.532-2.853-4.099-3.898c0.04,0.08,0.121,0.161,0.121,0.281
		c1.567,12.377,2.17,25.317,0.924,37.734c-0.522,5.224-0.402,13.342-4.702,17.039c0,0.04,0,0.08,0,0.121
		c1.326,1.407,2.612,2.893,3.978,4.26c1.607,1.567,3.978,2.974,5.063,4.943c0.161,0.321,0.12,0.643,0.04,0.965
		c0.161,0.12,0.281,0.321,0.362,0.482c0-0.08-0.08-0.161-0.08-0.281C216.136,53.153,214.689,34.828,215.894,16.785z M210.228,70.553
		c-1.326-1.085-2.451-2.532-3.496-3.737c-1.246-1.407-2.411-2.893-3.496-4.461c-0.08,0-0.161,0.04-0.281,0.04
		c-51.438,0.683-104.121,3.617-155.478,0c0.121,1.326,0.04,2.692,0.08,3.978c0.08,1.487,0.241,2.933,0.362,4.42
		c19.249-0.121,38.377,1.206,57.626,0.884c0.161,0,0.321,0.04,0.482,0.08c0.12-1.246,0.241-2.451,0.402-3.657
		c0.121-1.286,1.648-1.527,2.21-0.723c0.08-0.12,0.121-0.281,0.281-0.322c3.858-1.085,7.997-0.04,11.935,0.201
		c4.581,0.281,9.243-0.08,13.784,0.362c0.201,0.04,0.362,0.08,0.522,0.201c0.362-0.161,0.764-0.161,1.125,0.121
		c1.165,1.005,2.291,2.13,3.376,3.255c0.482,0.482,0.924,0.884,1.286,1.326c0.683-0.402,1.768-0.121,2.049,0.763
		c1.406-0.08,2.813-0.121,4.219-0.201c0.522-0.04,0.924,0.241,1.165,0.603C167.832,69.267,190.457,69.629,210.228,70.553z
		 M202.593,58.94c4.461-5.746,3.255-20.615,3.255-27.286c0.04-8.64-0.804-17.199-1.005-25.839c0-0.201,0.08-0.362,0.121-0.522
		C153.084,5.332,100.32,7.181,48.601,3.765c-0.12,0.442-0.402,0.804-0.924,1.085c-13.864,6.791-24.674,17.44-37.051,26.321
		c5.787,3.978,10.77,9.524,16.195,13.944c6.189,4.983,13.06,9.283,18.887,14.708c0.281-0.201,0.683-0.161,1.005,0.04
		C98.271,56.448,150.914,59.101,202.593,58.94z M139.22,222.335c-0.643-0.884-1.165-1.849-1.607-2.773
		c-9.966,1.648-23.227,2.893-33.475,0.563c0.04,0.04,0.08,0.04,0.08,0.08c1.326,0.965,3.134,2.09,3.416,3.818
		c0,0.04-0.04,0.08-0.04,0.161C118.002,222.937,128.692,222.335,139.22,222.335z M136.206,216.307
		c-0.121-48.383-4.22-97.812-1.286-146.035c-4.621,0.723-9.404,0.402-14.065,0.121c-3.978-0.241-8.439-0.121-11.935-2.21
		c0.161,49.75-4.179,99.982-6.148,149.692c5.023-0.884,10.287-0.522,15.391-0.643C124.191,217.07,130.219,216.468,136.206,216.307z
		 M46.07,70.433c-0.201-1.206-0.482-2.371-0.643-3.576c-0.201-1.487-0.482-3.094-0.442-4.621
		c-6.952-3.014-13.02-7.876-18.927-12.578c-5.104-4.059-11.132-8.399-15.672-13.542c0.362,1.246,0.723,2.491,1.125,3.737
		c0.723,2.049,1.889,4.22,2.291,6.389C24.45,54.479,35.059,62.637,46.07,70.433z"/>
	<path style="fill:#CA9E67;" d="M215.573,16.504c0.08,0.161,0.201,0.201,0.321,0.281c-1.206,18.043,0.241,36.368-1.929,54.291
		c0,0.12,0.08,0.201,0.08,0.281c-0.08-0.161-0.201-0.362-0.362-0.482c0.08-0.322,0.12-0.643-0.04-0.965
		c-1.085-1.969-3.456-3.376-5.063-4.943c-1.366-1.366-2.652-2.853-3.978-4.26c0-0.04,0-0.08,0-0.121
		c4.3-3.697,4.179-11.815,4.702-17.039c1.246-12.417,0.643-25.357-0.924-37.734c0-0.121-0.08-0.201-0.121-0.281
		c1.567,1.045,2.934,2.29,4.099,3.898C213.966,11.641,214.448,14.093,215.573,16.504z M213.564,22.893
		c0.04-1.366,0.04-2.692,0-4.019c-0.04-0.723-1.085-0.723-1.125,0c-0.04,1.326-0.04,2.652,0,4.019
		C212.438,23.617,213.564,23.617,213.564,22.893z"/>
	<path style="fill:#1D1D1B;" d="M213.564,18.875c0.04,1.326,0.04,2.652,0,4.019c0,0.723-1.125,0.723-1.125,0
		c-0.04-1.366-0.04-2.692,0-4.019C212.479,18.151,213.523,18.151,213.564,18.875z"/>
	<path style="fill:#CA9E67;" d="M206.732,66.816c1.045,1.206,2.17,2.652,3.496,3.737c-19.771-0.924-42.396-1.286-61.846,3.134
		c-0.241-0.362-0.643-0.643-1.165-0.603c-1.407,0.08-2.813,0.12-4.219,0.201c-0.281-0.884-1.366-1.165-2.049-0.763
		c-0.362-0.442-0.804-0.844-1.286-1.326c-1.085-1.125-2.21-2.25-3.376-3.255c-0.362-0.281-0.764-0.281-1.125-0.121
		c-0.161-0.121-0.321-0.161-0.522-0.201c-4.541-0.442-9.203-0.08-13.784-0.362c-3.938-0.241-8.077-1.286-11.935-0.201
		c-0.161,0.04-0.201,0.201-0.281,0.322c-0.563-0.804-2.09-0.563-2.21,0.723c-0.161,1.206-0.281,2.411-0.402,3.657
		c-0.161-0.04-0.322-0.08-0.482-0.08C86.297,72,67.169,70.673,47.92,70.794c-0.121-1.487-0.281-2.934-0.362-4.42
		c-0.04-1.286,0.04-2.652-0.08-3.978c51.357,3.617,104.041,0.683,155.478,0c0.121,0,0.201-0.04,0.281-0.04
		C204.321,63.923,205.486,65.41,206.732,66.816z M181.536,66.173c0.643-0.12,0.482-1.246-0.161-1.165
		c-2.773,0.201-5.465,0.643-8.198,1.125c-0.603,0.12-0.482,1.165,0.161,1.085C176.07,66.977,178.803,66.696,181.536,66.173z
		 M89.43,70.192c0.643,0.08,0.643-0.924,0-1.005c-2.009-0.241-4.019-0.321-6.028-0.442c-0.402-0.04-0.522,0.643-0.08,0.723
		C85.331,69.75,87.381,70.031,89.43,70.192z"/>
	<path style="fill:#CA9E67;" d="M205.848,31.654c0,6.671,1.205,21.54-3.255,27.286c-51.679,0.161-104.322-2.492-155.88,0.924
		c-0.321-0.201-0.723-0.241-1.005-0.04c-5.827-5.425-12.699-9.725-18.887-14.708c-5.425-4.42-10.408-9.966-16.195-13.944
		c12.377-8.881,23.187-19.53,37.051-26.322c0.522-0.281,0.804-0.643,0.924-1.085c51.719,3.416,104.483,1.567,156.363,1.527
		c-0.04,0.161-0.121,0.321-0.121,0.522C205.044,14.454,205.888,23.014,205.848,31.654z M202.995,44.473
		c0-0.563-0.804-0.643-0.964-0.121c-0.764,2.451-0.844,5.104-1.165,7.635c-0.08,0.563,0.884,0.723,1.005,0.161
		C202.312,49.617,202.995,47.045,202.995,44.473z M199.619,44.151c0.322-0.884-1.045-1.206-1.366-0.362
		c-0.563,1.326-1.005,2.652-1.447,4.019c-0.201,0.683,0.884,1.165,1.165,0.522C198.574,46.924,199.137,45.558,199.619,44.151z
		 M197.449,11.4c0.723-0.04,0.723-1.125,0-1.165c-1.889-0.04-3.697-0.04-5.546,0.04c-0.723,0-0.723,1.085,0,1.085
		C193.752,11.44,195.56,11.44,197.449,11.4z M196.565,8.748c0.603-0.201,0.362-1.165-0.281-0.964
		c-1.447,0.402-2.813,0.442-4.26,0.04c-0.643-0.161-0.884,0.804-0.281,1.005C193.431,9.351,194.918,9.351,196.565,8.748z
		 M169.641,27.193c1.447-1.286,0.161-3.255-1.406-3.456c-10.971-1.206-22.866,2.371-30.099,10.931
		c-2.853-3.858-3.777-8.077,0.04-12.297c1.045-1.125,0.402-3.336-1.326-3.215c-11.132,0.723-22.303,6.631-27.527,16.798
		c-4.702-4.3-3.496-10.127,0.201-14.587c0.884-1.045,0.402-3.054-1.206-2.974C94.374,19.277,80.068,28.6,77.013,42.866
		c-0.121,0.643,0.763,1.125,1.125,0.482c5.666-10.931,14.467-19.128,26.603-21.017c-3.014,5.385-3.416,11.935,2.13,16.195
		c0.964,0.764,2.17,0.362,2.733-0.402c0.321,0.161,0.723,0.161,1.005-0.201c5.988-7.515,13.301-12.9,22.584-14.547
		c-2.492,5.425-1.688,12.297,4.26,15.311c1.407,0.683,2.692-0.643,2.25-1.929c7.314-5.626,15.029-9.203,24.111-9.243
		c-2.974,3.818-4.621,8.68-0.723,12.618c1.527,1.527,3.617-0.402,2.813-2.17C163.814,33.261,166.265,30.247,169.641,27.193z
		 M60.898,10.195c0.442-0.121,0.362-0.844-0.08-0.804c-2.371,0.281-4.702,0.482-7.073,0.362c-0.683,0-0.683,1.085,0,1.125
		C56.237,10.998,58.527,10.838,60.898,10.195z M57.764,9.471c0.844-0.08,0.884-1.326,0-1.326c-2.09,0-4.22-0.241-6.309-0.522
		c-0.924-0.161-1.326,1.165-0.402,1.366C53.303,9.592,55.513,9.672,57.764,9.471z M43.337,49.617
		c0.683,0.442,1.447-0.563,0.884-1.125c-1.849-1.808-4.019-3.376-6.028-5.023c-0.723-0.563-1.768,0.442-1.045,1.045
		C39.198,46.241,41.167,48.09,43.337,49.617z M42.413,53.555c0.603,0.362,1.366-0.522,0.804-1.045
		c-1.607-1.447-3.536-2.652-5.345-3.858c-0.563-0.362-1.206,0.482-0.683,0.884C38.836,50.943,40.524,52.43,42.413,53.555z"/>
	<path style="fill:#1D1D1B;" d="M202.03,44.352c0.161-0.522,0.964-0.442,0.964,0.121c0,2.572-0.683,5.144-1.125,7.675
		c-0.121,0.563-1.085,0.402-1.005-0.161C201.186,49.456,201.267,46.804,202.03,44.352z"/>
	<path style="fill:#1D1D1B;" d="M198.253,43.79c0.322-0.844,1.688-0.522,1.366,0.362c-0.482,1.407-1.045,2.773-1.648,4.179
		c-0.281,0.643-1.366,0.161-1.165-0.522C197.248,46.442,197.69,45.116,198.253,43.79z"/>
	<path style="fill:#1D1D1B;" d="M197.449,10.235c0.723,0.04,0.723,1.125,0,1.165c-1.889,0.04-3.697,0.04-5.546-0.04
		c-0.723,0-0.723-1.085,0-1.085C193.752,10.195,195.56,10.195,197.449,10.235z"/>
	<path style="fill:#1D1D1B;" d="M196.284,7.783c0.643-0.201,0.884,0.764,0.281,0.964c-1.648,0.603-3.134,0.603-4.822,0.08
		c-0.603-0.201-0.362-1.165,0.281-1.005C193.471,8.225,194.837,8.185,196.284,7.783z"/>
	<path style="fill:#1D1D1B;" d="M181.375,65.008c0.643-0.08,0.804,1.045,0.161,1.165c-2.733,0.522-5.465,0.804-8.198,1.045
		c-0.643,0.08-0.764-0.965-0.161-1.085C175.91,65.651,178.602,65.209,181.375,65.008z"/>
	<path style="fill:#1D1D1B;" d="M168.234,23.737c1.567,0.201,2.853,2.17,1.406,3.456c-3.376,3.054-5.827,6.068-3.737,10.77
		c0.804,1.768-1.286,3.697-2.813,2.17c-3.898-3.938-2.25-8.801,0.723-12.618c-9.082,0.04-16.798,3.617-24.111,9.243
		c0.442,1.286-0.844,2.612-2.25,1.929c-5.947-3.014-6.751-9.886-4.26-15.311c-9.283,1.648-16.597,7.032-22.584,14.547
		c-0.281,0.362-0.683,0.362-1.005,0.201c-0.563,0.764-1.768,1.165-2.733,0.402c-5.546-4.26-5.144-10.81-2.13-16.195
		C92.604,24.22,83.803,32.418,78.137,43.348c-0.362,0.643-1.246,0.161-1.125-0.482c3.054-14.266,17.36-23.589,31.305-24.473
		c1.607-0.08,2.09,1.929,1.206,2.974c-3.697,4.461-4.903,10.288-0.201,14.587c5.224-10.167,16.396-16.074,27.527-16.798
		c1.728-0.121,2.371,2.09,1.326,3.215c-3.818,4.219-2.893,8.439-0.04,12.297C145.369,26.108,157.264,22.532,168.234,23.737z"/>
	<path style="fill:#CA9E67;" d="M143.199,223.299c0,0.08,0,0.161,0.04,0.201l-0.201,0.04c-0.402-1.165-1.246-1.808-2.09-2.773
		c-0.522-0.603-0.964-1.326-1.447-2.009c0.201-0.241,0.322-0.563,0.322-1.005c-0.04-47.821,2.532-97.571-2.773-145.191
		c0.04,0,0.04,0.04,0.08,0.08c0.884,1.125,1.607,2.411,2.974,3.014c0.121,0.04,0.241,0.04,0.402,0.04
		C143.279,125.045,142.194,173.991,143.199,223.299z"/>
	<path style="fill:#CA9E67;" d="M137.613,219.562c0.442,0.924,0.964,1.889,1.607,2.773c-10.529,0-21.218,0.603-31.626,1.849
		c0-0.08,0.04-0.121,0.04-0.161c-0.281-1.728-2.09-2.853-3.416-3.818c0-0.04-0.04-0.04-0.08-0.08
		C114.385,222.455,127.647,221.21,137.613,219.562z"/>
	<path style="fill:#CA9E67;" d="M134.92,70.272c-2.934,48.223,1.165,97.651,1.286,146.035c-5.988,0.161-12.016,0.764-18.043,0.924
		c-5.104,0.12-10.368-0.241-15.391,0.643c1.969-49.71,6.309-99.942,6.148-149.692c3.496,2.09,7.957,1.969,11.935,2.21
		C125.517,70.674,130.299,70.995,134.92,70.272z M130.259,136.9c0.362-2.974,0.924-6.068,0.603-9.042
		c-0.04-0.723-1.165-1.005-1.366-0.201c-0.683,3.014-0.522,6.189-0.563,9.243C128.933,137.784,130.178,137.704,130.259,136.9z
		 M127.245,141.119c0.121,0.764,1.407,0.603,1.326-0.161c-0.281-3.054-0.161-6.028-0.12-9.082c0-0.844-1.447-1.125-1.567-0.201
		C126.441,134.851,126.722,137.985,127.245,141.119z M123.347,76.059c0.482-0.281,0.161-1.165-0.402-0.924
		c-1.407,0.522-2.853,0.522-4.26-0.04c-0.603-0.201-1.005,0.763-0.442,1.045C120.011,77.023,121.619,77.023,123.347,76.059z
		 M120.574,74.451c0.964,0,1.246-1.567,0.241-1.728c-2.09-0.321-4.179-0.442-6.269-0.563c-1.125-0.04-1.085,1.648,0,1.768
		C116.555,74.13,118.565,74.411,120.574,74.451z M120.052,101.255c0.04-2.733,0.362-5.586-0.121-8.278
		c-0.161-0.884-1.567-0.884-1.728,0c-0.482,2.692-0.161,5.546-0.121,8.278C118.123,102.501,120.011,102.501,120.052,101.255z
		 M110.246,206.702c0.12-3.657,0.241-7.354,0.08-11.011c-0.04-1.045-1.567-1.045-1.607,0c-0.161,3.657-0.04,7.354,0.08,11.011
		C108.84,207.627,110.206,207.627,110.246,206.702z M107.152,210.721c0.281-3.737,0.723-7.756,0.522-11.533
		c-0.04-0.884-1.206-1.045-1.487-0.201c-1.125,3.657-0.965,8.158-0.241,11.895C106.107,211.605,107.112,211.364,107.152,210.721z"/>
	<path style="fill:#1D1D1B;" d="M130.862,127.858c0.322,2.974-0.241,6.068-0.603,9.042c-0.08,0.804-1.326,0.884-1.326,0
		c0.04-3.054-0.121-6.229,0.563-9.243C129.696,126.854,130.821,127.135,130.862,127.858z"/>
	<path style="fill:#1D1D1B;" d="M128.571,140.959c0.08,0.763-1.206,0.924-1.326,0.161c-0.522-3.134-0.804-6.269-0.362-9.444
		c0.121-0.924,1.567-0.643,1.567,0.201C128.41,134.931,128.29,137.905,128.571,140.959z"/>
	<path style="fill:#1D1D1B;" d="M122.945,75.135c0.563-0.241,0.884,0.643,0.402,0.924c-1.728,0.965-3.335,0.965-5.104,0.08
		c-0.563-0.281-0.161-1.246,0.442-1.045C120.092,75.657,121.538,75.657,122.945,75.135z"/>
	<path style="fill:#1D1D1B;" d="M120.815,72.723c1.005,0.161,0.723,1.728-0.241,1.728c-2.009-0.04-4.019-0.322-6.028-0.522
		c-1.085-0.121-1.125-1.808,0-1.768C116.636,72.281,118.725,72.402,120.815,72.723z"/>
	<path style="fill:#1D1D1B;" d="M119.931,92.977c0.482,2.692,0.161,5.546,0.121,8.278c-0.04,1.246-1.929,1.246-1.969,0
		c-0.04-2.733-0.362-5.586,0.121-8.278C118.364,92.093,119.77,92.093,119.931,92.977z"/>
	<path style="fill:#1D1D1B;" d="M110.327,195.692c0.161,3.657,0.04,7.354-0.08,11.011c-0.04,0.924-1.407,0.924-1.447,0
		c-0.121-3.657-0.241-7.354-0.08-11.011C108.759,194.647,110.286,194.647,110.327,195.692z"/>
	<path style="fill:#1D1D1B;" d="M107.674,199.188c0.201,3.778-0.241,7.796-0.522,11.533c-0.04,0.643-1.045,0.884-1.206,0.161
		c-0.723-3.737-0.884-8.238,0.241-11.895C106.469,198.143,107.634,198.304,107.674,199.188z"/>
	<path style="fill:#1D1D1B;" d="M89.43,69.187c0.643,0.08,0.643,1.085,0,1.005c-2.049-0.161-4.099-0.442-6.108-0.723
		c-0.442-0.08-0.322-0.764,0.08-0.723C85.412,68.866,87.421,68.946,89.43,69.187z"/>
	<path style="fill:#1D1D1B;" d="M60.818,9.391c0.442-0.04,0.522,0.683,0.08,0.804c-2.371,0.643-4.662,0.804-7.153,0.683
		c-0.683-0.04-0.683-1.125,0-1.125C56.116,9.873,58.447,9.672,60.818,9.391z"/>
	<path style="fill:#1D1D1B;" d="M57.764,8.145c0.884,0,0.844,1.246,0,1.326c-2.25,0.201-4.461,0.12-6.711-0.482
		c-0.924-0.201-0.522-1.527,0.402-1.366C53.544,7.904,55.674,8.145,57.764,8.145z"/>
	<path style="fill:#CA9E67;" d="M45.427,66.856c0.161,1.206,0.442,2.371,0.643,3.576c-11.011-7.795-21.62-15.953-32.269-24.191
		c-0.402-2.17-1.567-4.34-2.291-6.389c-0.402-1.246-0.764-2.492-1.125-3.737c4.541,5.144,10.569,9.484,15.672,13.542
		c5.907,4.702,11.975,9.564,18.927,12.578C44.945,63.762,45.226,65.369,45.427,66.856z"/>
	<path style="fill:#1D1D1B;" d="M44.221,48.491c0.563,0.563-0.201,1.567-0.884,1.125c-2.17-1.527-4.139-3.376-6.189-5.103
		c-0.723-0.603,0.322-1.608,1.045-1.045C40.203,45.116,42.373,46.683,44.221,48.491z"/>
	<path style="fill:#1D1D1B;" d="M43.217,52.51c0.563,0.522-0.201,1.406-0.804,1.045c-1.889-1.125-3.576-2.612-5.224-4.019
		c-0.522-0.402,0.121-1.246,0.683-0.884C39.68,49.858,41.609,51.063,43.217,52.51z"/>
</g>
</svg>
