<svg id="Icons" height="512" viewBox="0 0 60 60" width="512" xmlns="http://www.w3.org/2000/svg"><path d="m21.556 52.5a.5.5 0 0 1 -.342-.865l3.206-3-6.14 3.545a.5.5 0 0 1 -.56-.824l1.871-1.483-1.311.757a.5.5 0 0 1 -.6-.793l1.385-1.337-.785.453a.5.5 0 0 1 -.74-.531l.328-1.633a.491.491 0 0 1 -.27-.223.5.5 0 0 1 .182-.682l.5-.289a.5.5 0 0 1 .74.531l-.283 1.408 3.367-1.944a.5.5 0 0 1 .6.793l-1.383 1.333 3.69-2.13a.5.5 0 0 1 .56.824l-1.871 1.49 4-2.31a.5.5 0 0 1 .592.8l-3.207 3 6.585-3.8a.5.5 0 0 1 .581.808l-3.037 2.672 6.055-3.495a.5.5 0 0 1 .584.8l-3.092 2.772 6.2-3.581a.5.5 0 0 1 .588.8l-3.166 2.91 5.337-3.08a.5.5 0 0 1 .551.831l-.636.482.09-.052a.5.5 0 0 1 .627.761l-1.585 1.823.968-.559a.5.5 0 0 1 .737.549l-.284 1.185a.5.5 0 0 1 .057.894l-.5.288a.5.5 0 0 1 -.736-.55l.219-.919-2.55 1.472a.5.5 0 0 1 -.627-.761l1.586-1.823-4.485 2.588a.5.5 0 0 1 -.552-.831l.636-.48-2.278 1.314a.5.5 0 0 1 -.588-.8l3.17-2.908-6.44 3.719a.5.5 0 0 1 -.584-.8l3.09-2.772-6.2 3.582a.5.5 0 0 1 -.581-.808l3.035-2.683-6.053 3.495a.489.489 0 0 1 -.251.067z" fill="#afb5bf"/><path d="m28.228 59.471a.5.5 0 0 1 -.286-.911l1.466-1.015-3.22 1.855a.5.5 0 0 1 -.542-.838l3.041-2.2-5.255 3.038a.5.5 0 0 1 -.554-.829l4.277-3.271-7.114 4.1a.5.5 0 0 1 -.555-.829l4.314-3.31-7.176 4.139a.5.5 0 0 1 -.539-.84l2.464-1.748-4.484 2.588a.5.5 0 0 1 -.541-.84l2.7-1.928-4.5 2.6a.5.5 0 0 1 -.562-.823l4.53-3.613-4.415 2.548a.5.5 0 0 1 -.56-.824l2.107-1.675-1.435.829a.5.5 0 1 1 -.5-.865l7.295-4.209a.5.5 0 0 1 .56.824l-2.11 1.676 4.334-2.5a.5.5 0 0 1 .561.823l-4.529 3.61 7.686-4.433a.5.5 0 0 1 .541.84l-2.7 1.927 4.8-2.768a.5.5 0 0 1 .539.841l-2.466 1.744 4.481-2.584a.5.5 0 0 1 .555.829l-4.313 3.312 7.177-4.141a.5.5 0 0 1 .554.829l-4.282 3.271 7.119-4.1a.5.5 0 0 1 .543.838l-3.034 2.187 5.251-3.031a.5.5 0 0 1 .535.844l-1.465 1.012 3.215-1.856a.5.5 0 0 1 .54.84l-2.521 1.791 3.277-1.892a.5.5 0 0 1 .544.837l-2.211 1.607 2.957-1.707a.5.5 0 0 1 .569.819l-3.217 2.657 4.345-2.509a.5.5 0 0 1 .584.8l-2.555 2.289 3.675-2.121a.5.5 0 0 1 .621.767l-1.963 2.179 2.339-1.351a.5.5 0 0 1 .628.76l-.6.694a.5.5 0 0 1 .472.88l-2.533 1.466a.5.5 0 0 1 -.627-.759l.6-.692-2.517 1.451a.5.5 0 0 1 -.622-.767l1.963-2.178-5.1 2.946a.5.5 0 0 1 -.584-.8l2.555-2.29-5.363 3.089a.5.5 0 0 1 -.568-.818l3.219-2.658-6.023 3.476a.5.5 0 0 1 -.544-.837l2.212-1.607-4.235 2.444a.5.5 0 0 1 -.54-.84l2.518-1.789-4.553 2.629a.5.5 0 0 1 -.25.071z" fill="#ccd0da"/><path d="m26.772 59.471a.5.5 0 0 1 -.326-.879l.532-.456-2.2 1.267a.5.5 0 0 1 -.635-.751l1.5-1.811-4.443 2.559a.5.5 0 0 1 -.58-.807l.716-.631-2.489 1.438a.5.5 0 0 1 -.634-.754l1.487-1.776-4.387 2.53a.5.5 0 0 1 -.584-.8l.837-.752-2.7 1.556a.5.5 0 0 1 -.609-.78l1.327-1.368-2.271 1.31a.5.5 0 0 1 -.612-.777l.562-.589a.5.5 0 0 1 -.7-.624l.295-.748a.5.5 0 0 1 -.014-.874l.617-.356a.5.5 0 0 1 .715.616l-.156.4 1.756-1.014a.5.5 0 0 1 .613.777l-.561.588 2.366-1.365a.5.5 0 0 1 .61.78l-1.328 1.369 3.724-2.156a.5.5 0 0 1 .584.8l-.838.753 2.7-1.558a.5.5 0 0 1 .634.754l-1.49 1.779 4.393-2.535a.5.5 0 0 1 .58.807l-.714.63 2.493-1.439a.5.5 0 0 1 .636.751l-1.5 1.811 4.441-2.564a.5.5 0 0 1 .576.811l-.532.457 2.2-1.269a.5.5 0 0 1 .616.773l-1.409 1.516 3.969-2.291a.5.5 0 0 1 .582.807l-.769.681 2.58-1.489a.5.5 0 0 1 .612.778l-1.369 1.434 3.835-2.214a.5.5 0 0 1 .578.811l-.622.539 2.34-1.351a.5.5 0 0 1 .648.734l-1.499 1.991 4.721-2.725a.5.5 0 0 1 .636.75l-1.506 1.831 1.415-.816a.5.5 0 0 1 .687.674l-.447.811a.5.5 0 0 1 .174.927l-1.124.648a.5.5 0 0 1 -.688-.673l.344-.625-2.249 1.3a.5.5 0 0 1 -.636-.75l1.506-1.831-4.473 2.579a.5.5 0 0 1 -.648-.734l1.5-1.987-4.712 2.721a.5.5 0 0 1 -.578-.81l.623-.536-2.339 1.346a.5.5 0 0 1 -.611-.778l1.369-1.434-3.832 2.212a.5.5 0 0 1 -.582-.806l.768-.682-2.573 1.488a.5.5 0 0 1 -.616-.773l1.409-1.516-3.971 2.289a.49.49 0 0 1 -.25.071z" fill="#afb5bf"/><path d="m34.686 47.471a.5.5 0 0 1 -.277-.917l1.377-.911-3.05 1.76a.5.5 0 0 1 -.548-.834l6.408-4.75-9.672 5.581a.5.5 0 0 1 -.538-.841l5.075-3.577-7.652 4.418a.5.5 0 0 1 -.524-.85l.31-.2-1.826 1.05a.5.5 0 0 1 -.531-.846l2.993-2.023-4.969 2.869a.5.5 0 0 1 -.537-.841l4.926-3.459-7.451 4.3a.5.5 0 0 1 -.531-.845l3.434-2.337-5.511 3.182a.5.5 0 0 1 -.528-.848l1.825-1.214-3.573 2.062a.5.5 0 0 1 -.548-.833l6.5-4.847-9.838 5.68a.5.5 0 0 1 -.546-.835l6.245-4.593-9.404 5.428a.5.5 0 0 1 -.538-.841l5.033-3.543-7.157 4.13a.5.5 0 0 1 -.545-.835l5.9-4.344-6.728 3.888a.5.5 0 0 1 -.544-.835l4.028-2.951-3.894 2.248a.5.5 0 0 1 -.577-.81l3.945-3.407-3.373 1.944a.5.5 0 0 1 -.584-.8l1.549-1.398-.968.558a.5.5 0 0 1 -.631-.756l1.338-1.579a.453.453 0 0 1 -.083-.106.5.5 0 0 1 .183-.684l1.184-.679a.5.5 0 0 1 .632.757l-.635.743 2.609-1.5a.5.5 0 0 1 .584.8l-1.553 1.4 3.81-2.2a.5.5 0 0 1 .577.81l-3.941 3.405 7.312-4.22a.5.5 0 0 1 .545.836l-4.029 2.95 6.56-3.787a.5.5 0 0 1 .546.835l-5.9 4.344 8.975-5.18a.5.5 0 0 1 .538.842l-5.034 3.543 7.6-4.386a.5.5 0 0 1 .546.835l-6.241 4.591 9.4-5.428a.5.5 0 0 1 .549.833l-6.5 4.848 9.841-5.682a.5.5 0 0 1 .527.849l-1.829 1.216 3.578-2.065a.5.5 0 0 1 .531.846l-3.441 2.337 5.517-3.184a.5.5 0 0 1 .537.842l-4.925 3.457 7.451-4.3a.5.5 0 0 1 .53.847l-2.994 2.023 4.973-2.871a.5.5 0 0 1 .523.851l-.3.2 1.822-1.052a.5.5 0 0 1 .538.842l-5.08 3.573 7.651-4.417a.5.5 0 0 1 .548.834l-6.411 4.751 9.674-5.585a.5.5 0 0 1 .526.85l-1.382.914 3.056-1.764a.5.5 0 0 1 .529.847l-2.9 1.955 4.855-2.8a.5.5 0 0 1 .539.841l-5.189 3.668 7.812-4.51a.5.5 0 0 1 .543.838l-5.901 4.278 6.458-3.73a.5.5 0 0 1 .535.843l-2.468 1.712 2.233-1.288a.5.5 0 0 1 .564.822l-4.068 3.291 3.5-2.024a.5.5 0 0 1 .6.788l-2.507 2.475 1.906-1.1a.5.5 0 0 1 .628.761l-.902 1.05a.492.492 0 0 1 .311.234.5.5 0 0 1 -.183.683l-1.924 1.111a.5.5 0 0 1 -.628-.76l.624-.718-2.7 1.557a.5.5 0 0 1 -.6-.788l2.508-2.475-5.656 3.256a.5.5 0 0 1 -.564-.821l4.071-3.286-7.124 4.107a.5.5 0 0 1 -.535-.843l2.47-1.714-4.431 2.557a.5.5 0 0 1 -.543-.838l5.907-4.278-8.862 5.116a.5.5 0 0 1 -.539-.84l5.185-3.66-7.806 4.5a.5.5 0 0 1 -.529-.846l2.9-1.958-4.857 2.8a.5.5 0 0 1 -.25.075z" fill="#ccd0da"/><path d="m3.89 39.5a.5.5 0 0 1 -.261-.927l21.713-13.29-24.062 13.893a.5.5 0 0 1 -.51-.86l24.374-14.916-23.864 13.78a.5.5 0 0 1 -.51-.86l21.878-13.349-21.368 12.337a.5.5 0 0 1 -.509-.861l15.667-9.5-15.158 8.753a.5.5 0 0 1 -.509-.86l12.1-7.326-11.591 6.692a.5.5 0 0 1 -.513-.857l22.7-14.081-22.187 12.808a.5.5 0 0 1 -.513-.857l20.074-12.484-19.561 11.293a.5.5 0 0 1 -.511-.858l11.269-6.913-10.758 6.211a.5.5 0 0 1 -.509-.86l3.422-2.081-2.914 1.682a.5.5 0 0 1 -.518-.855l18.194-11.607-17.676 10.204a.5.5 0 0 1 -.52-.853l15.773-10.137-15.253 8.806a.5.5 0 0 1 -.516-.856l9.119-5.755-8.6 4.966a.5.5 0 0 1 -.514-.856l3.611-2.254-3.1 1.788a.5.5 0 0 1 -.519-.854l7.34-4.707-6.821 3.939a.5.5 0 0 1 -.516-.856l.968-.609-.452.261a.5.5 0 0 1 -.532-.846l8.824-6.022-8.292 4.788a.5.5 0 0 1 -.523-.852l2.164-1.411-1.641.946a.5.5 0 0 1 -.525-.849l1.44-.953-.915.529a.5.5 0 0 1 -.546-.836l4.712-3.46-4.166 2.4a.5.5 0 0 1 -.566-.819l3.731-3.05-3.165 1.827a.5.5 0 0 1 -.606-.783l2.241-2.277-1.592.919a.5.5 0 0 1 -.613-.777l.738-.78a.487.487 0 0 1 -.2-.193.5.5 0 0 1 .183-.683l1.931-1.116a.5.5 0 0 1 .614.776l-.182.192 1.812-1.044a.5.5 0 0 1 .607.783l-2.242 2.276 5.303-3.059a.5.5 0 0 1 .567.819l-3.732 3.051 6.709-3.87a.5.5 0 0 1 .546.836l-4.709 3.456 7.439-4.292a.5.5 0 0 1 .525.849l-1.436.951 3.118-1.8a.5.5 0 0 1 .523.851l-2.167 1.41 3.922-2.261a.5.5 0 0 1 .532.845l-8.824 6.02 11.897-6.865a.5.5 0 0 1 .516.855l-.962.606 2.531-1.461a.5.5 0 0 1 .519.853l-7.342 4.703 9.63-5.556a.5.5 0 0 1 .515.856l-3.612 2.252 5.389-3.108a.5.5 0 0 1 .517.855l-9.12 5.756 11.452-6.611a.5.5 0 0 1 .52.853l-15.775 10.135 19.039-10.988a.5.5 0 0 1 .519.854l-18.192 11.604 21.583-12.458a.5.5 0 0 1 .51.859l-3.4 2.065 5.07-2.924a.5.5 0 0 1 .512.858l-11.273 6.912 13.464-7.77a.5.5 0 0 1 .514.857l-20.081 12.485 23.115-13.342a.5.5 0 0 1 .513.857l-22.7 14.083 25.876-14.94a.5.5 0 0 1 .509.86l-12.106 7.327 13.961-8.06a.5.5 0 0 1 .508.86l-15.665 9.5 16.626-9.6a.5.5 0 0 1 .511.86l-21.866 13.34 22.085-12.751a.5.5 0 0 1 .679.176.5.5 0 0 1 -.172.688l-24.365 14.9 23.986-13.843a.5.5 0 0 1 .51.86l-21.741 13.304 21.233-12.257a.5.5 0 0 1 .509.86l-13.639 8.281 13.131-7.581a.5.5 0 0 1 .511.859l-17.942 11.017 17.433-10.06a.5.5 0 0 1 .514.86l-21 13.11 20.488-11.829a.5.5 0 0 1 .511.859l-10.839 6.648 10.328-5.962a.5.5 0 0 1 .514.858l-14.337 8.929 13.825-7.981a.5.5 0 0 1 .515.857l-11.417 7.111 10.9-6.3a.5.5 0 0 1 .518.854l-13.394 8.5 12.878-7.434a.5.5 0 0 1 .524.851l-14.104 9.199 13.585-7.843a.5.5 0 0 1 .525.85l-11.713 7.706 11.19-6.46a.5.5 0 0 1 .528.849l-9.665 6.448 9.141-5.277a.5.5 0 0 1 .528.849l-6.5 4.329 5.973-3.45a.5.5 0 0 1 .53.847l-4.886 3.3 4.356-2.518a.5.5 0 0 1 .552.832l-6.3 4.76 5.754-3.321a.5.5 0 0 1 .552.829l-3.546 2.72 2.992-1.728a.5.5 0 0 1 .568.819l-2.084 1.715 1.517-.875a.5.5 0 0 1 .633.754l-1.44 1.716.808-.466a.5.5 0 0 1 .672.7l-.281.442a.5.5 0 0 1 .11.913l-1.2.692a.5.5 0 0 1 -.672-.7l.1-.161-1.5.863a.5.5 0 0 1 -.632-.754l1.439-1.715-4.281 2.471a.5.5 0 0 1 -.569-.818l2.084-1.717-4.393 2.536a.5.5 0 0 1 -.555-.829l3.548-2.721-6.153 3.552a.5.5 0 0 1 -.552-.832l6.3-4.759-9.689 5.593a.5.5 0 0 1 -.529-.847l4.876-3.292-7.171 4.141a.5.5 0 0 1 -.527-.849l6.527-4.338-8.987 5.188a.5.5 0 0 1 -.527-.849l9.662-6.444-12.639 7.295a.5.5 0 0 1 -.524-.851l11.708-7.7-14.82 8.556a.5.5 0 0 1 -.523-.852l14.114-9.2-17.407 10.051a.5.5 0 0 1 -.518-.855l13.388-8.5-16.205 9.357a.5.5 0 0 1 -.515-.858l11.419-7.111-13.8 7.97a.5.5 0 0 1 -.514-.858l14.33-8.924-16.952 9.784a.5.5 0 0 1 -.512-.859l10.851-6.656-13.019 7.516a.5.5 0 0 1 -.515-.857l20.995-13.11-24.195 13.969a.5.5 0 0 1 -.512-.859l17.93-11.013-20.566 11.874a.5.5 0 0 1 -.51-.861l13.663-8.294-15.86 9.156a.494.494 0 0 1 -.25.069z" fill="#276f82"/><path d="m23.934 29.713a.5.5 0 0 1 -.425-.763l.879-1.422-3.581 2.072a.5.5 0 0 1 -.5-.866l5.3-3.059a.5.5 0 0 1 .676.695l-.88 1.422.075-.042a.5.5 0 0 1 .5.865l-1.793 1.036a.5.5 0 0 1 -.251.062z" fill="#ccd0da"/><path d="m15.357 9.16a.5.5 0 0 1 -.25-.932l1.046-.6a.5.5 0 1 1 .5.865l-1.046.605a.491.491 0 0 1 -.25.062z" fill="#ccd0da"/><path d="m17.529 32.447a.5.5 0 0 1 -.3-.9l2.2-1.7-3.709 2.14a.5.5 0 0 1 -.551-.832l4.116-3.095-4.2 2.423a.5.5 0 0 1 -.543-.838l6.3-4.567-7.538 4.353a.5.5 0 0 1 -.528-.849l2.51-1.669-4 2.307a.5.5 0 0 1 -.543-.838l7.52-5.427-9.752 5.645a.5.5 0 0 1 -.537-.842l8.226-5.765-7.8 4.507a.5.5 0 0 1 -.528-.849l4.9-3.277-4.286 2.474a.5.5 0 0 1 -.531-.848l6.724-4.577-6.806 3.931a.5.5 0 0 1 -.52-.854l.387-.249-.569.328a.5.5 0 0 1 -.531-.846l4.928-3.349-6.022 3.476a.5.5 0 0 1 -.526-.848l2.429-1.612-2.16 1.247a.5.5 0 0 1 -.545-.836l6.608-4.829-3.252 1.875a.5.5 0 0 1 -.547-.835l3.617-2.673-2.56 1.477a.5.5 0 0 1 -.6-.792l.188-.181h-.008a.5.5 0 0 1 -.649-.733l.783-1.038a.5.5 0 0 1 -.1-.91l1.488-.86a.5.5 0 0 1 .649.734l-.536.711 1.4-.81a.5.5 0 0 1 .6.792l-.188.182 6.691-3.862a.5.5 0 0 1 .547.834l-3.615 2.673 3.639-2.1a.5.5 0 0 1 .545.836l-6.614 4.834 7.9-4.557a.5.5 0 0 1 .526.849l-2.419 1.607 4.044-2.335a.5.5 0 0 1 .531.846l-4.929 3.35 6.667-3.849a.5.5 0 0 1 .521.853l-.381.246.575-.332a.5.5 0 0 1 .531.845l-6.721 4.576 5.746-3.317a.5.5 0 0 1 .528.849l-4.9 3.277 4.588-2.648a.5.5 0 0 1 .537.841l-8.231 5.763 8.357-4.83a.5.5 0 0 1 .543.838l-7.526 5.43 9.153-5.284a.5.5 0 0 1 .53.846l-2.494 1.658 2.2-1.272a.5.5 0 0 1 .543.838l-6.302 4.576 2.979-1.72a.5.5 0 0 1 .551.832l-4.117 3.093 3.061-1.767a.5.5 0 0 1 .556.828l-6.816 5.254a.5.5 0 0 1 -.249.406l-1.133.654a.491.491 0 0 1 -.25.067z" fill="#ccd0da"/><path d="m17.731 26.353a.5.5 0 0 1 -.324-.881l.8-.679-2.39 1.379a.5.5 0 0 1 -.583-.806l3.666-3.276-5.285 3.051a.5.5 0 0 1 -.566-.82l4.157-3.4-4.885 2.82a.5.5 0 0 1 -.541-.84l1.267-.9-1.254.724a.5.5 0 0 1 -.568-.818l4.158-3.441-4.045 2.334a.5.5 0 0 1 -.559-.826l2.135-1.674-1.423.821a.5.5 0 0 1 -.607-.782l1.929-1.973a.524.524 0 0 1 -.455-.25.5.5 0 0 1 .183-.682l2.779-1.605a.5.5 0 0 1 .608.782l-1.783 1.825 4.411-2.547a.5.5 0 0 1 .558.826l-2.135 1.672 3.054-1.763a.5.5 0 0 1 .569.817l-4.159 3.442 5.051-2.915a.5.5 0 0 1 .541.84l-1.258.9 1.272-.734a.5.5 0 0 1 .566.819l-4.159 3.4 4.144-2.393a.5.5 0 0 1 .583.805l-3.668 3.278 2.949-1.7a.5.5 0 0 1 .574.813l-1.157.984a.5.5 0 0 1 .216.932l-4.113 2.374a.493.493 0 0 1 -.253.067z" fill="#b2b7c1"/><g fill="#262626"><path d="m5.372 22.107a5 5 0 0 1 1.228.493c.323.285.425 1.092.638 1.572a7.6 7.6 0 0 1 .572 1.057c.006.084-.132.281-.151.352a10.765 10.765 0 0 1 -.5 1.157c-.408 1.043.122 1.5.916 2.251 1.156 1.09 2.323.51 3.549-.062.265.146.526.3.8.42a11.406 11.406 0 0 1 1.331.446c.319.206.438.749.6 1.155.406 1.017.654 1.345 1.832 1.388 1.015.037 2.449.135 3.07-.844a9.737 9.737 0 0 0 .752-1.814 12.7 12.7 0 0 0 1.839-.748 11.291 11.291 0 0 0 1.561.66c1.123.325 1.981-.379 2.729-1.127.89-.89 1-1.306.528-2.4a3.95 3.95 0 0 1 -.487-1.135c0-.263.455-.814.562-1.057a10.726 10.726 0 0 0 .494-1.422l1.535-.614c.026-.011.037-.021.06-.031a.736.736 0 0 0 .105-.045c.008 0 .013-.013.02-.018.126-.07.2-.136.217-.195.913-.894.892-3.005-.311-3.551-.34-.154-.7-.278-1.043-.417a1.585 1.585 0 0 1 -.418-.178c-.037-.032-.059-.048-.081-.064a1.192 1.192 0 0 0 -.121-.32 17.889 17.889 0 0 1 -.806-1.939c-.164-.5-.157-.411.067-.935a4.446 4.446 0 0 0 .6-1.593c-.028-.736-1.284-1.889-1.921-2.139-.831-.326-1.92.232-2.781.657-.261-.143-.519-.293-.792-.414a11.406 11.406 0 0 1 -1.331-.446c-.319-.206-.438-.749-.6-1.155-.406-1.017-.654-1.345-1.832-1.388-1.015-.037-2.449-.136-3.07.844a9.737 9.737 0 0 0 -.752 1.814 12.7 12.7 0 0 0 -1.839.748 11.291 11.291 0 0 0 -1.561-.66c-1.123-.325-1.981.379-2.729 1.127-.89.89-1 1.306-.528 2.4a3.95 3.95 0 0 1 .487 1.135c0 .263-.455.814-.562 1.057a10.556 10.556 0 0 0 -.491 1.414c-.508.193-1.023.379-1.509.611-.934.445-.97 1.065-.971 2.036-.003 1.083.118 1.526 1.095 1.917zm.4-3.37c.129-.206.26-.227.544-.341a11.609 11.609 0 0 0 1.37-.548c.754-.424.8-1.556 1.177-2.316.425-.86.4-.823.039-1.673-.157-.367-.6-1.039-.484-1.475.067-.255.453-.574.641-.768.064-.066.458-.618.347-.58.086-.029.5.215.559.24a8.094 8.094 0 0 0 1.344.576c.849.183 1.624-.53 2.368-.821.6-.236 1.353-.25 1.707-.83.295-.482.337-1.121.639-1.6-.025.04.126-.3.036-.218-.01.009.513-.039.642-.038a1.336 1.336 0 0 1 1.222.44c.33.475.322 1.193.663 1.658.241.328.036.208.617.4.751.246 1.473.749 2.209.965a1.858 1.858 0 0 0 1.325-.2c.328-.134.653-.279.979-.419a1.736 1.736 0 0 1 .392-.168c.346-.035-.1.042-.058.064a4.615 4.615 0 0 1 1.378 1.4.917.917 0 0 1 0 .923c-.16.453-.7 1.136-.692 1.615 0 .422.565 1.148.735 1.583.154.394.212 1.063.524 1.331a6.713 6.713 0 0 0 1.55.62c.423.185.6.246.7.783.078.417.182 1.832-.143 2.094-.786.286-1.938.526-2.294 1.262-.271.56-.389 1.205-.669 1.774-.129.263-.393.564-.395.844 0 .5.557 1.178.713 1.663a1.145 1.145 0 0 1 .128.641 7.777 7.777 0 0 1 -1 1.239c-.114.039-.075.03-.37-.054a8.492 8.492 0 0 1 -.978-.42 1.716 1.716 0 0 0 -1.223-.214 5.855 5.855 0 0 0 -1.088.538 15.429 15.429 0 0 0 -1.979.725c-.36.248-.431.622-.592 1.023-.113.284-.206.595-.346.866-.2.39.067.324-.537.332-1.209.015-1.334-.287-1.7-1.194a3.1 3.1 0 0 0 -.565-1.189c-.336-.3-1.164-.354-1.6-.547-.457-.2-.882-.614-1.4-.613a3.638 3.638 0 0 0 -1.321.444c-.285.122-.568.262-.859.368a1.1 1.1 0 0 0 -.121.065c-.01-.117-.258-.353-.216-.292-.528-.759-1.5-1.036-1.12-2.1a8.511 8.511 0 0 0 .647-1.508c.036-.3-.1-.445-.254-.737a9.859 9.859 0 0 1 -.436-.953c-.122-.313-.181-1-.386-1.212-.76-.793-2.239-.345-2.4-1.692a4.5 4.5 0 0 1 .031-1.756z"/><path d="m59.734 4.093a3.56 3.56 0 0 0 -3.485-3.625c-.028 0-.057.009-.086.011a.75.75 0 0 0 -.1-.015h-51.263c-2.509 0-4.515 1.336-4.534 4.036-.054 7.387 0 14.775 0 22.162v16.368a5.289 5.289 0 0 0 .409 2.67c1.209 2.221 3.87 1.837 6 1.837h10.601v3.55c-.048.024-.1.039-.149.065q-2.389 1.36-4.776 2.729c-.324.185-.663.364-.992.555h-.114a.678.678 0 0 0 -.734.709 2.549 2.549 0 0 0 -.235 1.37c0 1.251-.247 2.7 1.4 2.79.724.039 1.46 0 2.185 0h31.72c.63 0 1.266.027 1.894 0a3.069 3.069 0 0 0 1.6-.43c.744-.5.645-1.247.645-2.038a3.808 3.808 0 0 0 -.236-2.006.446.446 0 0 0 -.256-.312c-.02-.018-.033-.038-.054-.056l-3.894-2.225a14.58 14.58 0 0 0 -2.56-1.462v-3.24h11.209c.635 0 1.274.022 1.908 0a3.84 3.84 0 0 0 3.9-3.59c.093-1.935 0-3.9 0-5.835v-13.169c-.003-6.942.143-13.906-.003-20.849zm-55.74-2.557c1.737-.107 3.516 0 5.256 0h46.532c3.165.2 2.484 4.144 2.484 6.333v30.769h-56.532v-31.682c0-1.966-.534-5.247 2.26-5.42zm44.153 57.164a14.692 14.692 0 0 1 -3 0h-30.6a9.466 9.466 0 0 1 -2.054 0c-1.095-.27-.784-2.02-.764-2.885a2.2 2.2 0 0 1 .027-.246h36.45a10.008 10.008 0 0 1 .07 2.444c.042.71.384.565-.129.687zm-1.218-4.261h-34.348c.214-.127.452-.249.706-.394l4.767-2.724h23.382a55.544 55.544 0 0 1 5.493 3.114zm-5.653-3.792c-.316.011-.628.027-.933.04h-18.059a21.9 21.9 0 0 0 -3.56-.014v-3.137h22.552zm16.981-6.426c-.147 1.642-1.342 2.247-2.775 2.247h-32.924c-6.049 0-12.146.225-18.192 0-2.749-.1-2.632-2.567-2.632-4.562v-2.54h56.532v3.244c0 .53.034 1.078-.009 1.607z"/><path d="m18.169 26.347a6.752 6.752 0 0 0 5.561-6.417 6.434 6.434 0 0 0 -4.3-6.035 7.105 7.105 0 0 0 -7.587 2.033 6.413 6.413 0 0 0 -.665 7.449 6.679 6.679 0 0 0 6.991 2.97zm-5.717-9.23a5.04 5.04 0 0 1 5.427-2.526 5.7 5.7 0 0 1 4.391 5.479 5.486 5.486 0 0 1 -3.406 5.153 5.309 5.309 0 0 1 -5.906-1.809 5.731 5.731 0 0 1 -.506-6.297z"/><path d="m32.3 42.651h-4a1.345 1.345 0 0 0 -.963.37c-.212.264.185.328.367.328h4a1.345 1.345 0 0 0 .963-.37c.21-.264-.187-.328-.367-.328z"/><path d="m32.575 10.463a.909.909 0 0 0 .352.033h1a.91.91 0 0 0 .291-.069.818.818 0 0 0 .254-.127.536.536 0 0 0 .172-.173.354.354 0 0 0 .087-.192.342.342 0 0 0 -.168-.335l-.138-.063a.909.909 0 0 0 -.352-.033h-1a.91.91 0 0 0 -.291.069.8.8 0 0 0 -.254.127.536.536 0 0 0 -.172.173.354.354 0 0 0 -.087.192.342.342 0 0 0 .168.335z"/><path d="m32.7 14.34h1a1.294 1.294 0 0 0 .278-.039 1.435 1.435 0 0 0 .288-.082 1 1 0 0 0 .234-.119.605.605 0 0 0 .165-.128c.053-.07.105-.165.016-.236l-.091-.047a.845.845 0 0 0 -.287-.031h-1a1.294 1.294 0 0 0 -.278.039 1.435 1.435 0 0 0 -.288.082 1 1 0 0 0 -.233.117.605.605 0 0 0 -.165.128c-.053.07-.105.165-.016.236l.091.047a.845.845 0 0 0 .286.033z"/><path d="m32.529 18.29h1a2.016 2.016 0 0 0 .529-.074 1.733 1.733 0 0 0 .495-.2l.1-.074a.151.151 0 0 0 .069-.136c-.038-.088-.176-.1-.253-.1h-1a2.016 2.016 0 0 0 -.529.074 1.733 1.733 0 0 0 -.495.2l-.1.074a.151.151 0 0 0 -.069.136c.038.092.176.1.253.1z"/><path d="m32.323 22.27a.592.592 0 0 0 .383.095h1a1.6 1.6 0 0 0 .567-.118.942.942 0 0 0 .231-.121.581.581 0 0 0 .163-.137c.054-.078.1-.182.01-.259a.592.592 0 0 0 -.383-.095h-1a1.6 1.6 0 0 0 -.567.118.942.942 0 0 0 -.231.121.581.581 0 0 0 -.163.137c-.054.078-.099.182-.01.259z"/><path d="m37.739 10.487h5a1.033 1.033 0 0 0 .947-.427c.154-.3-.133-.547-.425-.547h-5a1.033 1.033 0 0 0 -.947.427c-.154.297.133.547.425.547z"/><path d="m43.661 17.965c.206-.258-.182-.29-.356-.29h-5a1.39 1.39 0 0 0 -.966.36c-.206.258.182.29.356.29h5a1.39 1.39 0 0 0 .966-.36z"/><path d="m37.928 14.5h10c.3 0 .765-.232.8-.565.044-.372-.394-.439-.66-.439h-10c-.3 0-.765.232-.8.565-.044.374.394.439.66.439z"/><path d="m48.284 10.3h.248a2.025 2.025 0 0 0 .531-.068 1.623 1.623 0 0 0 .494-.206c.064-.046.193-.126.167-.223s-.188-.109-.256-.109h-2a2.025 2.025 0 0 0 -.531.068 1.623 1.623 0 0 0 -.494.206c-.064.046-.193.126-.167.223s.188.109.256.109z"/><path d="m52.409 14.307h.124a1.989 1.989 0 0 0 .531-.068 1.591 1.591 0 0 0 .494-.207l.1-.079a.159.159 0 0 0 .066-.147c-.038-.092-.173-.113-.257-.113h-1a1.989 1.989 0 0 0 -.531.068 1.591 1.591 0 0 0 -.494.207l-.1.079a.159.159 0 0 0 -.066.147c.038.092.173.113.257.113z"/><path d="m34.267 25.535h-1a1.323 1.323 0 0 0 -.569.107.709.709 0 0 0 -.226.142.512.512 0 0 0 -.155.169.3.3 0 0 0 .015.347.566.566 0 0 0 .4.165h1a1.323 1.323 0 0 0 .569-.107.726.726 0 0 0 .226-.142.512.512 0 0 0 .155-.169.3.3 0 0 0 -.015-.347.566.566 0 0 0 -.4-.165z"/><path d="m34.3 29.644h-1a1.643 1.643 0 0 0 -.567.119 1 1 0 0 0 -.232.12.585.585 0 0 0 -.164.134c-.053.075-.1.175-.011.25a.6.6 0 0 0 .38.089h1a1.621 1.621 0 0 0 .567-.12.96.96 0 0 0 .232-.119.585.585 0 0 0 .164-.134c.053-.075.1-.175.011-.25a.6.6 0 0 0 -.38-.089z"/><path d="m37.713 26.392h5a1.224 1.224 0 0 0 .959-.392c.192-.278-.166-.4-.385-.4h-5a1.224 1.224 0 0 0 -.959.388c-.192.286.166.404.385.404z"/><path d="m43.265 29.526h-5a1.054 1.054 0 0 0 -.949.422c-.159.295.136.526.419.526h5a1.054 1.054 0 0 0 .949-.422c.159-.295-.136-.526-.419-.526z"/><path d="m47.069 25.488a1.046 1.046 0 0 0 -.545.2.6.6 0 0 0 -.257.375c-.021.376.374.452.664.452h3a1.039 1.039 0 0 0 .545-.2.6.6 0 0 0 .257-.374c.021-.376-.374-.452-.664-.452h-3z"/><path d="m48.418 29.511a.867.867 0 0 0 -.354-.042h-1a.826.826 0 0 0 -.291.068.768.768 0 0 0 -.254.131.612.612 0 0 0 -.253.387.394.394 0 0 0 .176.364l.14.07a.867.867 0 0 0 .354.042h1a.826.826 0 0 0 .291-.068.768.768 0 0 0 .254-.131.612.612 0 0 0 .253-.387.394.394 0 0 0 -.176-.364z"/><path d="m37.74 22.491h1a.84.84 0 0 0 .283-.018.906.906 0 0 0 .287-.086.707.707 0 0 0 .225-.147.512.512 0 0 0 .152-.178.334.334 0 0 0 -.021-.37.566.566 0 0 0 -.406-.183h-1a.84.84 0 0 0 -.283.018.906.906 0 0 0 -.287.086.707.707 0 0 0 -.225.147.512.512 0 0 0 -.152.178.334.334 0 0 0 .021.37.57.57 0 0 0 .406.183z"/><path d="m46.735 21.948c.016-.382-.363-.491-.674-.491h-3c-.3 0-.782.247-.8.595-.016.382.363.491.674.491h3c.309 0 .786-.243.8-.595z"/></g></svg>