<?xml version="1.0" encoding="iso-8859-1"?>
<svg version="1.1" id="Layer_1" xmlns="http://www.w3.org/2000/svg" xmlns:xlink="http://www.w3.org/1999/xlink" x="0px" y="0px"
	 viewBox="0 0 274.192 274.192" style="enable-background:new 0 0 274.192 274.192;" xml:space="preserve">
<g>
	<path style="fill:#1D1D1B;" d="M273.181,197.811c2.756,8.042-0.261,19.411-7.375,23.373c-0.186,0.238-0.41,0.436-0.745,0.555
		c-25.217,8.913-57.996,5.784-84.442,7.091c-31.065,1.545-62.168,2.456-93.233,1.902c-15.533-0.277-31.065-0.911-46.561-2.02
		c-9.089-0.634-26.968,1.228-35.237-5.031c-5.624-4.278-6.854-10.736-4.358-16.401c0-0.04-0.037-0.079-0.037-0.158
		c0.298-4.199,3.613-7.487,7.301-8.596C9.76,198.168,13,197.97,14.677,199c-4.768-6.259-0.261-13.469,5.401-17.272
		c-0.373-0.277-0.633-0.673-0.671-1.228c-3.464-34.029-6.593-68.811-7.375-103.038c0-0.119,0.075-0.159,0.112-0.238
		c-0.037-0.079,0-0.198,0-0.277c-0.037-0.357,0.075-0.713,0.484-0.911c1.676-0.871,3.576-0.634,5.401-0.713
		c2.011-0.04,4.097-0.277,6.071,0.158c0.149,0,0.186,0.119,0.298,0.198c0.335,0.04,0.708,0.238,0.819,0.594
		c0.782,2.139,1.08,4.358,1.378,6.616c0.261,2.06,0.67,4.278,0.633,6.378c1.788,0.04,3.539,0.119,5.326,0.079
		c1.415-0.04,2.905-0.238,4.358-0.238c-0.037-2.733-0.037-5.507,0-8.24c0.037-1.466-0.298-3.684,1.006-4.675
		c1.415-1.109,4.134-0.594,5.774-0.634c2.794-0.079,5.624-0.198,8.418-0.198c0.521,0,0.894,0.238,1.155,0.515
		c0.521-0.079,1.118,0.277,1.192,1.07c0.41,3.763,0.857,7.527,1.602,11.211c1.825,0.04,3.688,0.119,5.513,0.198
		c1.564,0.04,3.054,0,4.507,0.356c0-4.318,0.037-8.676,0.149-12.994c0.037-1.188,1.08-2.02,2.16-1.743
		c1.788,0.436,3.539,0.753,5.401,0.753c1.639,0,3.241-0.396,4.88-0.277c0.41,0.04,0.708,0.277,0.968,0.594
		c0.372,0.119,0.745,0.396,0.782,0.951c0.671,11.251,1.08,22.581,1.304,33.91c5.364-0.198,10.765-0.356,16.129-0.475
		c1.602-18.936-2.347-38.704-2.011-57.719c0.037-0.238,0.075-0.436,0.149-0.634c0-0.079-0.037-0.158,0-0.198
		c0.335-1.901,2.682-1.822,4.097-2.06c2.309-0.396,4.991-1.307,7.301-1.149c2.086,0.119,2.347,1.902,2.682,3.764
		c0.372,2.218,1.006,4.635,1.117,6.933c2.086-0.159,4.135-0.277,6.183-0.475c0-1.624,0-3.288,0-4.952
		c0-1.981-0.261-4.199,0.373-6.101c0.372-1.228,1.714-1.426,2.458-0.634c3.203-0.238,6.444-0.396,9.647-0.674
		c0.894-0.079,1.676,0.872,1.676,1.783c0,3.605,0.261,7.368-0.037,11.013c1.341-0.119,2.719-0.277,4.06-0.396
		c-0.074-1.941-0.037-3.882,0.037-5.784c0.149-2.1,0.075-4.397,1.118-6.18c0.335-0.555,0.894-0.753,1.453-0.634
		c3.948-0.99,8.94-2.496,12.962-1.902c1.006-0.119,2.049,0.475,2.011,1.862c-0.521,21.234-0.372,42.705-2.682,63.859
		c3.501,0.04,6.965,0,10.43,0.079c-0.782-8.993-1.415-17.906-1.862-26.78c-0.372-0.396-0.484-1.149,0.074-1.505
		c0.186-0.277,0.484-0.356,0.782-0.277c3.576-1.585,8.418-1.307,12.143-1.545c0.745-0.04,1.527,0.594,1.676,1.347
		c0.782,3.645,1.788,7.329,2.347,11.053c1.229-0.396,2.57-0.357,3.948-0.396c1.043-0.04,2.086-0.079,3.129-0.119
		c0.372,0,0.782,0,1.155-0.04c-0.335-0.832,0.149-2.892,0.186-3.803c0.074-1.109,0.112-2.179,0.186-3.288
		c0.112-1.941,0.112-3.961,0.671-5.863c0.223-0.792,1.006-1.188,1.713-1.109c2.645-0.515,5.289-0.832,7.934-1.07
		c1.639-0.159,4.06-0.911,5.401,0.475c1.266,1.307,1.006,4.279,1.192,5.942c0.224,2.179,0.67,4.437,0.67,6.655
		c1.751-0.238,3.501-0.436,5.289-0.594c0.708-0.079,4.582,0.079,4.954-0.436c0.447-0.673,0.112-3.962,0.149-4.873
		c0.112-1.862,0.223-3.684,0.41-5.546c0.149-1.03,0.857-1.585,1.602-1.664c0.037-0.04,0.075-0.079,0.112-0.079
		c2.272-0.713,4.731-1.03,7.077-1.149c2.086-0.159,4.284-0.357,6.221,0.515c0.447-0.872,1.788-0.792,1.825,0.436
		c1.378,36.446-0.782,74.951-4.768,111.239c4.358,1.07,8.157,4.041,9.349,8.953c2.198-4.08,5.476-7.448,10.206-7.883
		c3.762-0.317,7.897,2.337,8.902,6.14C258.952,187.234,270.015,188.779,273.181,197.811z M270.052,204.823
		c0.261-9.983-9.573-15.093-15.309-6.14c-1.006,1.545-2.794,0.832-3.054-0.594c-0.298-0.159-0.559-0.436-0.633-0.832
		c-1.229-4.952-5.178-7.012-9.573-4.437c-2.607,1.545-4.209,4.16-5.513,6.933c0.857,0.198,1.676,0.515,2.309,1.109
		c0.67,0.634,0.298,1.941-0.521,2.139c-1.266,0.317-2.384-0.04-3.613-0.119c-1.453-0.119-2.831,0.079-4.283,0.277
		c-1.714,0.238-2.458-2.218-0.745-2.852c0.931-0.317,2.049-0.594,3.203-0.753c-2.421-4.991-5.513-9.706-11.361-9.904
		c-5.848-0.238-9.871,4.437-12.143,9.626c-0.41,0.951-1.937,0.515-1.825-0.515c0-0.119,0.037-0.238,0.075-0.357
		c-1.713-2.417-4.023-4.754-7.114-4.199c-2.458,0.436-4.209,2.654-4.768,5.11c2.16,0.317,4.135,1.149,5.215,2.734
		c0.596,0.871-0.223,2.139-1.155,2.1c-1.527-0.04-2.905-0.832-4.358-1.387c-0.41,0.673-1.453,0.792-1.751-0.238
		c0-0.079,0-0.119,0-0.198c-1.9-0.277-3.725-0.079-5.624-0.079c-0.82,0.04-1.155-1.188-0.447-1.624
		c1.08-0.673,2.57-1.109,4.172-1.307c-1.751-4.793,0.149-10.181-3.725-14.459c-4.88-5.388-12.59-3.526-16.389,2.179
		c-0.112,1.624-2.533,1.981-2.868,0.277c-0.82-4.001-3.092-7.844-7.338-8.2c-3.688-0.277-6.779,2.377-8.195,5.784
		c1.192-0.198,2.384-0.198,3.352,0.475c0.708,0.515,0.82,1.703,0,2.179c-1.453,0.832-3.166,0.396-4.768,0.634
		c-1.751,0.277-3.39,0.911-4.991,1.585c-1.304,0.594-2.086-1.624-0.931-2.337c1.118-0.674,2.272-1.149,3.464-1.585
		c-4.097-6.655-8.381-13.271-16.687-7.685c-6.146,4.16-9.014,11.092-6.928,18.619c0.298,1.149-1.267,1.901-1.863,0.951
		c-0.782,0.436-1.937,0.198-2.235-0.99c-1.415-5.507-6.22-8.953-10.802-4.199c-0.894,0.951-2.719,0.634-2.98-0.832
		c-0.41-1.981-0.894-3.763-2.049-5.388c-1.043-1.981-2.794-3.011-5.215-3.209c-1.416,1.466-2.831,2.971-4.246,4.437
		c0.223,0.079,0.447,0.158,0.67,0.277c0.931,0.555,0.857,2.456-0.298,2.615c-2.533,0.396-5.699-0.673-8.083-1.426
		c-1.378-0.436-1.155-2.852,0.335-2.733c1.266,0.079,2.533,0.317,3.762,0.515c-0.037-0.04-0.074-0.04-0.112-0.119
		c-1.788-3.645-2.123-9.23-7.189-9.389c-4.135-0.119-8.12,4.001-9.983,7.883c0.149,0.753,0.298,1.505,0.372,2.218
		c0.261,2.139-2.943,2.456-3.464,0.475c-1.416-5.546-4.544-14.301-11.547-10.141c-4.023,2.377-6.444,6.853-7.375,11.568
		c1.043,0.396,1.937,1.03,2.421,1.981c0.372,0.673-0.075,1.783-0.894,1.703c-0.857-0.079-1.527-0.475-2.235-0.832
		c-0.633,0.634-1.751,0.396-1.863-0.713c-1.229-0.357-2.533-0.436-3.836-0.396c-1.192,0.04-1.49-2.02-0.298-2.258
		c1.006-0.198,2.347-0.317,3.725-0.198c-0.484-2.337-1.713-4.358-4.321-4.199c-1.266,0.079-2.458,0.832-3.352,1.743
		c-0.224,0.198-1.117,1.347-1.564,2.139c0.037,0.357,0.037,0.713,0.037,1.109c0.335,0.515,0.224,1.228-0.223,1.505
		c-0.037,0.119-0.037,0.238-0.074,0.356c-0.335,1.505-2.421,1.426-2.794,0c-1.676-6.457-5.774-9.824-12.329-7.963
		c-5.625,1.624-12.068,7.963-8.455,14.42c0.745-0.673,1.602-1.149,2.57-1.109c0.782,0,1.266,0.911,0.894,1.624
		c-0.708,1.189-2.011,1.783-2.868,2.852c-1.08,1.307-1.602,2.813-2.011,4.477c-0.261,1.149-2.011,0.911-1.937-0.317
		c0.037-1.07,0.372-2.456,0.931-3.803c-0.969-1.188-5.438,0.555-6.22,0.99c-0.931,0.555-1.639,1.228-2.309,2.02
		c-11.92,21.273,30.022,19.926,38.478,20.481c9.536,0.634,19.108,1.07,28.644,1.387c20.3,0.634,40.638,0.555,60.938,0.079
		c21.53-0.475,43.059-1.466,64.551-2.694c21.083-1.188,43.804-0.357,64.44-5.15C267.482,215.876,269.903,210.726,270.052,204.823z
		 M227.626,78.055c-1.825,0.555-3.911,0.238-5.811,0.198c-1.788,0-3.613,0.04-5.438,0.04c0.037,2.416-0.112,4.833-0.224,7.21
		c-0.074,1.822,0.112,4.12-1.341,5.388c-1.378,1.188-3.65,0.832-5.326,0.872c-2.645,0.079-5.289,0.119-7.897,0.119
		c-0.186-0.04-0.298-0.079-0.447-0.119c-0.708,0.198-1.602-0.198-1.9-0.99c-0.708-1.822-0.671-3.882-0.894-5.823
		c-0.112-1.07-0.223-2.139-0.335-3.209c-0.037-0.475,0-2.298-0.075-2.377c-0.261-0.436-3.986-0.04-5.029,0
		c-1.527,0.04-3.054-0.079-4.544-0.159c0.261,2.615-0.075,5.348-0.224,7.963c-0.112,1.862,0.298,4.793-0.819,6.378
		c-1.192,1.704-3.539,1.189-5.252,1.07c-2.16-0.119-4.656,0.04-6.63-0.951c-0.819,0.713-2.16,0.594-2.607-0.832
		c-0.931-3.248-1.527-6.616-2.198-9.943c-3.092,0.277-6.779,0.832-9.834,0.198c6.891,31.534,9.796,66.197,10.988,98.403
		c0.037,0.951-0.857,1.426-1.602,1.268c0.112,0.277,0.261,0.555,0.335,0.832c3.501-4.714,9.573-6.893,15.048-4.516
		c6.593,2.852,8.381,9.111,8.753,15.767c1.043-1.704,2.645-3.09,4.656-3.645c3.39-0.951,7.189,0.515,9.051,3.447
		c2.421-5.784,8.381-8.557,14.043-8.319C223.044,150.471,224.497,113.748,227.626,78.055z M160.914,175.983
		c3.278,0.119,6.407,2.139,8.306,4.992c-2.905-22.422-5.923-45.438-8.008-68.296c-0.075,0-0.112,0-0.149,0
		c-26.372,0.713-52.893,0.753-79.265,0.079c0.41,20.402,0.335,40.843,0.633,61.205c0.819-0.238,1.676-0.396,2.496-0.436
		c4.619-0.079,8.94,4.397,9.796,9.27c1.527-2.1,3.986-3.288,6.891-2.892c4.358,0.634,7.003,4.12,8.418,8.161
		c3.874-2.377,8.828-1.783,11.771,1.228c0.559-6.22,4.656-11.964,9.983-15.173c4.097-2.456,8.12-3.288,12.255-0.515
		c3.054,2.1,5.923,5.388,7.189,9.151C152.868,178.756,156.556,175.865,160.914,175.983z M100.199,109.351
		c16.24-0.356,32.518-0.396,48.758-0.238c-1.229-20.6-0.112-41.358,0.447-61.997c-1.453,0.277-2.98,0.317-4.395,0.436
		c-1.863,0.159-3.725,0.238-5.587,0.317c0.074,1.545-0.261,3.169-0.335,4.754c-0.149,2.298-0.112,4.635-0.112,6.933
		c0.037,0.911-0.782,1.941-1.676,1.822c-2.458-0.317-4.954-0.277-7.412-0.515c-0.67-0.079-0.968-0.515-1.043-0.99
		c-0.298-0.277-0.521-0.673-0.559-1.228c-0.335-3.169-0.186-6.497-0.112-9.706c-2.421-0.238-4.842-0.396-7.226-0.594
		c0.149,1.505,0,3.09,0,4.595c-0.037,2.219-0.037,4.437-0.075,6.655c-0.037,0.911-0.782,1.981-1.751,1.862
		c-2.831-0.356-5.662-0.356-8.493-0.594c-0.671,0.594-1.676,0.674-2.123-0.356c-0.745-1.783-0.968-3.605-1.304-5.507
		c-0.149-0.872-0.298-1.743-0.447-2.615c-0.075-0.396-0.149-0.832-0.186-1.228c-1.415-0.119-3.39,0.475-4.656,0.594
		c-0.931,0.079-2.011,0.079-3.054,0.158c1.117,10.736,1.192,21.59,1.639,32.365C100.832,92.634,101.614,101.111,100.199,109.351z
		 M78.967,175.548c0,0,0,0,0-0.04c-0.372-32.484-1.713-65.206-0.67-97.69c-2.682,0.99-5.923,0.753-8.828,0.119
		c-0.224,4.001-0.484,7.963-0.819,11.924c-0.037,0.753-0.522,1.149-1.043,1.268c-0.186,0.317-0.41,0.555-0.708,0.674
		c-1.825,0.673-3.911,0.277-5.811,0.238c-2.16-0.079-4.321-0.198-6.481-0.277c-0.708,0-1.527-0.515-1.676-1.347
		c-0.671-3.843-1.006-7.725-0.782-11.647l-0.037,0.04c-1.937,0.079-3.874,0.119-5.811,0.158c-1.527,0-3.762-0.396-5.252,0.079
		c-1.676,0.515-1.229,3.644-1.378,5.348c-0.149,1.822-0.298,3.605-0.521,5.388c0.708,0.832,0.67,2.179-0.596,2.535
		c-3.576,0.951-8.344,0.198-11.92-0.555c-0.149,0-0.186-0.119-0.298-0.198c-0.671,0.317-1.49,0.159-1.788-0.832
		c-0.745-2.298-0.708-4.912-0.857-7.289c-0.112-1.664-0.149-3.288-0.112-4.912c-1.825,0.277-3.725,0.119-5.55,0.079
		c-1.266-0.04-2.533,0-3.725-0.198c4.321,33.593,6.518,68.059,8.306,101.929c0.335-0.159,0.67-0.317,1.006-0.436
		c5.066-1.902,13.223-0.198,16.091,4.873c1.006-1.426,2.384-2.535,3.948-3.13c2.57-0.99,6.034,0.04,7.934,2.258
		c1.788-5.11,5.401-9.626,10.43-10.736c5.699-1.228,9.647,3.05,11.733,8.161C74.982,178.994,76.844,176.974,78.967,175.548z"/>
	<path style="fill:#CA9E67;" d="M254.743,198.683c5.736-8.953,15.57-3.843,15.309,6.14c-0.149,5.903-2.57,11.053-7.077,13.707
		c-20.636,4.793-43.357,3.962-64.44,5.15c-21.492,1.228-43.022,2.218-64.551,2.694c-20.3,0.475-40.638,0.555-60.938-0.079
		c-9.536-0.317-19.108-0.753-28.644-1.387c-8.455-0.555-50.397,0.792-38.478-20.481c0.67-0.792,1.378-1.466,2.309-2.02
		c0.782-0.436,5.252-2.179,6.22-0.99c-0.559,1.347-0.894,2.734-0.931,3.803c-0.075,1.228,1.676,1.466,1.937,0.317
		c0.41-1.664,0.931-3.169,2.011-4.477c0.857-1.07,2.16-1.664,2.868-2.852c0.373-0.713-0.112-1.624-0.894-1.624
		c-0.968-0.04-1.825,0.436-2.57,1.109c-3.613-6.457,2.831-12.796,8.455-14.42c6.556-1.862,10.653,1.505,12.329,7.963
		c0.373,1.426,2.458,1.505,2.794,0c0.037-0.119,0.037-0.238,0.074-0.356c0.447-0.277,0.559-0.99,0.223-1.505
		c0-0.396,0-0.753-0.037-1.109c0.447-0.792,1.341-1.941,1.564-2.139c0.894-0.911,2.086-1.664,3.352-1.743
		c2.607-0.158,3.837,1.862,4.321,4.199c-1.378-0.119-2.719,0-3.725,0.198c-1.192,0.238-0.894,2.298,0.298,2.258
		c1.304-0.04,2.607,0.04,3.836,0.396c0.112,1.109,1.229,1.347,1.863,0.713c0.708,0.357,1.378,0.753,2.235,0.832
		c0.819,0.079,1.266-1.03,0.894-1.703c-0.484-0.951-1.378-1.585-2.421-1.981c0.931-4.714,3.352-9.191,7.375-11.568
		c7.003-4.16,10.132,4.595,11.547,10.141c0.521,1.981,3.725,1.664,3.464-0.475c-0.075-0.713-0.224-1.466-0.372-2.218
		c1.862-3.882,5.848-8.002,9.983-7.883c5.066,0.158,5.401,5.744,7.189,9.389c0.037,0.079,0.074,0.079,0.112,0.119
		c-1.229-0.198-2.496-0.436-3.762-0.515c-1.49-0.119-1.713,2.298-0.335,2.733c2.384,0.753,5.55,1.822,8.083,1.426
		c1.155-0.158,1.229-2.06,0.298-2.615c-0.223-0.119-0.447-0.198-0.67-0.277c1.415-1.466,2.831-2.971,4.246-4.437
		c2.421,0.198,4.172,1.228,5.215,3.209c1.155,1.624,1.639,3.407,2.049,5.388c0.261,1.466,2.086,1.783,2.98,0.832
		c4.581-4.754,9.387-1.307,10.802,4.199c0.298,1.188,1.453,1.426,2.235,0.99c0.596,0.951,2.16,0.198,1.863-0.951
		c-2.086-7.527,0.782-14.46,6.928-18.619c8.306-5.586,12.59,1.03,16.687,7.685c-1.192,0.436-2.347,0.911-3.464,1.585
		c-1.155,0.713-0.372,2.932,0.931,2.337c1.602-0.673,3.241-1.307,4.991-1.585c1.602-0.238,3.315,0.198,4.768-0.634
		c0.82-0.475,0.708-1.664,0-2.179c-0.968-0.674-2.16-0.674-3.352-0.475c1.415-3.407,4.507-6.061,8.195-5.784
		c4.246,0.357,6.518,4.199,7.338,8.2c0.335,1.703,2.756,1.347,2.868-0.277c3.799-5.705,11.51-7.566,16.389-2.179
		c3.874,4.278,1.974,9.666,3.725,14.459c-1.602,0.198-3.092,0.634-4.172,1.307c-0.708,0.436-0.372,1.664,0.447,1.624
		c1.9,0,3.725-0.198,5.624,0.079c0,0.079,0,0.119,0,0.198c0.298,1.03,1.341,0.911,1.751,0.238c1.453,0.555,2.831,1.347,4.358,1.387
		c0.931,0.04,1.751-1.228,1.155-2.1c-1.08-1.585-3.054-2.417-5.215-2.734c0.559-2.456,2.309-4.674,4.768-5.11
		c3.092-0.555,5.401,1.783,7.114,4.199c-0.037,0.119-0.075,0.238-0.075,0.357c-0.112,1.03,1.416,1.466,1.825,0.515
		c2.272-5.189,6.295-9.864,12.143-9.626c5.848,0.198,8.94,4.912,11.361,9.904c-1.155,0.158-2.272,0.436-3.203,0.753
		c-1.713,0.634-0.969,3.09,0.745,2.852c1.453-0.198,2.831-0.396,4.283-0.277c1.229,0.079,2.347,0.436,3.613,0.119
		c0.819-0.198,1.192-1.505,0.521-2.139c-0.633-0.594-1.453-0.911-2.309-1.109c1.304-2.773,2.905-5.388,5.513-6.933
		c4.395-2.575,8.344-0.515,9.573,4.437c0.074,0.396,0.335,0.673,0.633,0.832C251.949,199.515,253.737,200.228,254.743,198.683z
		 M266.811,208.032c1.788-3.565-0.298-8.002-4.023-8.794c-0.894-0.198-1.267,1.228-0.372,1.466c2.719,0.713,4.135,4.041,3.166,6.774
		C265.321,208.23,266.439,208.705,266.811,208.032z M261.82,212.073c0.931-2.02,1.006-4.041,0.261-6.14
		c-0.372-1.109-2.049-0.634-1.676,0.475c0.521,1.704,0.484,3.328,0,5.031C260.144,212.31,261.447,212.905,261.82,212.073z
		 M224.869,197.019c0.186,0.911,1.639,0.753,1.564-0.198c-0.335-3.248-3.054-5.348-6.072-4.635c-1.08,0.277-0.596,1.902,0.447,1.743
		C222.746,193.612,224.46,195.078,224.869,197.019z M219.208,213.38c0.671-0.515,0.335-1.981-0.633-1.584
		c-1.229,0.515-2.384,1.149-3.576,1.862c-1.155,0.673-0.112,2.535,1.043,1.862C217.122,214.846,218.202,214.212,219.208,213.38z
		 M186.355,193.81c0.037,0.832,1.192,0.832,1.192,0c-0.075-3.526-2.682-6.259-5.997-6.338c-0.671,0-0.633,1.03,0,1.07
		C184.157,188.739,186.243,191.037,186.355,193.81z M172.684,217.302c0.857-0.04,0.857-1.347,0-1.387
		c-1.527-0.04-3.092-0.04-4.619,0c-0.857,0.04-0.857,1.347,0,1.387C169.593,217.341,171.157,217.341,172.684,217.302z
		 M169.146,220.233c0.671-0.198,0.559-1.387-0.186-1.307c-2.458,0.238-4.917,0.555-7.45,0.555c-0.708,0-0.708,1.109,0,1.188
		C164.08,220.946,166.65,220.907,169.146,220.233z M134.728,185.848c0.521-0.792-0.559-1.545-1.192-0.99
		c-1.788,1.624-2.384,4.041-2.123,6.497c0.112,1.03,1.602,1.109,1.564,0C132.903,189.254,133.648,187.511,134.728,185.848z
		 M128.843,196.029c0.521-2.615,0.708-5.19,0.372-7.883c-0.149-0.951-1.602-0.713-1.602,0.238c0.075,2.496,0.149,4.952-0.112,7.448
		C127.39,196.662,128.694,196.86,128.843,196.029z M83.772,209.181c0.596-0.04,0.596-0.951,0-0.99c-1.08,0-2.16-0.04-3.241-0.04
		c-0.67,0-0.67,1.07,0,1.07C81.612,209.22,82.692,209.181,83.772,209.181z M79.601,214.687c0.708,0,0.671-1.109,0-1.188
		c-1.9-0.238-3.688-0.594-5.476-1.347c-0.67-0.238-0.931,0.832-0.298,1.109C75.69,214.093,77.589,214.608,79.601,214.687z
		 M63.36,183.035c0.596-0.555-0.223-1.703-0.857-1.188c-1.676,1.228-2.533,2.892-2.756,5.031c-0.074,0.792,1.192,0.99,1.304,0.198
		C61.312,185.372,62.094,184.104,63.36,183.035z M33.599,190.364c0.41,0.99,1.974,0.317,1.639-0.713
		c-0.968-2.932-2.905-4.873-5.625-5.863c-1.192-0.436-1.639,1.505-0.521,1.941C31.14,186.6,32.668,188.264,33.599,190.364z
		 M16.39,216.708c0.708,0.475,1.266-0.634,0.633-1.149c-1.676-1.347-2.98-3.05-3.799-5.11c-0.335-0.832-1.676-0.475-1.341,0.396
		C12.851,213.301,14.267,215.281,16.39,216.708z M12.367,217.223c0.968,0.158,1.266-1.109,0.41-1.505
		c-2.309-1.03-3.762-2.892-3.986-5.546c-0.112-1.07-1.49-1.07-1.564,0C7.003,213.42,9.276,216.708,12.367,217.223z"/>
	<path style="fill:#1D1D1B;" d="M262.788,199.237c3.725,0.792,5.811,5.229,4.023,8.794c-0.372,0.673-1.49,0.198-1.229-0.555
		c0.969-2.733-0.447-6.061-3.166-6.774C261.522,200.465,261.894,199.039,262.788,199.237z"/>
	<path style="fill:#1D1D1B;" d="M262.081,205.932c0.745,2.1,0.671,4.12-0.261,6.14c-0.372,0.832-1.676,0.238-1.415-0.634
		c0.484-1.703,0.521-3.328,0-5.031C260.032,205.298,261.708,204.823,262.081,205.932z"/>
	<path style="fill:#1D1D1B;" d="M226.434,196.821c0.074,0.951-1.378,1.109-1.564,0.198c-0.41-1.941-2.123-3.407-4.06-3.09
		c-1.043,0.159-1.527-1.466-0.447-1.743C223.379,191.473,226.099,193.572,226.434,196.821z"/>
	<path style="fill:#CA9E67;" d="M221.815,78.253c1.9,0.04,3.986,0.356,5.811-0.198c-3.129,35.693-4.582,72.416-5.55,108.268
		c-5.662-0.238-11.621,2.535-14.043,8.319c-1.862-2.932-5.662-4.397-9.051-3.447c-2.011,0.555-3.613,1.941-4.656,3.645
		c-0.372-6.655-2.16-12.915-8.753-15.767c-5.475-2.377-11.547-0.198-15.048,4.516c-0.074-0.277-0.223-0.555-0.335-0.832
		c0.745,0.159,1.639-0.317,1.602-1.268c-1.192-32.207-4.097-66.87-10.988-98.403c3.054,0.634,6.742,0.079,9.834-0.198
		c0.67,3.328,1.266,6.695,2.198,9.943c0.447,1.426,1.788,1.545,2.607,0.832c1.974,0.99,4.47,0.832,6.63,0.951
		c1.714,0.119,4.06,0.634,5.252-1.07c1.117-1.585,0.708-4.516,0.819-6.378c0.149-2.615,0.484-5.348,0.224-7.963
		c1.49,0.079,3.017,0.198,4.544,0.159c1.043-0.04,4.768-0.436,5.029,0c0.075,0.079,0.037,1.902,0.075,2.377
		c0.112,1.07,0.223,2.139,0.335,3.209c0.224,1.941,0.186,4.001,0.894,5.823c0.298,0.792,1.192,1.188,1.9,0.99
		c0.149,0.04,0.261,0.079,0.447,0.119c2.607,0,5.252-0.04,7.897-0.119c1.676-0.04,3.948,0.317,5.326-0.872
		c1.453-1.268,1.266-3.565,1.341-5.388c0.112-2.377,0.261-4.793,0.224-7.21C218.202,78.293,220.027,78.253,221.815,78.253z
		 M219.915,133.12c1.229-3.843,1.9-8.002,1.825-12.083c0-0.832-1.08-0.792-1.192,0c-0.447,3.961-1.043,7.804-1.974,11.686
		C218.351,133.635,219.655,134.031,219.915,133.12z M216.675,138.547c1.08-3.763,1.453-7.606,1.415-11.567
		c0-0.951-1.378-0.951-1.378,0c-0.075,3.803-0.633,7.487-1.378,11.211C215.148,139.102,216.414,139.458,216.675,138.547z
		 M197.976,164.772c0.261-0.871-1.043-1.268-1.341-0.396c-0.484,1.624-0.633,3.209-0.335,4.873c0.149,0.753,1.341,0.594,1.304-0.198
		C197.492,167.585,197.566,166.199,197.976,164.772z M193.916,164.614c0.112-2.298,0.037-4.635-0.037-6.933
		c-0.037-0.951-1.341-0.951-1.378,0c-0.075,2.298-0.149,4.635-0.037,6.933C192.501,165.604,193.879,165.604,193.916,164.614z
		 M170.412,108.321c0.484-3.367,0.298-6.536-0.671-9.785c-0.186-0.673-1.117-0.396-0.968,0.277c0.633,3.09,0.819,6.22,0.447,9.349
		C169.146,108.876,170.3,109.034,170.412,108.321z M167.246,104.32c0.074,0.475,0.857,0.396,0.819-0.119
		c-0.149-2.892-0.596-5.705-1.006-8.557c-0.074-0.515-0.894-0.396-0.857,0.159C166.464,98.655,166.725,101.468,167.246,104.32z"/>
	<path style="fill:#1D1D1B;" d="M221.741,121.037c0.074,4.08-0.596,8.24-1.825,12.083c-0.261,0.911-1.564,0.515-1.341-0.396
		c0.931-3.882,1.527-7.725,1.974-11.686C220.66,120.245,221.741,120.206,221.741,121.037z"/>
	<path style="fill:#1D1D1B;" d="M218.574,211.795c0.968-0.396,1.304,1.07,0.633,1.584c-1.006,0.832-2.086,1.466-3.166,2.139
		c-1.155,0.673-2.198-1.189-1.043-1.862C216.191,212.944,217.345,212.31,218.574,211.795z"/>
	<path style="fill:#1D1D1B;" d="M218.09,126.98c0.037,3.961-0.335,7.804-1.415,11.567c-0.261,0.911-1.527,0.555-1.341-0.356
		c0.745-3.724,1.304-7.408,1.378-11.211C216.712,126.029,218.09,126.029,218.09,126.98z"/>
	<path style="fill:#1D1D1B;" d="M196.635,164.376c0.298-0.872,1.602-0.475,1.341,0.396c-0.41,1.426-0.484,2.813-0.372,4.278
		c0.037,0.792-1.155,0.951-1.304,0.198C196.002,167.585,196.151,166,196.635,164.376z"/>
	<path style="fill:#1D1D1B;" d="M193.879,157.681c0.074,2.298,0.149,4.635,0.037,6.933c-0.037,0.99-1.415,0.99-1.453,0
		c-0.112-2.298-0.037-4.635,0.037-6.933C192.538,156.731,193.841,156.731,193.879,157.681z"/>
	<path style="fill:#1D1D1B;" d="M187.547,193.81c0,0.832-1.155,0.832-1.192,0c-0.112-2.773-2.198-5.071-4.805-5.269
		c-0.633-0.04-0.671-1.07,0-1.07C184.865,187.551,187.472,190.284,187.547,193.81z"/>
	<path style="fill:#1D1D1B;" d="M172.684,215.915c0.857,0.04,0.857,1.347,0,1.387c-1.527,0.04-3.092,0.04-4.619,0
		c-0.857-0.04-0.857-1.347,0-1.387C169.593,215.876,171.157,215.876,172.684,215.915z"/>
	<path style="fill:#1D1D1B;" d="M169.742,98.536c0.969,3.249,1.155,6.418,0.671,9.785c-0.112,0.713-1.266,0.555-1.192-0.158
		c0.372-3.13,0.186-6.259-0.447-9.349C168.624,98.14,169.556,97.863,169.742,98.536z"/>
	<path style="fill:#1D1D1B;" d="M168.96,218.926c0.745-0.079,0.857,1.109,0.186,1.307c-2.496,0.673-5.066,0.713-7.636,0.436
		c-0.708-0.079-0.708-1.188,0-1.188C164.043,219.481,166.501,219.164,168.96,218.926z"/>
	<path style="fill:#1D1D1B;" d="M168.066,104.201c0.037,0.515-0.745,0.594-0.819,0.119c-0.521-2.852-0.782-5.665-1.043-8.517
		c-0.037-0.555,0.782-0.674,0.857-0.159C167.47,98.497,167.917,101.309,168.066,104.201z"/>
	<path style="fill:#CA9E67;" d="M169.22,180.975c-1.9-2.852-5.029-4.873-8.306-4.992c-4.358-0.119-8.046,2.773-9.684,6.774
		c-1.267-3.763-4.135-7.051-7.189-9.151c-4.135-2.773-8.157-1.941-12.255,0.515c-5.326,3.209-9.424,8.953-9.983,15.173
		c-2.943-3.011-7.897-3.605-11.771-1.228c-1.415-4.041-4.06-7.527-8.418-8.161c-2.905-0.396-5.364,0.792-6.891,2.892
		c-0.857-4.873-5.178-9.349-9.796-9.27c-0.819,0.04-1.676,0.198-2.496,0.436c-0.298-20.362-0.224-40.803-0.633-61.205
		c26.372,0.673,52.893,0.634,79.265-0.079c0.037,0,0.074,0,0.149,0C163.298,135.537,166.315,158.553,169.22,180.975z
		 M160.728,139.062c0.596-3.922-0.223-7.685-2.272-11.013c-0.447-0.713-1.49-0.079-1.08,0.673c1.751,3.09,2.384,6.536,2.049,10.141
		C159.349,139.617,160.616,139.815,160.728,139.062z M157.04,147.263c0.298-3.09-0.186-5.942-1.415-8.755
		c-0.298-0.713-1.415-0.198-1.155,0.515c1.043,2.615,1.453,5.388,1.266,8.24C155.662,148.174,156.928,148.134,157.04,147.263z
		 M127.167,123.929c0.67-0.238,0.372-1.188-0.261-1.07c-2.607,0.475-5.252,0.277-7.673-0.951c-0.559-0.277-1.08,0.594-0.484,0.911
		C121.393,124.365,124.261,124.88,127.167,123.929z M123.367,120.721c0.782-0.04,0.782-1.307,0-1.347c-1.9-0.04-3.725,0-5.587,0.04
		c-0.782,0-0.782,1.268,0,1.268C119.643,120.721,121.468,120.76,123.367,120.721z M116.514,147.263
		c0.075-0.753-1.155-0.951-1.304-0.158c-0.186,1.149-0.372,2.298-0.521,3.446c-0.149,0.951,1.266,1.347,1.378,0.396
		C116.216,149.719,116.402,148.491,116.514,147.263z M90.179,151.739c0.037-1.149-1.564-1.109-1.639,0
		c-0.223,2.971-0.335,5.942-0.41,8.913c-0.037,1.07,1.453,1.03,1.527,0C89.881,157.681,90.105,154.71,90.179,151.739z
		 M85.97,165.604c0.372-3.645,0.671-7.25,0.633-10.894c0-0.792-1.043-0.753-1.117,0c-0.447,3.645-0.596,7.25-0.671,10.894
		C84.815,166.436,85.896,166.397,85.97,165.604z"/>
	<path style="fill:#1D1D1B;" d="M158.455,128.049c2.049,3.328,2.868,7.091,2.272,11.013c-0.112,0.753-1.378,0.555-1.304-0.198
		c0.335-3.605-0.298-7.051-2.049-10.141C156.966,127.97,158.009,127.336,158.455,128.049z"/>
	<path style="fill:#1D1D1B;" d="M155.625,138.508c1.229,2.813,1.713,5.665,1.415,8.755c-0.112,0.872-1.378,0.911-1.304,0
		c0.186-2.852-0.223-5.625-1.266-8.24C154.209,138.31,155.327,137.795,155.625,138.508z"/>
	<path style="fill:#CA9E67;" d="M148.957,109.113c-16.24-0.158-32.518-0.119-48.758,0.238c1.416-8.24,0.633-16.717,0.298-25.076
		c-0.447-10.775-0.521-21.63-1.639-32.365c1.043-0.079,2.123-0.079,3.054-0.158c1.267-0.119,3.241-0.713,4.656-0.594
		c0.037,0.396,0.112,0.832,0.186,1.228c0.149,0.872,0.298,1.743,0.447,2.615c0.335,1.902,0.559,3.724,1.304,5.507
		c0.447,1.03,1.453,0.951,2.123,0.356c2.831,0.238,5.662,0.238,8.493,0.594c0.968,0.119,1.713-0.951,1.751-1.862
		c0.037-2.218,0.037-4.437,0.075-6.655c0-1.505,0.149-3.09,0-4.595c2.384,0.198,4.805,0.356,7.226,0.594
		c-0.074,3.209-0.223,6.536,0.112,9.706c0.037,0.555,0.261,0.951,0.559,1.228c0.074,0.475,0.372,0.911,1.043,0.99
		c2.458,0.238,4.954,0.198,7.412,0.515c0.894,0.119,1.713-0.911,1.676-1.822c0-2.298-0.037-4.635,0.112-6.933
		c0.074-1.585,0.41-3.209,0.335-4.754c1.862-0.079,3.725-0.158,5.587-0.317c1.415-0.119,2.943-0.159,4.395-0.436
		C148.845,67.755,147.728,88.514,148.957,109.113z M144.934,103.211c0.112-2.298,0.261-4.635,0.075-6.933
		c-0.075-0.951-1.267-0.951-1.378,0c-0.261,2.298-0.149,4.635-0.112,6.933C143.519,104.161,144.86,104.161,144.934,103.211z
		 M139.794,75.639c0.857-3.565-1.192-7.21-4.544-8.081c-0.819-0.238-1.117,0.99-0.335,1.307c2.421,0.911,3.911,3.645,3.39,6.378
		C138.118,76.233,139.533,76.669,139.794,75.639z M133.425,74.173c0.223,0.872,1.341,0.475,1.229-0.356
		c-0.261-2.02-0.969-3.843-1.9-5.625c-0.41-0.753-1.453-0.079-1.08,0.673C132.456,70.568,132.94,72.351,133.425,74.173z
		 M132.94,90.811c0.298-7.368,1.043-25.274-10.69-23.214c-9.349,1.664-9.424,17.708-8.12,24.918
		c0.037,0.277,0.186,0.436,0.335,0.555c0.149,0.436,0.447,0.792,0.968,0.792c4.731-0.159,9.722,0.079,14.452-0.475
		c0.633-0.079,1.043-0.436,1.267-0.911C131.972,92.515,132.903,91.881,132.94,90.811z M105.712,75.124
		c0.149-0.674-0.819-0.951-1.006-0.277c-0.968,3.962-1.453,7.963-1.118,12.043c0.037,0.832,1.267,0.872,1.229,0
		C104.743,82.928,104.93,79.006,105.712,75.124z M103.626,77.461c0.112-2.139,0.037-4.278,0-6.418c0-0.436-0.596-0.436-0.596,0
		c-0.037,2.139-0.112,4.278,0,6.418C103.067,77.857,103.589,77.857,103.626,77.461z"/>
	<path style="fill:#1D1D1B;" d="M145.009,96.278c0.186,2.298,0.037,4.635-0.075,6.933c-0.074,0.951-1.415,0.951-1.415,0
		c-0.037-2.298-0.149-4.635,0.112-6.933C143.742,95.327,144.934,95.327,145.009,96.278z"/>
	<path style="fill:#1D1D1B;" d="M135.25,67.557c3.352,0.872,5.401,4.516,4.544,8.081c-0.261,1.03-1.676,0.594-1.49-0.396
		c0.521-2.733-0.969-5.467-3.39-6.378C134.132,68.548,134.43,67.32,135.25,67.557z"/>
	<path style="fill:#1D1D1B;" d="M133.536,184.857c0.633-0.555,1.713,0.198,1.192,0.99c-1.08,1.664-1.825,3.407-1.751,5.506
		c0.037,1.109-1.453,1.03-1.564,0C131.152,188.898,131.748,186.481,133.536,184.857z"/>
	<path style="fill:#1D1D1B;" d="M134.654,73.816c0.112,0.832-1.006,1.228-1.229,0.356c-0.484-1.822-0.968-3.605-1.751-5.308
		c-0.372-0.753,0.671-1.426,1.08-0.673C133.685,69.974,134.393,71.796,134.654,73.816z"/>
	<path style="fill:#1D1D1B;" d="M122.25,67.597c11.733-2.06,10.988,15.846,10.69,23.214c-0.037,1.07-0.969,1.703-1.788,1.664
		c-0.223,0.475-0.633,0.832-1.267,0.911c-4.73,0.555-9.722,0.317-14.452,0.475c-0.521,0-0.819-0.357-0.968-0.792
		c-0.149-0.119-0.298-0.277-0.335-0.555C112.826,85.305,112.901,69.261,122.25,67.597z M129.625,90.217
		c-0.521-6.021,1.602-20.045-6.779-18.659c-6.481,1.07-6.705,13.945-6.965,19.847C120.276,90.415,125.193,89.662,129.625,90.217z"/>
	<path style="fill:#CA9E67;" d="M122.846,71.558c8.381-1.386,6.258,12.637,6.779,18.659c-4.433-0.555-9.349,0.198-13.745,1.188
		C116.141,85.503,116.365,72.628,122.846,71.558z"/>
	<path style="fill:#1D1D1B;" d="M129.215,188.145c0.335,2.694,0.149,5.269-0.372,7.883c-0.149,0.832-1.453,0.634-1.341-0.198
		c0.261-2.496,0.186-4.952,0.112-7.448C127.614,187.432,129.066,187.194,129.215,188.145z"/>
	<path style="fill:#1D1D1B;" d="M126.906,122.86c0.633-0.119,0.931,0.832,0.261,1.07c-2.905,0.951-5.773,0.436-8.418-1.109
		c-0.596-0.317-0.075-1.188,0.484-0.911C121.654,123.137,124.299,123.335,126.906,122.86z"/>
	<path style="fill:#1D1D1B;" d="M123.367,119.374c0.782,0.04,0.782,1.307,0,1.347c-1.9,0.04-3.725,0-5.587-0.04
		c-0.782,0-0.782-1.268,0-1.268C119.643,119.374,121.468,119.334,123.367,119.374z"/>
	<path style="fill:#1D1D1B;" d="M115.21,147.104c0.149-0.792,1.378-0.594,1.304,0.158c-0.112,1.228-0.298,2.456-0.447,3.684
		c-0.112,0.951-1.527,0.555-1.378-0.396C114.838,149.402,115.024,148.253,115.21,147.104z"/>
	<path style="fill:#1D1D1B;" d="M104.706,74.846c0.186-0.674,1.155-0.396,1.006,0.277c-0.782,3.882-0.968,7.804-0.894,11.766
		c0.037,0.872-1.192,0.832-1.229,0C103.253,82.809,103.738,78.808,104.706,74.846z"/>
	<path style="fill:#1D1D1B;" d="M103.626,71.043c0.037,2.139,0.112,4.278,0,6.418c-0.037,0.396-0.559,0.396-0.596,0
		c-0.112-2.139-0.037-4.278,0-6.418C103.03,70.608,103.626,70.608,103.626,71.043z"/>
	<path style="fill:#1D1D1B;" d="M88.54,151.739c0.075-1.109,1.676-1.149,1.639,0c-0.075,2.971-0.298,5.942-0.521,8.913
		c-0.075,1.03-1.564,1.07-1.527,0C88.205,157.681,88.317,154.71,88.54,151.739z"/>
	<path style="fill:#1D1D1B;" d="M86.603,154.71c0.037,3.645-0.261,7.25-0.633,10.894c-0.075,0.792-1.155,0.832-1.155,0
		c0.075-3.645,0.224-7.25,0.671-10.894C85.56,153.957,86.603,153.918,86.603,154.71z"/>
	<path style="fill:#1D1D1B;" d="M83.772,208.19c0.596,0.04,0.596,0.951,0,0.99c-1.08,0-2.16,0.04-3.241,0.04
		c-0.67,0-0.67-1.07,0-1.07C81.612,208.151,82.692,208.19,83.772,208.19z"/>
	<path style="fill:#1D1D1B;" d="M79.601,213.499c0.671,0.079,0.708,1.188,0,1.188c-2.011-0.079-3.911-0.594-5.773-1.426
		c-0.633-0.277-0.372-1.347,0.298-1.109C75.913,212.905,77.701,213.261,79.601,213.499z"/>
	<path style="fill:#CA9E67;" d="M78.967,175.508c0,0.04,0,0.04,0,0.04c-2.123,1.426-3.986,3.447-5.215,5.784
		c-2.086-5.11-6.034-9.389-11.733-8.161c-5.028,1.109-8.642,5.625-10.43,10.736c-1.9-2.218-5.364-3.248-7.934-2.258
		c-1.564,0.594-2.943,1.703-3.948,3.13c-2.868-5.071-11.025-6.774-16.091-4.873c-0.335,0.119-0.67,0.277-1.006,0.436
		c-1.788-33.871-3.986-68.336-8.306-101.929c1.192,0.198,2.458,0.159,3.725,0.198c1.825,0.04,3.725,0.198,5.55-0.079
		c-0.037,1.624,0,3.248,0.112,4.912c0.149,2.377,0.112,4.992,0.857,7.289c0.298,0.99,1.117,1.149,1.788,0.832
		c0.112,0.079,0.149,0.198,0.298,0.198c3.576,0.753,8.344,1.505,11.92,0.555c1.266-0.357,1.304-1.703,0.596-2.535
		c0.223-1.783,0.372-3.565,0.521-5.388c0.149-1.704-0.298-4.833,1.378-5.348c1.49-0.475,3.725-0.079,5.252-0.079
		c1.937-0.04,3.874-0.079,5.811-0.158l0.037-0.04c-0.223,3.922,0.112,7.804,0.782,11.647c0.149,0.832,0.968,1.347,1.676,1.347
		c2.16,0.079,4.321,0.198,6.481,0.277c1.9,0.04,3.986,0.436,5.811-0.238c0.298-0.119,0.521-0.357,0.708-0.674
		c0.521-0.119,1.006-0.515,1.043-1.268c0.335-3.962,0.596-7.923,0.819-11.924c2.905,0.634,6.146,0.872,8.828-0.119
		C77.254,110.302,78.595,143.024,78.967,175.508z M75.354,105.31c0.819-2.931,1.304-5.982,0.968-9.032
		c-0.075-0.634-0.857-0.634-0.931,0c-0.186,2.971-0.335,5.863-0.968,8.755C74.274,105.706,75.205,105.984,75.354,105.31z
		 M73.79,100.715c0.075-0.871-1.267-1.03-1.49-0.198c-0.671,2.892-0.745,5.704-0.447,8.636c0.112,0.99,1.527,1.03,1.49,0
		C73.268,106.34,73.492,103.528,73.79,100.715z M48.498,120.206c0.112-0.832-1.043-1.228-1.229-0.356
		c-0.596,2.377-0.745,4.674-0.559,7.131c0.075,1.03,1.602,1.03,1.527,0C48.051,124.722,48.126,122.464,48.498,120.206z
		 M30.693,96.001c0.819-0.079,0.819-1.307,0-1.387c-2.123-0.119-4.246-0.198-6.332-0.555c-0.819-0.119-1.192,1.188-0.372,1.387
		C26.224,95.882,28.421,96.199,30.693,96.001z M27.192,167.308c0.969-2.813,1.49-5.665,1.378-8.636
		c-0.037-0.951-1.266-0.911-1.341,0c-0.261,2.773-0.708,5.507-1.416,8.2C25.553,167.823,26.857,168.179,27.192,167.308z
		 M24.771,169.051c0.298-3.288,0.559-6.536,0.484-9.864c-0.037-0.634-1.006-0.872-1.08-0.159c-0.484,3.328-0.596,6.655-0.633,10.023
		C23.504,169.962,24.696,169.922,24.771,169.051z"/>
	<path style="fill:#1D1D1B;" d="M76.323,96.278c0.335,3.05-0.149,6.101-0.968,9.032c-0.149,0.673-1.08,0.396-0.931-0.277
		c0.633-2.892,0.782-5.784,0.968-8.755C75.466,95.644,76.248,95.644,76.323,96.278z"/>
	<path style="fill:#1D1D1B;" d="M72.3,100.517c0.223-0.832,1.564-0.674,1.49,0.198c-0.298,2.813-0.521,5.625-0.447,8.438
		c0.037,1.03-1.378,0.99-1.49,0C71.555,106.221,71.629,103.409,72.3,100.517z"/>
	<path style="fill:#1D1D1B;" d="M62.504,181.846c0.633-0.515,1.453,0.634,0.857,1.188c-1.266,1.07-2.049,2.337-2.309,4.041
		c-0.112,0.792-1.378,0.594-1.304-0.198C59.971,184.738,60.827,183.074,62.504,181.846z"/>
	<path style="fill:#1D1D1B;" d="M47.269,119.849c0.186-0.872,1.341-0.475,1.229,0.356c-0.372,2.258-0.447,4.516-0.261,6.774
		c0.075,1.03-1.453,1.03-1.527,0C46.524,124.524,46.673,122.226,47.269,119.849z"/>
	<path style="fill:#1D1D1B;" d="M35.238,189.651c0.335,1.03-1.229,1.703-1.639,0.713c-0.931-2.1-2.458-3.764-4.507-4.635
		c-1.118-0.436-0.67-2.377,0.521-1.941C32.332,184.778,34.269,186.719,35.238,189.651z"/>
	<path style="fill:#1D1D1B;" d="M30.693,94.614c0.819,0.079,0.819,1.307,0,1.387c-2.272,0.198-4.47-0.119-6.705-0.555
		c-0.819-0.198-0.447-1.505,0.372-1.387C26.447,94.416,28.57,94.495,30.693,94.614z"/>
	<path style="fill:#1D1D1B;" d="M28.57,158.672c0.112,2.971-0.41,5.823-1.378,8.636c-0.335,0.872-1.639,0.515-1.378-0.436
		c0.708-2.694,1.155-5.427,1.416-8.2C27.304,157.761,28.533,157.721,28.57,158.672z"/>
	<path style="fill:#1D1D1B;" d="M25.255,159.187c0.074,3.328-0.186,6.576-0.484,9.864c-0.074,0.872-1.266,0.911-1.229,0
		c0.037-3.367,0.149-6.695,0.633-10.023C24.249,158.315,25.218,158.553,25.255,159.187z"/>
	<path style="fill:#1D1D1B;" d="M17.023,215.559c0.633,0.515,0.075,1.624-0.633,1.149c-2.123-1.426-3.539-3.407-4.507-5.863
		c-0.335-0.872,1.006-1.228,1.341-0.396C14.043,212.508,15.347,214.212,17.023,215.559z"/>
	<path style="fill:#1D1D1B;" d="M12.777,215.717c0.857,0.396,0.559,1.664-0.41,1.505c-3.092-0.515-5.364-3.803-5.14-7.052
		c0.075-1.07,1.453-1.07,1.564,0C9.015,212.825,10.468,214.687,12.777,215.717z"/>
</g>
</svg>
