<?xml version="1.0" encoding="iso-8859-1"?>
<svg version="1.1" id="Layer_1" xmlns="http://www.w3.org/2000/svg" xmlns:xlink="http://www.w3.org/1999/xlink" x="0px" y="0px"
	 viewBox="0 0 271.301 271.301" style="enable-background:new 0 0 271.301 271.301;" xml:space="preserve">
<g>
	<path style="fill:#1D1D1B;" d="M222.135,108.937c4.541,8.6-2.532,17.842-4.26,26.201c-0.08,0.402-0.281,0.683-0.522,0.844
		c0.04,0.643-0.201,1.286-0.965,1.728c-1.607,0.844-3.175,1.648-4.782,2.411c-3.094,39.342-10.85,78.402-19.932,116.739
		c-0.201,0.964-0.924,1.366-1.648,1.366c-0.121,0.362-0.322,0.643-0.723,0.844c-34.158,15.994-75.228,16.275-109.627,1.005
		c-0.643-0.321-0.643-1.005-0.362-1.487c-0.362-0.281-0.603-0.723-0.683-1.246c-4.661-37.493-8.881-74.987-13.382-112.48
		c-3.536-1.407-6.832-3.135-9.765-5.224c-0.603,0.764-2.049,0.764-2.532-0.482c-1.728-4.742-2.853-9.725-3.898-14.668
		c-0.683-3.215-1.929-7.233-1.125-10.569c1.407-5.787,6.791-6.59,11.774-6.148c0.201-4.38,2.572-8.801,6.229-11.011
		c4.139-2.492,11.453-2.291,15.793,0.884c0.161-3.617,1.728-7.153,5.063-9.042c2.25-1.246,5.827-1.567,8.6-0.603
		c-0.161-23.026,41.351-24.232,43.159-3.577c1.889-2.09,4.702-3.335,7.515-3.335c6.631-15.07,12.297-31.104,20.374-45.45
		c-3.496-1.407-6.952-2.853-10.328-4.22c-0.603-0.241-0.804-0.804-0.683-1.326c-4.661-4.702,7.836-25.478,10.247-28.733
		c0.442-0.563,1.005-0.643,1.487-0.482c0.08-0.522,0.522-1.005,1.165-0.844c11.975,3.094,24.353,8.519,35.685,13.583
		c0.924,0.442,0.884,1.527,0.362,2.21c0.04,0,0.04,0,0.04,0.04c1.005,5.907-0.643,12.417-3.054,17.802
		c-1.406,3.134-3.978,9.002-8.037,9.363c-0.281,0.603-0.964,1.085-1.688,0.924c-3.737-0.764-7.434-1.808-11.091-3.054
		c-5.104,15.512-12.538,30.581-19.37,45.45c2.009-0.844,4.179-1.165,6.43-0.844c5.305,0.763,9.805,4.983,11.051,10.046
		c1.607-1.849,3.737-3.094,6.51-2.652c3.215,0.522,5.345,3.978,3.938,6.791c6.229-4.983,15.632-0.281,20.093,6.229
		C213.254,101.904,219.603,104.034,222.135,108.937z M219.282,121.917c1.045-3.054,1.929-6.309,1.165-9.524
		c-1.085-4.461-5.706-7.957-10.247-4.742c0.362,0.683,0.683,1.407,0.924,2.09c0.683-0.281,1.366-0.482,2.009-0.763
		c2.09-0.884,3.898,2.09,1.808,3.054c-22.665,10.247-52.643,8.64-76.996,9.444c-26.201,0.884-56.099,3.898-80.934-6.269
		c-1.206-0.482-0.764-2.411,0.563-2.009c1.206,0.362,2.411,0.603,3.576,0.924c-0.683-1.165-1.085-2.451-1.326-3.818
		c-4.42,0.322-8.479,1.808-8.68,7.475c-0.08,2.25,0.723,4.742,1.206,6.952c0.924,4.34,2.17,8.6,3.215,12.94
		c23.227,11.091,54.934,9.725,80.291,9.805c26.764,0.08,54.331-0.442,78.442-13.301c0.321-0.201,0.603-0.241,0.924-0.281
		C216.067,129.713,217.876,125.975,219.282,121.917z M208.994,141.246c-2.893,1.286-5.827,2.411-8.801,3.376
		c0.04,0.08,0.08,0.161,0.08,0.241c3.295,40.748-21.66,89.373-68.677,85.636c-39.784-3.135-56.983-46.173-51.84-81.537
		c-4.22-0.804-8.359-1.808-12.216-3.175c5.304,37.132,10.408,74.263,14.627,111.555c0.04,0.442-0.08,0.804-0.281,1.045
		c36.609,11.573,70.003,10.689,106.09-2.371c0-0.08,0-0.121,0-0.161C196.657,217.88,202.645,179.663,208.994,141.246z
		 M208.633,110.705c-2.532-2.733-4.219-6.068-7.475-8.158c-3.496-2.17-7.635-2.532-11.011-0.482c0.04,0.08,0.161,0.201,0.201,0.321
		c0.201,0.442-0.281,1.045-0.764,1.005c-0.402,0-0.683-0.121-0.964-0.241h-0.04c-0.723,0.643-1.889-0.04-1.688-0.884
		c-0.844-0.362-1.688-0.603-2.572-0.804c-1.045-0.201-0.804-1.849,0.241-1.808c0.603,0,1.286,0.121,2.009,0.281
		c0-0.12-0.04-0.201,0-0.281c0.964-2.492-1.206-4.581-3.697-3.978c-1.688,0.362-2.934,1.527-3.938,2.893
		c-0.04,0.603-0.04,1.246-0.161,1.849c-0.201,1.045-1.085,1.165-1.808,0.804c-0.603,0.241-1.406-0.241-1.125-0.964
		c0.04-0.08,0.12-0.201,0.161-0.322c-0.683-5.224-3.456-10.167-9.082-11.011c-5.264-0.804-9.846,3.054-11.573,7.796
		c0.723,0.442,1.366,0.964,1.929,1.527c1.005,1.085-0.281,2.773-1.567,2.049c-2.532-1.447-4.661-3.135-7.354-4.34
		c-1.125-0.522-0.281-2.331,0.844-2.009c1.005,0.322,2.049,0.683,3.094,1.125c-0.08-0.161-0.161-0.281-0.161-0.522
		c0.281-3.898,0.08-8.439-4.3-10.046c-3.978-1.447-7.716,1.085-9.524,4.501c-0.04,0.281-0.08,0.603-0.161,0.884
		c-0.362,1.808-2.692,1.125-2.893-0.362c-1.286-10.649-8.198-17.441-19.369-16.476c-9.243,0.844-17.28,6.952-18.204,16.275
		c0.804,0.764,1.407,1.768,1.567,3.054c0.161,0.965-1.165,1.607-1.889,1.085c-1.326-0.884-2.291-2.09-3.898-2.572
		c-1.768-0.522-3.777-0.281-5.345,0.643c-3.215,1.889-4.099,5.626-3.898,9.162c0.241,0.442,0.522,0.884,0.683,1.447
		c1.728-0.201,3.456,0,4.822,0.844c0.964,0.603,0.603,2.17-0.563,2.17c-1.567,0-3.054-0.442-4.621-0.321
		c-1.808,0.12-3.416,0.763-5.023,1.527c-0.924,0.482-2.049-0.764-1.165-1.487c0.924-0.804,2.13-1.447,3.416-1.969
		c-1.648-1.607-3.054-3.175-5.465-3.978c-2.813-0.924-6.068-0.804-8.64,0.763c-5.385,3.255-5.465,9.846-3.737,15.15
		c21.499,5.144,44.365,4.099,66.306,3.456C154.221,117.577,185.285,118.863,208.633,110.705z M199.913,28.565
		c1.286-4.099,1.447-8.278,2.09-12.498c-11.332-3.938-23.509-8.359-34.037-14.105c0,0.201,0,0.442-0.121,0.683
		c-1.567,3.617-14.587,24.433-10.006,27.085c11.573,3.657,23.87,6.631,34.881,11.654c0,0,0,0,0.04,0
		C196.336,39.134,198.787,32.061,199.913,28.565z M134.289,227.002c44.003,1.246,63.855-44.084,62.77-81.376
		c-3.134,0.924-6.269,1.688-9.444,2.331c0,0.121,0.04,0.201,0.04,0.322c-1.447,33.475-13.261,66.989-51.598,68.517
		c-35.685,1.407-45.048-37.614-42.959-66.065c-3.777-0.322-7.515-0.764-11.172-1.366C82.53,183.32,92.536,225.756,134.289,227.002z
		 M136.057,213.379c35.404-1.487,46.575-34.479,47.781-64.659c-16.838,3.094-34.399,3.215-51.639,2.934
		c-10.609-0.201-23.91,0.201-37.051-0.764C96.113,177.413,101.337,214.826,136.057,213.379z M178.815,40.34
		c-3.617-1.246-7.233-2.652-10.81-4.059c-4.42,15.552-12.096,30.622-18.927,45.329c3.416,1.206,6.309,5.063,6.631,8.841
		c0.281-0.321,0.563-0.643,0.844-0.924C163.585,73.171,170.055,55.851,178.815,40.34z"/>
	<path style="fill:#E94B59;" d="M220.447,112.393c0.764,3.215-0.12,6.47-1.165,9.524c-1.406,4.059-3.215,7.796-4.059,11.975
		c-0.322,0.04-0.603,0.08-0.924,0.281c-24.111,12.859-51.679,13.382-78.442,13.301c-25.357-0.08-57.064,1.286-80.291-9.805
		c-1.045-4.34-2.291-8.6-3.215-12.94c-0.482-2.21-1.286-4.702-1.206-6.952c0.201-5.666,4.26-7.153,8.68-7.475
		c0.241,1.366,0.643,2.652,1.326,3.818c-1.165-0.322-2.371-0.563-3.576-0.924c-1.326-0.402-1.768,1.527-0.563,2.009
		c24.835,10.167,54.733,7.153,80.934,6.269c24.352-0.804,54.331,0.804,76.996-9.444c2.09-0.965,0.281-3.938-1.808-3.054
		c-0.643,0.281-1.326,0.482-2.009,0.763c-0.241-0.683-0.563-1.407-0.924-2.09C214.741,104.436,219.362,107.932,220.447,112.393z
		 M173.229,129.472c0.804-0.161,0.643-1.567-0.201-1.487c-2.291,0.241-4.501,0.603-6.751,0.964
		c-1.165,0.201-0.643,1.889,0.442,1.728C168.889,130.315,171.059,129.954,173.229,129.472z M173.028,126.618
		c1.005-0.121,1.045-1.527,0-1.607c-3.175-0.241-6.229-0.522-9.323-1.165c-0.965-0.241-1.326,1.125-0.402,1.447
		C166.357,126.458,169.773,127.06,173.028,126.618z M132.32,135.218c0.522,0.04,0.643-0.884,0.12-0.924
		c-1.326-0.201-2.652-0.362-4.019-0.563c-0.723-0.08-0.844,0.924-0.121,1.005C129.628,134.897,130.994,135.057,132.32,135.218z
		 M82.611,140.201c0.723,0.04,0.723-1.085,0-1.125c-3.818-0.281-7.515-1.366-10.93-3.094c-0.603-0.321-1.165,0.603-0.522,0.964
		C74.694,138.996,78.471,140.04,82.611,140.201z M74.372,140.924c0.884,0.161,1.286-1.125,0.362-1.366
		c-2.974-0.723-5.747-1.808-8.399-3.376c-0.763-0.482-1.447,0.683-0.683,1.165C68.345,139.116,71.198,140.362,74.372,140.924z"/>
	<path style="fill:#E94B59;" d="M200.194,144.622c2.974-0.965,5.907-2.09,8.801-3.376c-6.349,38.417-12.337,76.634-21.017,114.609
		c0,0.04,0,0.08,0,0.161c-36.087,13.06-69.481,13.944-106.09,2.371c0.201-0.241,0.321-0.603,0.281-1.045
		c-4.219-37.292-9.323-74.424-14.627-111.555c3.858,1.366,7.997,2.371,12.216,3.175c-5.144,35.363,12.056,78.402,51.84,81.537
		c47.017,3.737,71.973-44.887,68.677-85.636C200.274,144.782,200.234,144.702,200.194,144.622z M188.138,216.273
		c0.201-0.804-0.964-1.125-1.246-0.362c-1.005,2.974-2.893,5.305-5.505,6.952c-0.603,0.402-0.08,1.286,0.563,0.964
		C185.044,222.3,187.214,219.568,188.138,216.273z M186.45,210.084c0.08-0.563-0.804-0.643-0.924-0.161
		c-0.764,2.813-2.572,5.144-5.184,6.43c-0.522,0.241-0.161,1.206,0.442,0.964C183.959,216.031,186.089,213.5,186.45,210.084z
		 M120.064,233.392c0.281,0.281,0.683-0.12,0.402-0.402c-0.322-0.362-0.643-0.723-0.965-1.045c-0.321-0.362-0.844,0.161-0.482,0.482
		C119.34,232.749,119.702,233.07,120.064,233.392z M90.889,243.237c0.08-0.764-1.205-0.924-1.366-0.161
		c-0.522,1.969-0.844,3.978-1.206,5.988c-0.161,0.924,1.286,1.366,1.487,0.402C90.206,247.376,90.607,245.327,90.889,243.237z
		 M86.107,246.372c0.121-0.683-0.804-0.924-1.085-0.281c-0.643,1.728-0.764,3.376-0.563,5.184c0.121,0.804,1.407,0.844,1.326,0
		C85.624,249.587,85.785,248.059,86.107,246.372z"/>
	<path style="fill:#CA9E67;" d="M201.158,102.547c3.255,2.09,4.943,5.425,7.475,8.158c-23.348,8.158-54.411,6.872-78.402,7.595
		c-21.941,0.643-44.807,1.688-66.306-3.456c-1.728-5.304-1.648-11.895,3.737-15.15c2.572-1.567,5.827-1.688,8.64-0.763
		c2.411,0.804,3.818,2.371,5.465,3.978c-1.286,0.522-2.492,1.165-3.416,1.969c-0.884,0.723,0.241,1.969,1.165,1.487
		c1.607-0.764,3.215-1.407,5.023-1.527c1.567-0.121,3.054,0.321,4.621,0.321c1.165,0,1.527-1.567,0.563-2.17
		c-1.366-0.844-3.094-1.045-4.822-0.844c-0.161-0.563-0.442-1.005-0.683-1.447c-0.201-3.536,0.683-7.274,3.898-9.162
		c1.567-0.924,3.577-1.165,5.345-0.643c1.607,0.482,2.572,1.688,3.898,2.572c0.723,0.522,2.049-0.12,1.889-1.085
		c-0.161-1.286-0.764-2.291-1.567-3.054c0.924-9.323,8.961-15.431,18.204-16.275c11.172-0.965,18.084,5.827,19.369,16.476
		c0.201,1.487,2.532,2.17,2.893,0.362c0.08-0.281,0.12-0.603,0.161-0.884c1.808-3.416,5.546-5.947,9.524-4.501
		c4.38,1.607,4.581,6.148,4.3,10.046c0,0.241,0.08,0.362,0.161,0.522c-1.045-0.442-2.09-0.804-3.094-1.125
		c-1.125-0.321-1.969,1.487-0.844,2.009c2.692,1.206,4.822,2.893,7.354,4.34c1.286,0.723,2.572-0.965,1.567-2.049
		c-0.563-0.563-1.206-1.085-1.929-1.527c1.728-4.742,6.309-8.6,11.573-7.796c5.626,0.844,8.399,5.787,9.082,11.011
		c-0.04,0.121-0.121,0.241-0.161,0.322c-0.281,0.723,0.522,1.206,1.125,0.964c0.723,0.362,1.607,0.241,1.808-0.804
		c0.121-0.603,0.121-1.246,0.161-1.849c1.005-1.366,2.25-2.532,3.938-2.893c2.492-0.603,4.662,1.487,3.697,3.978
		c-0.04,0.08,0,0.161,0,0.281c-0.723-0.161-1.407-0.281-2.009-0.281c-1.045-0.04-1.286,1.607-0.241,1.808
		c0.884,0.201,1.728,0.442,2.572,0.804c-0.201,0.844,0.964,1.527,1.688,0.884h0.04c0.281,0.12,0.563,0.241,0.964,0.241
		c0.482,0.04,0.964-0.563,0.764-1.005c-0.04-0.121-0.161-0.241-0.201-0.321C193.523,100.015,197.662,100.377,201.158,102.547z
		 M195.251,110.182c0.683-0.241,0.442-1.246-0.281-1.085c-2.25,0.482-4.501,0.522-6.711-0.12c-0.844-0.281-1.205,1.045-0.362,1.286
		C190.389,111.066,192.8,111.107,195.251,110.182z M191.514,112.553c0.603-0.442-0.161-1.366-0.764-1.005
		c-2.451,1.487-5.425,1.567-7.876,0c-0.764-0.482-1.487,0.723-0.723,1.246C185.084,114.804,188.741,114.723,191.514,112.553z
		 M171.702,99.292c0.322,0.965,1.768,0.603,1.527-0.402c-0.764-2.813-2.411-4.983-4.742-6.671c-0.723-0.522-1.688,0.723-0.965,1.246
		C169.452,94.992,170.858,96.961,171.702,99.292z M125.81,83.258c0.402,0.563,1.246,0.08,0.924-0.522
		c-1.286-2.371-3.295-3.938-5.787-4.862c-0.764-0.281-1.045,0.884-0.322,1.165C122.796,79.882,124.524,81.369,125.81,83.258z
		 M124.605,86.674c0.603,0.683,1.808-0.241,1.286-1.005c-1.688-2.21-3.818-3.456-6.59-3.818c-0.844-0.121-1.045,1.326-0.201,1.527
		C121.269,83.861,123.158,84.946,124.605,86.674z M122.997,114.402c0.924-0.321,0.563-1.728-0.442-1.487
		c-2.371,0.563-4.742,0.643-7.113,0.04c-0.884-0.201-1.246,1.085-0.402,1.366C117.693,115.125,120.345,115.246,122.997,114.402z
		 M121.47,117.335c0.804-0.241,0.442-1.366-0.362-1.286c-3.295,0.482-6.51,0.442-9.725-0.522c-0.764-0.241-1.085,0.924-0.322,1.205
		C114.438,117.898,117.974,118.22,121.47,117.335z M113.111,92.179c0.764-0.482,0.121-1.648-0.723-1.246
		c-1.527,0.764-2.572,1.728-3.456,3.134c-0.563,0.924,0.763,1.648,1.366,0.844C111.102,93.827,112.026,92.903,113.111,92.179z
		 M73.328,102.065c0.563-0.442,0.08-1.286-0.563-0.965c-1.487,0.723-2.492,1.768-3.295,3.175c-0.442,0.723,0.683,1.366,1.125,0.643
		C71.318,103.753,72.243,102.869,73.328,102.065z M67.42,112.473c0.402,0.764,1.487,0.121,1.125-0.643
		c-1.206-2.492-1.447-5.023-1.407-7.756c0-0.723-1.206-0.924-1.366-0.161C65.21,106.927,65.933,109.821,67.42,112.473z"/>
	<path style="fill:#99D9F1;" d="M202.002,16.068c-0.643,4.219-0.804,8.399-2.09,12.498c-1.125,3.496-3.577,10.569-7.153,12.819
		c-0.04,0-0.04,0-0.04,0c-11.011-5.023-23.308-7.997-34.881-11.654c-4.581-2.652,8.439-23.468,10.006-27.085
		c0.121-0.241,0.121-0.482,0.121-0.683C178.494,7.709,190.67,12.129,202.002,16.068z M197.14,19.644
		c0.482-1.205-1.045-2.09-2.009-1.688c-7.475-3.376-15.15-6.631-22.946-9.082c-0.482-0.161-0.844,0.121-1.045,0.482
		c-0.442,0-0.924,0.161-1.205,0.683c-1.728,3.094-3.456,6.229-5.063,9.363c-0.764,1.487-2.25,3.416-1.768,5.104
		c-0.522,0.322-0.764,1.125-0.08,1.447c8.238,3.617,17.802,6.872,26.603,8.439c1.366,0.241,2.009-1.085,1.487-2.009
		C193.443,28.324,195.331,23.944,197.14,19.644z"/>
	<path style="fill:#1D1D1B;" d="M195.13,17.956c0.964-0.402,2.492,0.482,2.009,1.688c-1.808,4.3-3.697,8.68-6.028,12.739
		c0.522,0.924-0.121,2.25-1.487,2.009c-8.801-1.567-18.365-4.822-26.603-8.439c-0.683-0.322-0.442-1.125,0.08-1.447
		c-0.482-1.688,1.005-3.617,1.768-5.104c1.607-3.135,3.335-6.269,5.063-9.363c0.281-0.523,0.763-0.683,1.205-0.683
		c0.201-0.362,0.563-0.643,1.045-0.482C179.98,11.326,187.656,14.581,195.13,17.956z M189.384,31.418
		c1.165-3.737,2.692-7.394,4.3-11.011c-7.153-2.733-14.346-5.706-21.178-9.203c0,0.08-0.04,0.201-0.08,0.281
		c-1.165,2.21-2.411,4.38-3.617,6.55c-0.522,0.924-3.818,5.385-3.335,6.229c0.121,0.201,0.161,0.362,0.161,0.563
		C173.511,26.435,181.869,28.605,189.384,31.418z"/>
	<path style="fill:#FAC15C;" d="M197.059,145.626c1.085,37.292-18.767,82.622-62.77,81.376
		c-41.753-1.246-51.759-43.682-52.362-77.639c3.657,0.603,7.394,1.045,11.172,1.366c-2.09,28.451,7.274,67.472,42.959,66.065
		c38.337-1.527,50.152-35.042,51.598-68.517c0-0.121-0.04-0.201-0.04-0.322C190.79,147.314,193.925,146.55,197.059,145.626z
		 M190.79,178.619c0.201-0.764-0.924-1.045-1.165-0.322c-0.603,1.688-1.085,3.335-1.567,5.023c-0.241,0.764,0.924,1.085,1.206,0.322
		C189.826,181.994,190.348,180.347,190.79,178.619z M93.059,187.339c0.281,0.683,1.447,0.201,1.246-0.522
		c-0.643-2.09-0.844-4.219-0.844-6.349c0-1.085-1.527-1.045-1.648,0C91.612,182.878,92.094,185.089,93.059,187.339z M88.317,181.673
		c0.362,0.844,1.607,0.522,1.366-0.362c-0.683-2.934-0.965-5.867-0.804-8.881c0.04-0.804-1.246-1.005-1.407-0.201
		C86.83,175.484,87.071,178.619,88.317,181.673z"/>
	<path style="fill:#1D1D1B;" d="M194.97,109.097c0.723-0.161,0.964,0.844,0.281,1.085c-2.451,0.924-4.862,0.884-7.354,0.08
		c-0.844-0.241-0.482-1.567,0.362-1.286C190.469,109.62,192.719,109.58,194.97,109.097z"/>
	<path style="fill:#1D1D1B;" d="M190.75,111.549c0.603-0.362,1.366,0.563,0.764,1.005c-2.773,2.17-6.43,2.25-9.363,0.241
		c-0.763-0.522-0.04-1.728,0.723-1.246C185.325,113.116,188.299,113.036,190.75,111.549z"/>
	<path style="fill:#1D1D1B;" d="M189.625,178.297c0.241-0.723,1.366-0.442,1.165,0.322c-0.442,1.728-0.964,3.376-1.527,5.023
		c-0.281,0.764-1.447,0.442-1.206-0.322C188.54,181.633,189.022,179.985,189.625,178.297z"/>
	<path style="fill:#1D1D1B;" d="M186.892,215.911c0.281-0.764,1.447-0.442,1.246,0.362c-0.924,3.295-3.094,6.028-6.189,7.555
		c-0.643,0.322-1.165-0.563-0.563-0.964C183.999,221.215,185.888,218.885,186.892,215.911z"/>
	<path style="fill:#1D1D1B;" d="M185.526,209.923c0.121-0.482,1.005-0.402,0.924,0.161c-0.362,3.416-2.492,5.947-5.666,7.233
		c-0.603,0.241-0.965-0.723-0.442-0.964C182.954,215.067,184.763,212.736,185.526,209.923z"/>
	<path style="fill:#E94B59;" d="M183.838,148.72c-1.206,30.18-12.377,63.172-47.781,64.659
		c-34.72,1.447-39.945-35.966-40.909-62.489c13.141,0.964,26.442,0.563,37.051,0.764C149.439,151.935,167,151.815,183.838,148.72z
		 M110.821,191.518c0.603,1.125,2.13,0.12,1.648-0.964c-1.045-2.411-1.607-4.983-1.808-7.595c-0.08-1.165-1.728-1.165-1.808,0
		C108.651,186.053,109.334,188.826,110.821,191.518z M108.892,196.501c0.563,0.804,1.889,0.08,1.326-0.764
		c-1.768-2.652-2.813-5.586-3.175-8.76c-0.08-0.964-1.567-1.005-1.527,0C105.677,190.473,106.883,193.648,108.892,196.501z"/>
	<path style="fill:#1D1D1B;" d="M173.028,127.985c0.844-0.08,1.005,1.326,0.201,1.487c-2.17,0.482-4.34,0.844-6.51,1.206
		c-1.085,0.161-1.607-1.527-0.442-1.728C168.528,128.587,170.738,128.226,173.028,127.985z"/>
	<path style="fill:#99D9F1;" d="M168.005,36.281c3.577,1.407,7.193,2.813,10.81,4.059c-8.76,15.512-15.23,32.832-22.263,49.187
		c-0.281,0.281-0.563,0.603-0.844,0.924c-0.321-3.777-3.215-7.635-6.631-8.841C155.909,66.902,163.585,51.833,168.005,36.281z
		 M165.072,62.603c0.241-0.643-0.683-1.005-1.045-0.442c-1.286,2.009-2.25,4.34-3.135,6.59c-0.241,0.522,0.603,0.844,0.884,0.362
		C163.022,67.023,164.268,64.853,165.072,62.603z M162.982,59.187c0.402-0.482-0.482-1.165-0.884-0.683
		c-1.406,1.688-2.773,3.416-4.099,5.144c-0.362,0.482,0.442,1.125,0.844,0.683C160.249,62.643,161.656,60.955,162.982,59.187z"/>
	<path style="fill:#1D1D1B;" d="M173.028,125.011c1.045,0.08,1.005,1.487,0,1.607c-3.255,0.442-6.671-0.161-9.725-1.326
		c-0.924-0.322-0.563-1.688,0.402-1.447C166.8,124.489,169.854,124.77,173.028,125.011z"/>
	<path style="fill:#1D1D1B;" d="M173.229,98.89c0.241,1.005-1.206,1.366-1.527,0.402c-0.844-2.331-2.25-4.3-4.179-5.827
		c-0.723-0.522,0.241-1.768,0.965-1.246C170.818,93.907,172.466,96.077,173.229,98.89z"/>
	<path style="fill:#1D1D1B;" d="M164.027,62.161c0.362-0.563,1.286-0.201,1.045,0.442c-0.804,2.25-2.049,4.42-3.295,6.51
		c-0.281,0.482-1.125,0.161-0.884-0.362C161.776,66.501,162.741,64.17,164.027,62.161z"/>
	<path style="fill:#1D1D1B;" d="M162.098,58.504c0.402-0.482,1.286,0.201,0.884,0.683c-1.326,1.768-2.733,3.456-4.139,5.144
		c-0.402,0.442-1.206-0.201-0.844-0.683C159.325,61.919,160.691,60.191,162.098,58.504z"/>
	<path style="fill:#1D1D1B;" d="M132.441,134.294c0.522,0.04,0.402,0.964-0.12,0.924c-1.326-0.161-2.693-0.322-4.019-0.482
		c-0.723-0.08-0.603-1.085,0.121-1.005C129.789,133.932,131.115,134.093,132.441,134.294z"/>
	<path style="fill:#1D1D1B;" d="M126.734,82.736c0.321,0.603-0.522,1.085-0.924,0.522c-1.286-1.889-3.014-3.376-5.184-4.219
		c-0.723-0.281-0.442-1.447,0.322-1.165C123.439,78.797,125.448,80.365,126.734,82.736z"/>
	<path style="fill:#1D1D1B;" d="M125.891,85.669c0.522,0.763-0.683,1.688-1.286,1.005c-1.447-1.728-3.335-2.813-5.505-3.295
		c-0.844-0.201-0.643-1.648,0.201-1.527C122.073,82.213,124.203,83.459,125.891,85.669z"/>
	<path style="fill:#1D1D1B;" d="M122.555,112.915c1.005-0.241,1.366,1.165,0.442,1.487c-2.652,0.844-5.305,0.723-7.957-0.08
		c-0.844-0.281-0.482-1.567,0.402-1.366C117.813,113.558,120.184,113.478,122.555,112.915z"/>
	<path style="fill:#1D1D1B;" d="M121.108,116.05c0.804-0.08,1.165,1.045,0.362,1.286c-3.496,0.884-7.033,0.563-10.408-0.603
		c-0.763-0.281-0.442-1.447,0.322-1.205C114.598,116.492,117.813,116.532,121.108,116.05z"/>
	<path style="fill:#1D1D1B;" d="M120.465,232.99c0.281,0.281-0.121,0.683-0.402,0.402c-0.362-0.322-0.723-0.643-1.045-0.964
		c-0.362-0.322,0.161-0.844,0.482-0.482C119.822,232.266,120.144,232.628,120.465,232.99z"/>
	<path style="fill:#1D1D1B;" d="M112.388,90.933c0.844-0.402,1.487,0.764,0.723,1.246c-1.085,0.723-2.009,1.648-2.813,2.733
		c-0.603,0.804-1.929,0.08-1.366-0.844C109.816,92.661,110.861,91.697,112.388,90.933z"/>
	<path style="fill:#1D1D1B;" d="M112.468,190.554c0.482,1.085-1.045,2.09-1.648,0.964c-1.487-2.693-2.17-5.465-1.969-8.56
		c0.08-1.165,1.728-1.165,1.808,0C110.861,185.571,111.424,188.143,112.468,190.554z"/>
	<path style="fill:#1D1D1B;" d="M110.218,195.738c0.563,0.844-0.763,1.567-1.326,0.764c-2.009-2.853-3.215-6.028-3.376-9.524
		c-0.04-1.005,1.447-0.964,1.527,0C107.405,190.152,108.45,193.085,110.218,195.738z"/>
	<path style="fill:#1D1D1B;" d="M94.305,186.816c0.201,0.723-0.964,1.206-1.246,0.522c-0.965-2.25-1.447-4.461-1.246-6.872
		c0.121-1.045,1.648-1.085,1.648,0C93.461,182.597,93.662,184.727,94.305,186.816z"/>
	<path style="fill:#1D1D1B;" d="M89.522,243.076c0.161-0.764,1.447-0.603,1.366,0.161c-0.281,2.09-0.683,4.139-1.085,6.229
		c-0.201,0.964-1.648,0.522-1.487-0.402C88.679,247.055,89,245.046,89.522,243.076z"/>
	<path style="fill:#1D1D1B;" d="M89.683,181.311c0.241,0.884-1.005,1.206-1.366,0.362c-1.246-3.054-1.487-6.189-0.844-9.444
		c0.161-0.804,1.447-0.603,1.407,0.201C88.719,175.444,89,178.377,89.683,181.311z"/>
	<path style="fill:#1D1D1B;" d="M85.022,246.09c0.281-0.643,1.206-0.402,1.085,0.281c-0.321,1.688-0.482,3.215-0.321,4.903
		c0.08,0.844-1.206,0.804-1.326,0C84.258,249.466,84.379,247.818,85.022,246.09z"/>
	<path style="fill:#1D1D1B;" d="M82.611,139.076c0.723,0.04,0.723,1.165,0,1.125c-4.139-0.161-7.917-1.206-11.453-3.255
		c-0.643-0.362-0.08-1.286,0.522-0.964C75.096,137.71,78.793,138.795,82.611,139.076z"/>
	<path style="fill:#1D1D1B;" d="M74.734,139.558c0.924,0.241,0.522,1.527-0.362,1.366c-3.175-0.563-6.028-1.808-8.72-3.577
		c-0.764-0.482-0.08-1.648,0.683-1.165C68.988,137.75,71.76,138.835,74.734,139.558z"/>
	<path style="fill:#1D1D1B;" d="M72.765,101.1c0.643-0.321,1.125,0.522,0.563,0.965c-1.085,0.804-2.009,1.688-2.733,2.853
		c-0.442,0.723-1.567,0.08-1.125-0.643C70.274,102.869,71.278,101.824,72.765,101.1z"/>
	<path style="fill:#1D1D1B;" d="M68.546,111.83c0.362,0.764-0.723,1.407-1.125,0.643c-1.487-2.652-2.21-5.546-1.648-8.56
		c0.161-0.764,1.366-0.563,1.366,0.161C67.099,106.807,67.34,109.339,68.546,111.83z"/>
</g>
</svg>
