<svg id="Icons" height="512" viewBox="0 0 60 60" width="512" xmlns="http://www.w3.org/2000/svg"><path d="m16.635 59.471a.5.5 0 0 1 -.261-.927l1.142-.7-2.7 1.556a.5.5 0 0 1 -.518-.854l17.942-11.419-20.986 12.116a.5.5 0 0 1 -.513-.858l12.17-7.514-13.169 7.6a.5.5 0 0 1 -.511-.86l6.834-4.167-7.129 4.119a.5.5 0 0 1 -.516-.856l19.972-12.519-20.058 11.58a.5.5 0 0 1 -.514-.858l18.047-11.225-17.587 10.153a.5.5 0 0 1 -.509-.86l5.171-3.14-4.662 2.691a.5.5 0 0 1 -.512-.858l15.193-9.382-14.681 8.476a.5.5 0 0 1 -.516-.856l21.436-13.476-20.92 12.078a.5.5 0 0 1 -.515-.857l21.308-13.389-20.793 12.005a.5.5 0 0 1 -.51-.86l10.273-6.283-9.763 5.636a.5.5 0 0 1 -.509-.861l.864-.521-.355.2a.5.5 0 0 1 -.511-.859l11.6-7.108-11.089 6.403a.5.5 0 0 1 -.513-.858l17.492-10.859-16.979 9.8a.5.5 0 0 1 -.514-.857l19.5-12.178-18.986 10.958a.5.5 0 0 1 -.509-.86l4.285-2.6-3.776 2.181a.5.5 0 0 1 -.51-.859l11.144-6.827-10.634 6.142a.5.5 0 0 1 -.511-.858l13.401-8.242-12.89 7.436a.5.5 0 0 1 -.509-.859l7.963-4.855-7.454 4.3a.5.5 0 0 1 -.516-.855l21.628-13.61-21.112 12.189a.5.5 0 0 1 -.512-.859l14.189-8.757-13.677 7.897a.5.5 0 0 1 -.51-.859l8.448-5.168-7.938 4.585a.5.5 0 0 1 -.51-.86l5.746-3.5-5.237 3.018a.5.5 0 0 1 -.518-.855l18.261-11.641-17.743 10.244a.5.5 0 0 1 -.512-.859l5.791-3.571-5.279 3.047a.5.5 0 0 1 -.521-.853l14.731-9.532-14.21 8.2a.5.5 0 0 1 -.525-.849l13.608-9-13.083 7.554a.5.5 0 0 1 -.522-.852l8.634-5.625-8.112 4.683a.5.5 0 0 1 -.522-.852l5.733-3.73-5.211 3.007a.5.5 0 0 1 -.537-.841l8.469-5.955-7.932 4.579a.5.5 0 0 1 -.547-.835l6.619-4.882-6.072 3.505a.5.5 0 0 1 -.56-.826l4.7-3.712-4.14 2.386a.5.5 0 0 1 -.579-.811l2.706-2.324-2.115 1.222a.5.5 0 0 1 -.63-.758l1.4-1.635a.509.509 0 0 1 -.522-.243.5.5 0 0 1 .183-.682l2.31-1.333a.5.5 0 0 1 .63.758l-1.343 1.568 4.232-2.44a.5.5 0 0 1 .576.811l-2.706 2.322 5.433-3.133a.5.5 0 0 1 .664.151.5.5 0 0 1 -.1.674l-4.698 3.71 7.859-4.535a.5.5 0 0 1 .547.835l-6.618 4.879 9.902-5.714a.5.5 0 0 1 .537.841l-8.468 5.953 11.772-6.794a.5.5 0 0 1 .522.851l-5.732 3.729 7.937-4.58a.5.5 0 0 1 .522.851l-8.631 5.621 11.217-6.472a.5.5 0 0 1 .526.849l-13.606 9 17.062-9.849a.5.5 0 0 1 .522.852l-14.734 9.53 17.99-10.382a.5.5 0 0 1 .512.858l-5.8 3.575 7.683-4.433a.5.5 0 0 1 .519.854l-18.27 11.646 21.349-12.328a.5.5 0 0 1 .511.86l-5.724 3.491 6.484-3.743a.5.5 0 0 1 .511.859l-8.457 5.171 8.836-5.1a.5.5 0 0 1 .513.858l-14.19 8.756 14.256-8.231a.5.5 0 0 1 .517.856l-21.62 13.607 21.244-12.264a.5.5 0 0 1 .509.859l-7.989 4.87 7.48-4.321a.5.5 0 0 1 .511.858l-13.383 8.242 12.872-7.437a.5.5 0 0 1 .51.859l-11.166 6.84 10.656-6.151a.5.5 0 0 1 .509.86l-4.285 2.6 3.776-2.181a.5.5 0 0 1 .514.856l-19.485 12.171 18.971-10.953a.5.5 0 0 1 .513.858l-17.506 10.872 16.993-9.811a.5.5 0 0 1 .511.86l-11.574 7.094 11.063-6.386a.5.5 0 0 1 .509.86l-.864.521.355-.2a.5.5 0 0 1 .51.86l-10.295 6.3 9.785-5.649a.5.5 0 0 1 .515.857l-21.3 13.382 20.783-12a.5.5 0 0 1 .516.856l-21.434 13.47 20.92-12.078a.5.5 0 0 1 .512.859l-15.193 9.382 14.681-8.471a.5.5 0 0 1 .509.86l-5.171 3.14 4.662-2.7a.5.5 0 0 1 .513.857l-18.063 11.243 17.55-10.135a.5.5 0 0 1 .515.857l-19.964 12.515 19.449-11.229a.5.5 0 0 1 .51.859l-6.825 4.162 6.316-3.646a.5.5 0 0 1 .512.858l-12.173 7.517 11.661-6.732a.5.5 0 0 1 .518.854l-17.939 11.42 17.421-10.057a.5.5 0 0 1 .51.86l-1.15.7.64-.369a.5.5 0 0 1 .514.857l-7.591 4.732 7.077-4.086a.5.5 0 0 1 .516.855l-8.278 5.22 7.762-4.481a.5.5 0 0 1 .518.855l-8.1 5.167 7.579-4.376a.5.5 0 0 1 .524.85l-9.169 6.013 8.645-4.99a.5.5 0 0 1 .526.849l-7.484 4.976 6.961-4.017a.5.5 0 0 1 .53.846l-6.072 4.108 5.542-3.2a.5.5 0 0 1 .529.847l-3.25 2.192 2.721-1.571a.5.5 0 0 1 .529.848l-.837.561.308-.176a.5.5 0 0 1 .54.84l-2.033 1.447 1.493-.863a.5.5 0 0 1 .575.813l-3.029 2.6 2.454-1.417a.5.5 0 0 1 .637.749l-1.534 1.879a.5.5 0 0 1 .454.889l-2.309 1.333a.5.5 0 0 1 -.638-.749l1.529-1.873-4.744 2.739a.5.5 0 0 1 -.575-.812l3.03-2.6-5.913 3.412a.5.5 0 0 1 -.54-.839l2.034-1.45-3.965 2.289a.5.5 0 0 1 -.53-.847l.836-.562-2.441 1.409a.5.5 0 0 1 -.53-.847l3.245-2.187-5.256 3.034a.5.5 0 0 1 -.531-.846l6.077-4.111-8.587 4.957a.5.5 0 0 1 -.527-.848l7.483-4.972-10.081 5.82a.5.5 0 0 1 -.525-.85l9.161-6.008-11.881 6.858a.5.5 0 0 1 -.519-.854l8.1-5.169-10.431 6.023a.5.5 0 0 1 -.517-.855l8.275-5.218-10.52 6.073a.5.5 0 0 1 -.514-.857l7.594-4.733-9.683 5.59a.5.5 0 0 1 -.25.071z" fill="#b9bfcc"/><path d="m14.555 51.471a.5.5 0 0 1 -.267-.923l11.087-6.974-12.875 7.435a.5.5 0 0 1 -.516-.857l12.944-8.129-12.644 7.3a.5.5 0 0 1 -.517-.854l15.563-9.869-15.05 8.687a.5.5 0 0 1 -.519-.853l17.92-11.495-17.401 10.046a.5.5 0 0 1 -.512-.858l7.076-4.368-6.564 3.789a.5.5 0 0 1 -.514-.858l10.326-6.425-9.813 5.664a.5.5 0 0 1 -.517-.855l15.722-9.974-15.205 8.777a.5.5 0 0 1 -.513-.857l8.775-5.44-8.262 4.77a.5.5 0 0 1 -.512-.859l6.125-3.773-5.613 3.24a.5.5 0 0 1 -.514-.857l10.409-6.48-9.895 5.712a.5.5 0 0 1 -.512-.858l6.557-4.044-6.045 3.49a.5.5 0 0 1 -.516-.856l14.366-9.065-13.85 8a.5.5 0 0 1 -.516-.855l13.071-8.219-12.555 7.246a.5.5 0 0 1 -.515-.857l10.182-6.394-9.667 5.579a.5.5 0 0 1 -.515-.856l7.1-4.455-6.585 3.811a.5.5 0 0 1 -.518-.854l8.433-5.38-7.915 4.564a.5.5 0 0 1 -.519-.853l6.488-4.156-5.969 3.446a.5.5 0 0 1 -.526-.85l8.221-5.457-7.695 4.44a.5.5 0 0 1 -.526-.849l5.32-3.529-4.794 2.768a.5.5 0 0 1 -.524-.851l2.15-1.415-1.626.939a.5.5 0 0 1 -.55-.832l6.034-4.531-5.484 3.165a.5.5 0 0 1 -.55-.832l3.132-2.359-2.582 1.491a.5.5 0 0 1 -.57-.816l2.238-1.864-1.668.963a.5.5 0 0 1 -.63-.758l1.425-1.661-.795.459a.5.5 0 0 1 -.673-.7l.338-.537a.5.5 0 0 1 -.08-.9l1.128-.65a.5.5 0 0 1 .673.7l-.134.213 1.58-.912a.5.5 0 0 1 .63.757l-1.425 1.662 4.191-2.421a.5.5 0 0 1 .57.816l-2.235 1.861 4.639-2.677a.5.5 0 0 1 .551.832l-3.132 2.357 5.526-3.189a.5.5 0 0 1 .551.832l-6.036 4.534 9.3-5.366a.5.5 0 0 1 .525.85l-2.146 1.412 3.915-2.262a.5.5 0 0 1 .527.849l-5.325 3.531 7.588-4.38a.5.5 0 0 1 .527.849l-8.224 5.459 10.929-6.308a.5.5 0 0 1 .519.853l-6.487 4.147 8.676-5a.5.5 0 0 1 .518.854l-8.426 5.375 10.79-6.229a.5.5 0 0 1 .516.856l-7.116 4.462 9.212-5.318a.5.5 0 0 1 .515.856l-10.174 6.389 12.206-7.045a.5.5 0 0 1 .516.855l-13.069 8.213 12.967-7.485a.5.5 0 0 1 .516.855l-14.366 9.062 13.85-7.995a.5.5 0 0 1 .512.858l-6.532 4.037 6.025-3.478a.5.5 0 0 1 .514.857l-10.429 6.484 9.91-5.72a.5.5 0 0 1 .512.858l-6.125 3.774 5.613-3.241a.5.5 0 0 1 .513.858l-8.786 5.446 8.274-4.776a.5.5 0 0 1 .517.854l-15.722 9.976 15.2-8.779a.5.5 0 0 1 .514.858l-10.3 6.411 9.786-5.65a.5.5 0 0 1 .512.858l-7.1 4.381 6.584-3.8a.5.5 0 0 1 .519.854l-17.911 11.493 17.4-10.046a.5.5 0 0 1 .517.854l-15.566 9.874 15.05-8.688a.5.5 0 0 1 .515.856l-12.948 8.132 12.433-7.177a.5.5 0 0 1 .516.855l-11.089 6.972 10.573-6.1a.5.5 0 0 1 .517.855l-10.365 6.579 9.848-5.684a.5.5 0 0 1 .523.851l-11.823 7.735 11.3-6.523a.5.5 0 0 1 .516.855l-2.267 1.427 1.751-1.011a.5.5 0 0 1 .526.85l-7.856 5.2 7.33-4.232a.5.5 0 0 1 .52.853l-1.883 1.215 1.363-.786a.5.5 0 0 1 .521.852l-.779.5.258-.148a.5.5 0 0 1 .53.846l-3.062 2.074 2.532-1.458a.5.5 0 0 1 .542.837l-3.663 2.644 3.123-1.8a.5.5 0 0 1 .548.834l-2.138 1.585 1.588-.917a.5.5 0 0 1 .594.8l-2.474 2.35 1.88-1.085a.5.5 0 0 1 .611.778l-.643.673.032-.018a.5.5 0 0 1 .5.866l-3.052 1.753a.5.5 0 0 1 -.611-.778l.642-.673-2.513 1.451a.5.5 0 0 1 -.595-.8l2.473-2.348-5.446 3.148a.5.5 0 0 1 -.548-.834l2.141-1.59-4.2 2.424a.5.5 0 0 1 -.542-.838l3.663-2.64-6.024 3.478a.5.5 0 0 1 -.53-.846l3.064-2.076-5.061 2.922a.5.5 0 0 1 -.521-.852l.778-.5-2.351 1.352a.5.5 0 0 1 -.52-.852l1.89-1.218-3.587 2.07a.5.5 0 0 1 -.526-.849l7.855-5.2-10.481 6.049a.5.5 0 0 1 -.516-.855l2.276-1.433-3.963 2.288a.5.5 0 0 1 -.523-.85l11.825-7.739-14.878 8.589a.5.5 0 0 1 -.518-.854l10.369-6.585-12.886 7.439a.5.5 0 0 1 -.25.071z" fill="#276f82"/><path d="m37.042 44.752a.5.5 0 0 1 -.434-.75l.885-1.535-3.686 2.133a.5.5 0 1 1 -.5-.866l5.3-3.059a.5.5 0 0 1 .6.079.5.5 0 0 1 .08.6l-.9 1.561a.5.5 0 0 1 .388.913l-1.486.858a.5.5 0 0 1 -.247.066z" fill="#d6dbe3"/><path d="m28.357 24.16a.5.5 0 0 1 -.25-.932l1.046-.605a.5.5 0 1 1 .5.865l-1.046.605a.491.491 0 0 1 -.25.067z" fill="#d6dbe3"/><path d="m30.428 47.451a.5.5 0 0 1 -.306-.9l2.294-1.77-3.737 2.157a.5.5 0 0 1 -.556-.828l4.946-3.81-5.086 2.935a.5.5 0 0 1 -.54-.84l5.784-4.127-7.082 4.087a.5.5 0 0 1 -.545-.835l7.3-5.336-10.642 6.145a.5.5 0 0 1 -.525-.85l2.652-1.738-2.992 1.728a.5.5 0 0 1 -.527-.85l4.465-2.961-4.166 2.405a.5.5 0 0 1 -.537-.841l8.7-6.12-7.928 4.579a.5.5 0 0 1 -.536-.843l8.192-5.727-8.33 4.809a.5.5 0 0 1 -.536-.844l7.013-4.86-8.367 4.83a.5.5 0 0 1 -.526-.85l2.11-1.4-2.115 1.221a.5.5 0 0 1 -.536-.843l4.893-3.415-4.262 2.468a.5.5 0 0 1 -.55-.833l6.767-5.062-2.928 1.688a.5.5 0 0 1 -.6-.787l.474-.474-.331.19a.5.5 0 0 1 -.656-.723l.806-1.127a.5.5 0 0 1 -.158-.924l1.488-.86a.5.5 0 0 1 .656.724l-.636.89 1.609-.929a.5.5 0 0 1 .6.786l-.474.475 6.935-4a.5.5 0 0 1 .55.833l-6.763 5.057 7.075-4.084a.5.5 0 0 1 .536.843l-4.9 3.418 6.179-3.566a.5.5 0 0 1 .526.849l-2.105 1.389 4.69-2.7a.5.5 0 0 1 .536.844l-7.015 4.856 7.844-4.528a.5.5 0 0 1 .536.842l-8.191 5.728 7.641-4.411a.5.5 0 0 1 .537.842l-8.706 6.12 8.432-4.867a.5.5 0 0 1 .526.849l-4.467 2.962 4.385-2.531a.5.5 0 0 1 .524.85l-2.644 1.733 3.324-1.919a.5.5 0 0 1 .545.836l-7.3 5.337 8.01-4.624a.5.5 0 0 1 .54.84l-5.787 4.129 2.594-1.5a.5.5 0 0 1 .555.829l-4.942 3.811 3.733-2.149a.5.5 0 0 1 .555.828l-6.765 5.216a.5.5 0 0 1 -.25.432l-1.262.729a.494.494 0 0 1 -.25.067z" fill="#d6dbe3"/><path d="m29.749 41.43a.5.5 0 0 1 -.338-.868l2.817-2.583-4.677 2.7a.5.5 0 0 1 -.569-.819l3.762-3.1-4.763 2.749a.5.5 0 0 1 -.539-.841l.782-.554-.947.546a.5.5 0 0 1 -.542-.838l1.593-1.148-1.6.924a.5.5 0 0 1 -.571-.817l4.156-3.462-4 2.31a.5.5 0 0 1 -.582-.808l3.077-2.713-2.108 1.215a.5.5 0 0 1 -.58-.807l1.4-1.233a.47.47 0 0 1 -.16-.168.5.5 0 0 1 .183-.682l2.779-1.605a.5.5 0 0 1 .58.808l-.352.311 2.091-1.207a.5.5 0 0 1 .581.808l-3.074 2.711 4.717-2.724a.5.5 0 0 1 .571.817l-4.158 3.463 5.115-2.952a.5.5 0 0 1 .542.838l-1.6 1.152 1.671-.964a.5.5 0 0 1 .539.84l-.776.55.679-.391a.5.5 0 0 1 .569.818l-3.761 3.1 3.42-1.975a.5.5 0 0 1 .588.8l-2.818 2.583 1.507-.869a.5.5 0 1 1 .5.865l-5.453 3.152a.49.49 0 0 1 -.251.068z" fill="#ccd0da"/><g fill="#262626"><path d="m18.456 37.118a4.325 4.325 0 0 1 1.141.457c.382.333.476 1.236.734 1.787.328.7.547.74.259 1.411-.161.375-.343.749-.485 1.132-.367.988.39 1.535 1.1 2.186 1.016.931 2.268.353 3.4-.192.271.147.538.3.823.423a9.721 9.721 0 0 1 1.334.458c.325.219.441.761.6 1.168.4 1.014.648 1.32 1.822 1.353.921.026 2.352.126 3-.693a7.538 7.538 0 0 0 .852-1.992 13.252 13.252 0 0 0 1.787-.723 11.554 11.554 0 0 0 1.5.634 2.672 2.672 0 0 0 2.694-.969c.92-.894 1.183-1.273.7-2.4a4.6 4.6 0 0 1 -.512-1.193c-.014-.262.425-.846.541-1.109a10.721 10.721 0 0 0 .508-1.466l1.512-.6a1.652 1.652 0 0 0 .277-.137l.026-.01c.843-.527.715-1.623.633-2.516-.066-.719-.36-.916-.98-1.166a11.565 11.565 0 0 1 -1.077-.431c-.532-.278-.388-.256-.583-.911a7.148 7.148 0 0 0 -.4-.974c-.095-.2-.489-.662-.487-.88a3.064 3.064 0 0 1 .356-.829c.189-.442.642-1.119.488-1.629a4.058 4.058 0 0 0 -1.99-1.9 4.272 4.272 0 0 0 -2.652.7c-.267-.145-.532-.3-.813-.418a9.721 9.721 0 0 1 -1.334-.458c-.325-.219-.441-.761-.6-1.168-.405-1.014-.648-1.32-1.822-1.353-.921-.026-2.352-.126-3 .693a7.538 7.538 0 0 0 -.852 1.992 13.247 13.247 0 0 0 -1.787.722 11.547 11.547 0 0 0 -1.5-.633 2.672 2.672 0 0 0 -2.694.969c-.92.894-1.183 1.272-.7 2.4a4.624 4.624 0 0 1 .512 1.194c.014.261-.425.846-.541 1.109a10.663 10.663 0 0 0 -.505 1.459c-.5.191-1 .377-1.487.6-.949.44-.983.984-.983 1.988.005 1.166.168 1.508 1.185 1.915zm19.067 6.837a.367.367 0 0 0 -.112-.066c.2-.189.337.311.112.066zm-15.092-17.941c-.083.018-.077-.021 0 0zm-3.675 7.827c.125-.4.117-.321.547-.493a9.5 9.5 0 0 0 1.453-.583c.716-.442.809-1.682 1.2-2.432s.23-.812-.1-1.576c-.277-.645-.669-1.163-.158-1.791.142-.174.312-.339.471-.5a5.057 5.057 0 0 0 .4-.38 2.467 2.467 0 0 0 .4.168 7.337 7.337 0 0 0 1.3.559c.87.174 1.633-.531 2.391-.831.581-.23 1.357-.244 1.716-.8.331-.507.356-1.214.688-1.719.132-.2-.16-.108.278-.16a1.706 1.706 0 0 1 1.577.478c.333.442.332 1.136.639 1.6.2.3.06.19.428.378.3.152.691.2 1.007.33a13.139 13.139 0 0 0 1.411.7 2.084 2.084 0 0 0 1.329-.24c.314-.129.625-.268.937-.4.149-.064.3-.138.451-.194.081-.029.128-.047.16-.06-.034.017-.072.04-.061.056l-.177.114c.175.147.345.3.51.455a7.693 7.693 0 0 1 .718.738.968.968 0 0 1 .189 1.079c-.159.511-.7 1.134-.713 1.663-.013.415.473 1.006.639 1.4.186.448.256 1.185.6 1.5a6.3 6.3 0 0 0 1.55.62c.353.158.549.228.693.638a3.606 3.606 0 0 1 -.229 2.362c-.857.3-1.958.543-2.25 1.393a13.332 13.332 0 0 1 -.613 1.568c-.163.329-.4.568-.365.909.057.547.541 1.117.7 1.645.311 1.005-.626 1.188-1.073 1.853-.1-.042-.22-.077-.278-.1l-.978-.419a1.521 1.521 0 0 0 -1.126-.151 6.163 6.163 0 0 0 -1.089.532 11.578 11.578 0 0 0 -2.048.763 2.287 2.287 0 0 0 -.572 1.058 6.645 6.645 0 0 1 -.337.841c-.2.354.239.213-.326.281-2.152.261-1.37-1.449-2.439-2.4a11.984 11.984 0 0 0 -1.891-.687 2.984 2.984 0 0 0 -1.015-.456 3.2 3.2 0 0 0 -1.369.437c-.325.139-.648.292-.978.419-.046.017-.071.028-.1.041.061-.036.113-.079.105-.118-.049-.254-.94-.869-1.112-1.067a1.03 1.03 0 0 1 -.3-1.205 10.371 10.371 0 0 0 .679-1.585c.028-.239-.036-.287-.154-.538a17.562 17.562 0 0 1 -.806-1.939c-.407-1.221-2.337-.63-2.511-2.1a4.739 4.739 0 0 1 .002-1.654z"/><path d="m7.276 55.031a4.213 4.213 0 0 0 3.124 4.131 9.16 9.16 0 0 0 2.322.148h34.812.1s.029 0 .053 0 .04-.006.06-.007c.072-.005.146-.015.222-.026 2.477-.215 4.656-1.821 4.751-4.471.015-.407 0-.817 0-1.224v-44.932c0-1.576.311-3.645-.225-5.171-1.086-3.103-4.287-2.789-6.908-2.789h-11.273q-10.736 0-21.473 0c-2.963.003-5.541 1.638-5.565 4.821-.02 2.163 0 4.327 0 6.49v25.593c0 5.806-.087 11.628 0 17.437zm1.448-50.214a3.392 3.392 0 0 1 3.244-3.507c.963-.012 1.926 0 2.889 0h32.078a4.066 4.066 0 0 1 3.848 1.96 5.1 5.1 0 0 1 .493 2.593v31.491c0 5.824.081 11.654 0 17.478-.026 1.787-.9 3.766-2.961 3.858h-17.349c-6.135 0-12.333.263-18.463 0a3.9 3.9 0 0 1 -3.779-3.954c-.015-.536 0-1.075 0-1.612v-33.424c0-4.952-.181-9.938 0-14.883z"/><path d="m11.276 45.873a31.352 31.352 0 0 0 0 4.3c.223 1.558 2.636 1.11 3.77 1.11h28.963c1.238 0 4.118.4 4.653-1.1a3.7 3.7 0 0 0 .062-1.165v-22.7c0-5.35.131-10.718 0-16.067-.019-.782-.2-1.378-1.127-1.528-.008 0-.024 0-.034 0a.361.361 0 0 0 -.09-.013h-32.9c-1.3 0-3.209-.05-3.3 1.663s0 3.445 0 5.155v30.34zm1.4-36.588c.368-.2 1.427 0 1.837 0h31.929c1.314.272.834 3.06.834 4.012v35.685a7.311 7.311 0 0 0 0 1.193c.056.329.27.4.079.54-.1.075-.59 0-.712 0h-27.089c-1.9 0-3.9.174-5.795 0-1.345-.123-1.035-1.675-1.035-2.683v-35.922c0-.649.045-1.317 0-1.965-.024-.329-.208-.769-.044-.86z"/><path d="m24.735 5.475h1a.839.839 0 0 0 .283-.021.931.931 0 0 0 .287-.085.714.714 0 0 0 .226-.144.519.519 0 0 0 .154-.172.313.313 0 0 0 -.018-.356.563.563 0 0 0 -.4-.172h-1a.839.839 0 0 0 -.283.021.931.931 0 0 0 -.287.085.714.714 0 0 0 -.226.144.519.519 0 0 0 -.154.172.313.313 0 0 0 .018.356.563.563 0 0 0 .4.172z"/><path d="m29.941 5.552h5a.814.814 0 0 0 .795-.6c.036-.383-.38-.5-.677-.5h-5a.814.814 0 0 0 -.8.6c-.031.38.385.5.682.5z"/><path d="m32.056 54.439h-4a.807.807 0 0 0 -.792.608c-.035.385.376.514.68.514h4a.807.807 0 0 0 .792-.608c.035-.385-.376-.514-.68-.514z"/><path d="m24.33 19.3a.919.919 0 0 0 .967.045c.186-.082.617-.391.373-.635l-2.818-2.818 2.737-2.737a.319.319 0 0 0 -.154-.574 1.156 1.156 0 0 0 -1.024.274l-3 3c-.109.109-.218.308-.081.445z"/><path d="m37.162 16.121-2.747 2.747c-.214.214-.158.466.145.539a1.209 1.209 0 0 0 1.025-.275l3-3c.1-.1.222-.285.086-.421l-3-3c-.371-.371-1.746.174-1.342.578z"/><path d="m29.691 19.075 1.752-5.256q.123-.372.248-.744c.26-.78-1.184-.742-1.382-.15l-1.752 5.256q-.123.372-.248.744c-.26.775 1.184.742 1.382.15z"/><path d="m28.739 41.239a7.623 7.623 0 0 0 6.321-2.225 6.174 6.174 0 0 0 1.295-6.285 6.285 6.285 0 0 0 -5.883-4.018 1.808 1.808 0 0 0 -1.025.275c-.2.149-.226.3.081.3a5.936 5.936 0 0 1 5.067 8.64 4.818 4.818 0 0 1 -4.725 2.75 5.869 5.869 0 0 1 -4.594-3.357 5.956 5.956 0 0 1 1.378-6.853c.24-.222-.214-.232-.338-.224a1.724 1.724 0 0 0 -.971.342 6.1 6.1 0 0 0 3.394 10.652z"/></g></svg>