<svg id="Icons" height="512" viewBox="0 0 60 60" width="512" xmlns="http://www.w3.org/2000/svg"><path d="m42.382 28.486a.5.5 0 0 1 -.382-.817l1.85-2.256-2.57 1.481a.5.5 0 0 1 -.581-.808l1.2-1.064-.623.36a.5.5 0 0 1 -.613-.777l1.834-1.94-1.221.7a.5.5 0 0 1 -.606-.783l.4-.412a.517.517 0 0 1 -.358-.107.5.5 0 0 1 -.168-.537l.235-.774a.518.518 0 0 1 -.19-.188.5.5 0 0 1 .183-.683l.5-.288a.508.508 0 0 1 .562.042.5.5 0 0 1 .167.537l-.132.434 1.764-1.006a.5.5 0 0 1 .606.783l-.287.293 1.014-.585a.5.5 0 0 1 .613.776l-1.834 1.941 1.975-1.14a.5.5 0 0 1 .581.808l-1.2 1.062.623-.359a.5.5 0 0 1 .636.75l-1.849 2.256 1.213-.7a.5.5 0 0 1 .5.866l-3.589 2.072a.489.489 0 0 1 -.253.063z" fill="#5b5b5b"/><path d="m25.045 59.471a.5.5 0 0 1 -.3-.9l2.671-2.03-3.785 2.185a.5.5 0 0 1 -.544-.837l3.466-2.525-3.492 2.016a.5.5 0 0 1 -.543-.838l4.508-3.268-4.21 2.426a.5.5 0 0 1 -.547-.835l6.337-4.69-6.127 3.537a.5.5 0 0 1 -.535-.844l3.864-2.681-3.618 2.092a.5.5 0 0 1 -.545-.836l6.609-4.84-6.543 3.777a.5.5 0 0 1 -.545-.836l7.018-5.131-7.055 4.073a.5.5 0 0 1 -.531-.845l3.921-2.668-3.877 2.237a.5.5 0 0 1 -.542-.839l7.437-5.346-7.257 4.19a.5.5 0 0 1 -.525-.851l1.7-1.12-1.178.68a.5.5 0 0 1 -.522-.852l.4-.262a.5.5 0 0 1 -.414-.9l5.509-3.79-4.971 2.88a.5.5 0 0 1 -.538-.842l6.828-4.8-6.29 3.63a.5.5 0 0 1 -.529-.847l3.811-2.563-3.282 1.895a.5.5 0 0 1 -.53-.847l4.442-3.01-3.912 2.258a.5.5 0 0 1 -.537-.842l6.6-4.627-6.068 3.5a.5.5 0 0 1 -.532-.844l5.217-3.574-4.685 2.705a.5.5 0 0 1 -.535-.844l6.09-4.229-5.555 3.207a.5.5 0 0 1 -.534-.844l5.648-3.892-5.114 2.951a.5.5 0 0 1 -.522-.851l.449-.293a.5.5 0 0 1 -.469-.874l7.841-5.642-7.3 4.214a.5.5 0 0 1 -.542-.838l7.6-5.479-7.062 4.078a.5.5 0 0 1 -.542-.839l6.917-4.981-6.375 3.681a.5.5 0 0 1 -.541-.84l6.091-4.352-5.55 3.2a.5.5 0 0 1 -.531-.846l3.128-2.134-2.6 1.5a.5.5 0 0 1 -.539-.841l4.973-3.519-4.434 2.559a.5.5 0 0 1 -.545-.837l5.916-4.316-4.767 2.752a.5.5 0 0 1 -.552-.832l6.117-4.611-4.675 2.7a.5.5 0 0 1 -.55-.833l4.295-3.217-3.218 1.857a.5.5 0 0 1 -.552-.831l2.4-1.815-1.485.856a.5.5 0 0 1 -.576-.811l1.595-1.372-.765.441a.5.5 0 0 1 -.663-.714l.947-1.388a.52.52 0 0 1 -.469-.249.5.5 0 0 1 .182-.683l1.615-.935a.5.5 0 0 1 .663.714l-.879 1.294 3.491-2.014a.5.5 0 0 1 .576.811l-1.6 1.375 3.79-2.186a.5.5 0 0 1 .551.831l-2.391 1.809 3.557-2.053a.5.5 0 0 1 .55.833l-4.3 3.217 4.425-2.554a.5.5 0 0 1 .552.832l-6.101 4.61 5.852-3.378a.5.5 0 0 1 .545.837l-5.921 4.316 5.709-3.295a.5.5 0 0 1 .539.841l-4.972 3.519 4.771-2.754a.5.5 0 0 1 .531.846l-3.128 2.133 2.932-1.69a.5.5 0 0 1 .541.84l-6.091 4.352 6.061-3.5a.5.5 0 0 1 .542.838l-6.917 4.982 7.036-4.063a.5.5 0 0 1 .542.838l-7.6 5.478 7.351-4.244a.5.5 0 0 1 .542.839l-7.846 5.64 7.3-4.215a.5.5 0 0 1 .522.852l-.449.293a.5.5 0 0 1 .461.88l-5.646 3.89 5.114-2.951a.5.5 0 0 1 .535.844l-6.09 4.228 5.555-3.207a.5.5 0 0 1 .532.845l-5.217 3.573 4.685-2.7a.5.5 0 0 1 .537.842l-6.6 4.627 6.068-3.5a.5.5 0 0 1 .53.847l-4.441 3.009 3.907-2.257a.5.5 0 0 1 .529.848l-3.811 2.56 3.282-1.895a.5.5 0 0 1 .538.842l-6.823 4.8 6.285-3.629a.5.5 0 0 1 .533.844l-5.515 3.796 4.982-2.876a.5.5 0 0 1 .522.852l-.4.263a.5.5 0 0 1 .406.9l-1.7 1.12 1.178-.679a.5.5 0 0 1 .542.838l-7.439 5.347 6.9-3.981a.5.5 0 0 1 .531.845l-3.912 2.663 3.381-1.952a.5.5 0 0 1 .545.836l-7.021 5.133 6.476-3.738a.5.5 0 0 1 .546.836l-6.608 4.839 6.062-3.5a.5.5 0 0 1 .535.843l-3.875 2.685 3.333-1.924a.5.5 0 0 1 .547.835l-6.336 4.689 4.948-2.856a.5.5 0 0 1 .543.838l-4.508 3.266 3.3-1.905a.5.5 0 0 1 .544.837l-3.462 2.526 2.451-1.415a.5.5 0 0 1 .553.832l-2.671 2.03 1.745-1.007a.5.5 0 0 1 .613.775l-2.334 2.469 1.353-.78a.5.5 0 0 1 .627.761l-.573.657a.486.486 0 0 1 .255.217.5.5 0 0 1 -.182.682l-1.794 1.033a.5.5 0 0 1 -.627-.76l.2-.227-1.716.987a.5.5 0 0 1 -.613-.775l2.329-2.47-5.616 3.245a.493.493 0 0 1 -.255.071z" fill="#37cba1"/><path d="m24.482 46.471a.5.5 0 0 1 -.277-.916l4.516-3.009-6.682 3.854a.5.5 0 0 1 -.526-.849l6.6-4.373-8.788 5.073a.5.5 0 0 1 -.518-.855l3.43-2.183-4.467 2.578a.5.5 0 0 1 -.527-.849l11.357-7.55-12.513 7.222a.5.5 0 0 1 -.525-.85l11.708-7.7-12.259 7.082a.5.5 0 0 1 -.527-.85l13.6-9-13.684 7.894a.5.5 0 0 1 -.518-.854l7.93-5.039-7.532 4.349a.5.5 0 0 1 -.513-.857l2.055-1.278-1.542.889a.5.5 0 0 1 -.52-.852l10.74-6.923-10.221 5.9a.5.5 0 0 1 -.52-.852l10.367-6.673-9.846 5.68a.5.5 0 0 1 -.514-.858l1.864-1.16-1.35.778a.5.5 0 0 1 -.525-.849l12.336-8.158-11.811 6.818a.5.5 0 0 1 -.528-.849l11.695-7.822-11.167 6.447a.5.5 0 0 1 -.528-.848l9.167-6.13-8.64 4.987a.5.5 0 0 1 -.521-.852l2.865-1.854-2.344 1.353a.5.5 0 0 1 -.537-.842l6.794-4.777-6.257 3.612a.5.5 0 0 1 -.552-.831l5.831-4.433-5.279 3.047a.5.5 0 0 1 -.536-.843l.474-.329a.505.505 0 0 1 -.569-.193.5.5 0 0 1 .1-.672l2.146-1.729-1.237.714a.5.5 0 0 1 -.583-.8l1.463-1.307a.493.493 0 0 1 -.179-.181.5.5 0 0 1 .183-.682l2.779-1.605a.5.5 0 0 1 .583.806l-.532.474 2.617-1.51a.5.5 0 0 1 .564.822l-2.146 1.728 4.418-2.55a.5.5 0 0 1 .536.842l-.372.259 1.912-1.103a.5.5 0 0 1 .553.831l-5.831 4.432 9.115-5.263a.5.5 0 0 1 .537.841l-6.791 4.775 9.731-5.616a.5.5 0 0 1 .521.852l-2.868 1.856 4.692-2.708a.5.5 0 0 1 .528.848l-9.159 6.122 11.153-6.439a.5.5 0 0 1 .528.848l-11.7 7.826 12.947-7.475a.5.5 0 0 1 .526.85l-12.34 8.161 12.952-7.478a.5.5 0 0 1 .515.858l-1.873 1.166 1.8-1.042a.5.5 0 0 1 .521.852l-10.357 6.671 10.11-5.836a.5.5 0 0 1 .52.853l-10.741 6.926 10.231-5.911a.5.5 0 0 1 .513.858l-2.033 1.269 1.522-.878a.5.5 0 0 1 .518.855l-7.94 5.046 7.422-4.285a.5.5 0 0 1 .526.849l-13.6 9.006 13.072-7.549a.5.5 0 0 1 .524.851l-11.7 7.694 11.176-6.455a.5.5 0 0 1 .527.849l-11.347 7.549 10.82-6.246a.5.5 0 0 1 .518.855l-3.45 2.2 2.933-1.692a.5.5 0 0 1 .526.849l-6.6 4.37 6.072-3.5a.5.5 0 0 1 .527.848l-4.513 3.007 3.986-2.3a.5.5 0 0 1 .531.846l-3.59 2.441 3.059-1.766a.5.5 0 0 1 .531.846l-1.568 1.07 1.037-.6a.5.5 0 0 1 .537.842l-1.085.762.547-.316a.5.5 0 0 1 .584.8l-3.08 2.76 1.889-1.091a.5.5 0 1 1 .5.865l-6.058 3.5a.5.5 0 0 1 -.584-.8l3.078-2.758-6.169 3.549a.5.5 0 0 1 -.537-.841l1.09-.765-2.785 1.606a.5.5 0 0 1 -.531-.845l1.565-1.068-3.315 1.913a.5.5 0 0 1 -.531-.845l3.579-2.433-5.681 3.278a.5.5 0 0 1 -.25.071z" fill="#4c4c4c"/><path d="m25.057 42.471a.5.5 0 0 1 -.281-.914l1.405-.953-3.116 1.8a.5.5 0 0 1 -.532-.844l4.426-3.032-6.454 3.726a.5.5 0 0 1 -.533-.845l7.377-5.082-8.429 4.865a.5.5 0 0 1 -.527-.848l6.382-4.256-6.421 3.712a.5.5 0 0 1 -.519-.855l.383-.243a.5.5 0 0 1 -.46-.884l3.679-2.384-3.157 1.818a.5.5 0 0 1 -.522-.853l3.7-2.4-3.18 1.835a.5.5 0 0 1 -.532-.846l9.11-6.229-8.576 4.953a.5.5 0 0 1 -.524-.851l5.12-3.358-4.6 2.653a.5.5 0 0 1 -.535-.843l9.012-6.27-8.477 4.894a.5.5 0 0 1 -.539-.841l7.42-5.259-6.878 3.973a.5.5 0 0 1 -.53-.847l2.114-1.429-1.584.914a.5.5 0 0 1 -.565-.821l4.94-4.01-4.375 2.527a.5.5 0 0 1 -.546-.836l.467-.343a.5.5 0 0 1 -.487-.858l.672-.547-.106.06a.5.5 0 0 1 -.633-.754l.962-1.146a.5.5 0 0 1 -.178-.928l1.934-1.116a.5.5 0 0 1 .636.754l-.761.906 3.01-1.736a.5.5 0 0 1 .566.82l-.669.547 2.368-1.367a.5.5 0 0 1 .546.836l-.4.3 1.959-1.136a.5.5 0 0 1 .566.821l-4.942 4.01 8.368-4.831a.5.5 0 0 1 .531.846l-2.118 1.431 3.946-2.277a.5.5 0 0 1 .539.841l-7.422 5.259 9.439-5.449a.5.5 0 0 1 .536.843l-9.009 6.267 9.524-5.5a.5.5 0 0 1 .525.851l-5.118 3.356 4.736-2.733a.5.5 0 0 1 .532.846l-9.11 6.229 8.578-4.952a.5.5 0 0 1 .522.853l-3.7 2.4 3.18-1.835a.5.5 0 0 1 .522.853l-3.68 2.384 3.158-1.822a.5.5 0 0 1 .518.855l-.439.279a.5.5 0 0 1 .449.886l-6.384 4.255 5.857-3.38a.5.5 0 0 1 .533.844l-7.383 5.086 6.85-3.954a.5.5 0 0 1 .532.845l-4.421 3.028 3.889-2.245a.5.5 0 0 1 .53.847l-1.4.951.874-.5a.5.5 0 0 1 .555.828l-3.79 2.935 3.235-1.867a.5.5 0 0 1 .555.828l-1.353 1.038.792-.457a.5.5 0 0 1 .593.8l-1.289 1.218.595-.343a.5.5 0 0 1 .5.866l-4.285 2.466a.5.5 0 0 1 -.594-.8l1.289-1.217-3.489 2.017a.5.5 0 0 1 -.556-.828l1.344-1.041-3.239 1.869a.5.5 0 0 1 -.556-.828l3.791-2.934-6.518 3.762a.5.5 0 0 1 -.25.071z" fill="#5b5b5b"/><g fill="#262626"><path d="m35.459 17.664c-.839-.043-1.688-.005-2.527-.005h-10.114a8.9 8.9 0 0 0 -3.031.275 3.58 3.58 0 0 0 -2.511 3.407c-.12 5.946 0 11.906 0 17.853.2 3.744 4.371 3.146 6.982 3.146h9.731a5.184 5.184 0 0 0 3.587-1.052 3.779 3.779 0 0 0 1.148-3.142v-9.175c0-2.668.088-5.352 0-8.018a3.281 3.281 0 0 0 -3.265-3.289zm-.206 23.995a22.542 22.542 0 0 1 -3.1 0h-10.026c-1.8 0-3.294-.831-3.4-2.853v-15.406c0-1.917-.424-4.928 2.3-5.058 2.764-.131 5.565 0 8.331 0h4.192c1.306 0 2.535.033 3.318 1.34a4.612 4.612 0 0 1 .41 2.494v13.309c-.002 1.933.65 5.79-2.025 6.174z"/><path d="m43.723 28.429a1.686 1.686 0 0 0 .3-.03 2.786 2.786 0 0 0 2.7-2.375c.036-.633 0-1.276 0-1.91 0-.722.005-1.444 0-2.166a2.341 2.341 0 0 0 -2.065-2.348 12.285 12.285 0 0 0 -1.977-.04 6.1 6.1 0 0 0 -6.023-5.9 20.928 20.928 0 0 1 -1.567-4.534 48.521 48.521 0 0 1 -1.11-5.944 2.735 2.735 0 0 0 -.938-2.081 2.747 2.747 0 0 0 -1.635-.477c-2-.046-4.005-.014-6 0a3.365 3.365 0 0 0 -2.987 1.361 7.911 7.911 0 0 0 -.6 2.947c-.156 1.013-.34 2.022-.558 3.023a33.6 33.6 0 0 1 -1.296 4.545c-.146.392-.3.782-.475 1.162a6.872 6.872 0 0 0 -6.217 7.084v17.342a17.288 17.288 0 0 0 .116 3.274 6.4 6.4 0 0 0 5.82 5.03c.054 0 .108 0 .162.008a21.21 21.21 0 0 1 1.536 4.468 48.521 48.521 0 0 1 1.11 5.944c.2 1.541.93 2.568 2.589 2.623 2 .066 4.007.009 6 0a3.288 3.288 0 0 0 2.981-1.385 8.294 8.294 0 0 0 .593-2.964c.156-1.013.34-2.022.558-3.023a24.185 24.185 0 0 1 1.789-5.719 6.976 6.976 0 0 0 5.622-3.877 9.209 9.209 0 0 0 .57-4.038v-10zm-.156-8a1.69 1.69 0 0 1 1.706 1.655c.066 1.227 0 2.475 0 3.705 0 .636-.16 1.76-1 1.782h-1.547v-7.142zm-21.461-10.28a43.833 43.833 0 0 0 1.069-4.871 18.217 18.217 0 0 1 .458-3.024 1.17 1.17 0 0 1 1.057-.878c1.912-.12 3.869 0 5.786 0a2.687 2.687 0 0 1 .764.055c1.122.324 1.2 1.479 1.331 2.444a48.655 48.655 0 0 0 1.02 5.448 23.821 23.821 0 0 0 1.387 4.242c-1.029-.019-2.07.019-3.07.019-3.679 0-7.36-.024-11.039 0a20.64 20.64 0 0 0 1.237-3.435zm11.783 39.684a43.556 43.556 0 0 0 -1.068 4.867 17.146 17.146 0 0 1 -.459 3.023 1.178 1.178 0 0 1 -1.068.838c-1.913.117-3.868 0-5.786 0a3.536 3.536 0 0 1 -.69-.024c-1.176-.237-1.262-1.457-1.389-2.416a48.655 48.655 0 0 0 -1.02-5.448 23.878 23.878 0 0 0 -1.386-4.24c.562-.006 1.124-.021 1.682-.021h12.4a21.165 21.165 0 0 0 -1.216 3.421zm7.386-10.775a7.449 7.449 0 0 1 -.824 4.044 5.018 5.018 0 0 1 -4.171 2.482h-14.286a9.073 9.073 0 0 1 -3.974-.507c-3.693-1.71-3.295-5.618-3.295-8.973v-11.977c0-3.123-.569-6.959 2.472-8.947 1.291-.844 2.7-.764 4.155-.764h5.494c2.953 0 5.922-.09 8.874 0a5.76 5.76 0 0 1 5.554 5.675v18.967z"/><path d="m21.714 22.4h1a1.5 1.5 0 0 0 .568-.115.876.876 0 0 0 .23-.127.547.547 0 0 0 .16-.147c.054-.089.093-.2 0-.286a.573.573 0 0 0 -.388-.117h-1a1.5 1.5 0 0 0 -.568.115.848.848 0 0 0 -.23.127.547.547 0 0 0 -.16.147c-.054.089-.093.2 0 .286a.573.573 0 0 0 .388.117z"/><path d="m21.693 26.317h1a1.437 1.437 0 0 0 .277-.042 1.665 1.665 0 0 0 .288-.082 1.05 1.05 0 0 0 .234-.112.641.641 0 0 0 .168-.121c.051-.061.109-.15.02-.215l-.089-.041a.9.9 0 0 0 -.284-.021h-1a1.437 1.437 0 0 0 -.277.042 1.58 1.58 0 0 0 -.288.082 1.05 1.05 0 0 0 -.234.112.641.641 0 0 0 -.168.121c-.051.061-.109.15-.02.215l.089.041a.9.9 0 0 0 .284.021z"/><path d="m21.322 30.264.092.05a.817.817 0 0 0 .287.034h1a1.638 1.638 0 0 0 .566-.12 1 1 0 0 0 .233-.118.632.632 0 0 0 .165-.131c.052-.073.1-.171.013-.243l-.092-.05a.817.817 0 0 0 -.287-.034h-1a1.638 1.638 0 0 0 -.566.12 1 1 0 0 0 -.233.118.632.632 0 0 0 -.165.131c-.052.073-.102.171-.013.243z"/><path d="m21.325 34.276a.578.578 0 0 0 .387.111h1a1.532 1.532 0 0 0 .567-.116.9.9 0 0 0 .23-.126.557.557 0 0 0 .162-.145c.054-.085.094-.2 0-.277a.578.578 0 0 0 -.387-.111h-1a1.532 1.532 0 0 0 -.567.116.9.9 0 0 0 -.23.126.557.557 0 0 0 -.162.144c-.05.086-.09.196 0 .278z"/><path d="m23.273 37.555h-1a1.387 1.387 0 0 0 -.569.109.751.751 0 0 0 -.227.138.531.531 0 0 0 -.157.163.273.273 0 0 0 .01.329.565.565 0 0 0 .4.151h1a1.387 1.387 0 0 0 .569-.109.751.751 0 0 0 .227-.138.531.531 0 0 0 .157-.163.273.273 0 0 0 -.01-.329.565.565 0 0 0 -.4-.151z"/><path d="m26.944 22.563h5a.806.806 0 0 0 .792-.609c.035-.385-.375-.517-.68-.517h-5a.806.806 0 0 0 -.792.609c-.035.385.375.517.68.517z"/><path d="m34.3 25.667h-7a1.346 1.346 0 0 0 -.965.363c-.191.265.166.3.359.3h7a1.346 1.346 0 0 0 .965-.363c.194-.262-.159-.3-.359-.3z"/><path d="m28.282 30.3h.248a2.022 2.022 0 0 0 .53-.072 1.693 1.693 0 0 0 .5-.2c.062-.043.2-.121.169-.215s-.19-.1-.254-.1h-2a2.063 2.063 0 0 0 -.53.071 1.723 1.723 0 0 0 -.5.2c-.062.043-.2.121-.169.215s.19.1.254.1z"/><path d="m28.175 33.685h-.868a1.4 1.4 0 0 0 -.967.356c-.2.257.174.274.353.274h7a1.4 1.4 0 0 0 .967-.356c.2-.257-.174-.274-.353-.274z"/><path d="m32.064 37.467h-5c-.316 0-.761.244-.8.588-.041.379.385.478.67.478h5c.316 0 .761-.244.8-.588.041-.379-.385-.478-.67-.478z"/></g></svg>