<svg xmlns="http://www.w3.org/2000/svg" height="512" version="1.1" viewBox="0 0 512 512" width="512">
<g id="surface1">
<path d="M 512 256 C 512 397.386719 397.386719 512 256 512 C 114.613281 512 0 397.386719 0 256 C 0 114.613281 114.613281 0 256 0 C 397.386719 0 512 114.613281 512 256 Z M 512 256 " style="stroke:none;fill-rule:nonzero;fill:#ffe854;fill-opacity:1;" />
<path d="M 512 256 C 512 282.050781 508.109375 307.191406 500.871094 330.871094 C 498.421875 338.898438 495.578125 346.769531 492.371094 354.449219 C 489.019531 362.511719 485.261719 370.359375 481.121094 377.980469 C 477.691406 384.308594 474 390.46875 470.050781 396.449219 C 464.53125 404.859375 458.519531 412.910156 452.070312 420.589844 C 451.488281 421.28125 450.910156 421.96875 450.320312 422.648438 C 443.601562 430.480469 436.421875 437.890625 428.820312 444.851562 C 383.289062 486.558594 322.609375 512 256 512 C 189.390625 512 128.710938 486.558594 83.191406 444.851562 C 76.859375 439.058594 70.839844 432.96875 65.128906 426.570312 C 63.96875 425.28125 62.820312 423.96875 61.691406 422.648438 C 61.101562 421.960938 60.511719 421.269531 59.941406 420.578125 C 53.480469 412.910156 47.46875 404.851562 41.949219 396.441406 C 38.011719 390.460938 34.320312 384.300781 30.890625 377.980469 C 27.601562 371.949219 24.558594 365.769531 21.769531 359.449219 C 21.039062 357.789062 20.320312 356.128906 19.628906 354.449219 C 12.628906 337.691406 7.371094 320.019531 4.070312 301.679688 C 1.390625 286.851562 0 271.589844 0 256 C 0 209.78125 12.25 166.429688 33.679688 129 C 50.058594 157.609375 71.800781 182.75 97.53125 203.050781 C 124.808594 224.601562 156.589844 240.699219 191.210938 249.730469 C 211.910156 255.128906 233.621094 258 256 258 C 351.160156 258 434.210938 206.070312 478.320312 129 C 499.75 166.429688 512 209.78125 512 256 Z M 512 256 " style="stroke:none;fill-rule:nonzero;fill:#ffcf11;fill-opacity:1;" />
<path d="M 481.261719 377.699219 C 475.761719 387.851562 469.609375 397.589844 462.839844 406.859375 C 460.789062 409.660156 458.691406 412.421875 456.539062 415.128906 C 409.640625 474.148438 337.238281 512 256 512 C 174.761719 512 102.359375 474.148438 55.460938 415.128906 C 53.308594 412.421875 51.210938 409.660156 49.160156 406.859375 C 42.390625 397.589844 36.238281 387.851562 30.738281 377.699219 Z M 481.261719 377.699219 " style="stroke:none;fill-rule:nonzero;fill:#eb7521;fill-opacity:1;" />
<path d="M 416.308594 281.757812 L 430.582031 273.484375 L 433.761719 259.757812 L 447.253906 263.820312 L 466.65625 252.574219 L 469.835938 238.847656 L 483.324219 242.910156 L 497.597656 234.636719 C 482 221.226562 459.023438 218.429688 440.21875 229.332031 C 421.417969 240.230469 412.425781 261.554688 416.308594 281.757812 Z M 416.308594 281.757812 " style="stroke:none;fill-rule:nonzero;fill:#009e3f;fill-opacity:1;" />
<path d="M 414.988281 279.160156 L 429.164062 285.957031 L 441.679688 281.089844 L 445.71875 293.894531 L 464.992188 303.136719 L 477.507812 298.269531 L 481.550781 311.074219 L 495.726562 317.871094 C 497.910156 298.390625 487.777344 278.800781 469.101562 269.84375 C 450.429688 260.890625 428.808594 265.257812 414.988281 279.160156 Z M 414.988281 279.160156 " style="stroke:none;fill-rule:nonzero;fill:#6bdc2b;fill-opacity:1;" />
<path d="M 416.828125 279.230469 L 402.535156 270.945312 L 399.351562 257.199219 L 385.839844 261.269531 L 366.40625 250.003906 L 363.222656 236.257812 L 349.714844 240.324219 L 335.417969 232.039062 C 351.042969 218.609375 374.054688 215.808594 392.886719 226.726562 C 411.714844 237.640625 420.71875 259 416.828125 279.230469 Z M 416.828125 279.230469 " style="stroke:none;fill-rule:nonzero;fill:#6bdc2b;fill-opacity:1;" />
<path d="M 418.933594 279.160156 L 404.757812 285.957031 L 392.242188 281.089844 L 388.199219 293.894531 L 368.925781 303.136719 L 356.414062 298.269531 L 352.371094 311.074219 L 338.195312 317.871094 C 336.007812 298.390625 346.140625 278.800781 364.816406 269.84375 C 383.492188 260.890625 405.109375 265.257812 418.933594 279.160156 Z M 418.933594 279.160156 " style="stroke:none;fill-rule:nonzero;fill:#009e3f;fill-opacity:1;" />
<path d="M 426.4375 383.171875 L 406.136719 383.171875 C 406.222656 379.398438 406.328125 375.722656 406.441406 372.144531 C 406.464844 371.476562 406.484375 370.816406 406.507812 370.15625 C 406.59375 367.636719 406.683594 365.160156 406.777344 362.738281 C 406.800781 362.070312 406.824219 361.410156 406.851562 360.75 C 406.949219 358.21875 407.058594 355.746094 407.167969 353.324219 C 407.199219 352.660156 407.234375 351.992188 407.261719 351.335938 C 407.382812 348.804688 407.511719 346.328125 407.640625 343.914062 C 407.675781 343.242188 407.710938 342.582031 407.75 341.925781 C 407.890625 339.386719 408.039062 336.910156 408.1875 334.5 C 408.226562 333.835938 408.269531 333.167969 408.3125 332.511719 C 408.476562 329.964844 408.644531 327.488281 408.816406 325.089844 C 408.867188 324.417969 408.917969 323.757812 408.960938 323.101562 C 409.15625 320.542969 409.351562 318.066406 409.546875 315.675781 C 409.601562 315.007812 409.65625 314.34375 409.710938 313.6875 C 409.929688 311.113281 410.152344 308.640625 410.378906 306.265625 C 410.4375 305.59375 410.503906 304.933594 410.566406 304.277344 C 410.820312 301.683594 411.074219 299.210938 411.328125 296.851562 C 411.402344 296.183594 411.472656 295.515625 411.546875 294.863281 C 411.839844 292.234375 412.128906 289.761719 412.421875 287.441406 C 412.5 286.761719 412.585938 286.097656 412.667969 285.453125 C 413.011719 282.761719 413.351562 280.289062 413.679688 278.027344 C 413.773438 277.34375 413.871094 276.683594 413.964844 276.039062 C 415.769531 263.9375 417.152344 258.53125 417.152344 258.53125 C 418.101562 264.335938 418.953125 270.191406 419.71875 276.039062 C 419.804688 276.703125 419.894531 277.367188 419.972656 278.027344 C 420.289062 280.507812 420.59375 282.988281 420.878906 285.453125 C 420.957031 286.117188 421.03125 286.78125 421.105469 287.441406 C 421.390625 289.929688 421.652344 292.40625 421.90625 294.863281 C 421.976562 295.53125 422.039062 296.191406 422.105469 296.851562 C 422.359375 299.347656 422.59375 301.820312 422.816406 304.277344 C 422.875 304.941406 422.929688 305.605469 422.988281 306.265625 C 423.210938 308.769531 423.417969 311.242188 423.605469 313.6875 C 423.660156 314.355469 423.710938 315.019531 423.761719 315.675781 C 423.953125 318.191406 424.132812 320.664062 424.296875 323.101562 C 424.34375 323.765625 424.386719 324.429688 424.429688 325.089844 C 424.59375 327.613281 424.75 330.09375 424.886719 332.511719 C 424.929688 333.179688 424.964844 333.84375 425.003906 334.5 C 425.140625 337.046875 425.265625 339.519531 425.386719 341.925781 C 425.414062 342.597656 425.449219 343.257812 425.480469 343.914062 C 425.59375 346.480469 425.699219 348.957031 425.785156 351.335938 C 425.816406 352.007812 425.84375 352.667969 425.863281 353.324219 C 425.957031 355.9375 426.035156 358.417969 426.101562 360.75 C 426.125 361.425781 426.140625 362.085938 426.160156 362.738281 C 426.230469 365.441406 426.285156 367.925781 426.324219 370.15625 C 426.335938 370.84375 426.347656 371.507812 426.355469 372.144531 C 426.464844 379.128906 426.4375 383.171875 426.4375 383.171875 Z M 426.4375 383.171875 " style="stroke:none;fill-rule:nonzero;fill:#ff9e00;fill-opacity:1;" />
<path d="M 426.4375 383.171875 L 417.152344 383.171875 L 417.152344 258.535156 C 418.101562 264.339844 418.957031 270.195312 419.722656 276.046875 C 419.804688 276.707031 419.894531 277.371094 419.972656 278.035156 C 420.292969 280.515625 420.59375 282.992188 420.878906 285.457031 C 420.957031 286.125 421.03125 286.785156 421.105469 287.445312 C 421.390625 289.9375 421.652344 292.410156 421.90625 294.871094 C 421.976562 295.535156 422.039062 296.195312 422.105469 296.859375 C 422.359375 299.351562 422.59375 301.828125 422.816406 304.28125 C 422.878906 304.949219 422.929688 305.609375 422.992188 306.269531 C 423.210938 308.773438 423.417969 311.25 423.605469 313.695312 C 423.660156 314.359375 423.710938 315.027344 423.761719 315.683594 C 423.953125 318.195312 424.132812 320.671875 424.296875 323.105469 C 424.34375 323.773438 424.386719 324.433594 424.433594 325.09375 C 424.597656 327.617188 424.75 330.097656 424.890625 332.519531 C 424.929688 333.183594 424.964844 333.851562 425.003906 334.507812 C 425.140625 337.050781 425.265625 339.523438 425.386719 341.929688 C 425.414062 342.601562 425.449219 343.261719 425.480469 343.917969 C 425.59375 346.488281 425.699219 348.960938 425.789062 351.34375 C 425.816406 352.011719 425.84375 352.675781 425.863281 353.328125 C 425.957031 355.945312 426.035156 358.421875 426.101562 360.753906 C 426.125 361.429688 426.140625 362.089844 426.160156 362.742188 C 426.230469 365.445312 426.285156 367.929688 426.324219 370.160156 C 426.335938 370.847656 426.351562 371.511719 426.355469 372.148438 C 426.464844 379.128906 426.4375 383.171875 426.4375 383.171875 Z M 426.4375 383.171875 " style="stroke:none;fill-rule:nonzero;fill:#eb7521;fill-opacity:1;" />
<path d="M 419.976562 278.035156 L 413.679688 278.035156 C 413.773438 277.347656 413.871094 276.6875 413.96875 276.046875 L 419.722656 276.046875 C 419.804688 276.707031 419.894531 277.371094 419.976562 278.035156 Z M 419.976562 278.035156 " style="stroke:none;fill-rule:nonzero;fill:#a63811;fill-opacity:1;" />
<path d="M 421.109375 287.445312 L 412.421875 287.445312 C 412.5 286.765625 412.585938 286.105469 412.671875 285.457031 L 420.878906 285.457031 C 420.960938 286.125 421.03125 286.785156 421.109375 287.445312 Z M 421.109375 287.445312 " style="stroke:none;fill-rule:nonzero;fill:#a63811;fill-opacity:1;" />
<path d="M 422.105469 296.855469 L 411.328125 296.855469 C 411.402344 296.1875 411.472656 295.519531 411.546875 294.867188 L 421.90625 294.867188 C 421.976562 295.535156 422.042969 296.195312 422.105469 296.855469 Z M 422.105469 296.855469 " style="stroke:none;fill-rule:nonzero;fill:#a63811;fill-opacity:1;" />
<path d="M 422.992188 306.269531 L 410.378906 306.269531 C 410.4375 305.597656 410.503906 304.9375 410.566406 304.28125 L 422.816406 304.28125 C 422.878906 304.945312 422.929688 305.609375 422.992188 306.269531 Z M 422.992188 306.269531 " style="stroke:none;fill-rule:nonzero;fill:#a63811;fill-opacity:1;" />
<path d="M 423.761719 315.679688 L 409.550781 315.679688 C 409.605469 315.007812 409.660156 314.347656 409.714844 313.691406 L 423.609375 313.691406 C 423.660156 314.359375 423.710938 315.023438 423.761719 315.679688 Z M 423.761719 315.679688 " style="stroke:none;fill-rule:nonzero;fill:#a63811;fill-opacity:1;" />
<path d="M 424.433594 325.089844 L 408.820312 325.089844 C 408.867188 324.421875 408.917969 323.757812 408.964844 323.101562 L 424.296875 323.101562 C 424.34375 323.769531 424.386719 324.429688 424.433594 325.089844 Z M 424.433594 325.089844 " style="stroke:none;fill-rule:nonzero;fill:#a63811;fill-opacity:1;" />
<path d="M 425.003906 334.503906 L 408.1875 334.503906 C 408.226562 333.835938 408.273438 333.171875 408.3125 332.515625 L 424.890625 332.515625 C 424.929688 333.179688 424.964844 333.847656 425.003906 334.503906 Z M 425.003906 334.503906 " style="stroke:none;fill-rule:nonzero;fill:#a63811;fill-opacity:1;" />
<path d="M 425.480469 343.914062 L 407.640625 343.914062 C 407.675781 343.242188 407.710938 342.582031 407.75 341.925781 L 425.386719 341.925781 C 425.414062 342.597656 425.449219 343.257812 425.480469 343.914062 Z M 425.480469 343.914062 " style="stroke:none;fill-rule:nonzero;fill:#a63811;fill-opacity:1;" />
<path d="M 425.863281 353.324219 L 407.167969 353.324219 C 407.199219 352.660156 407.234375 351.992188 407.261719 351.339844 L 425.789062 351.339844 C 425.816406 352.007812 425.84375 352.671875 425.863281 353.324219 Z M 425.863281 353.324219 " style="stroke:none;fill-rule:nonzero;fill:#a63811;fill-opacity:1;" />
<path d="M 426.160156 362.738281 L 406.777344 362.738281 C 406.800781 362.070312 406.828125 361.410156 406.851562 360.75 L 426.101562 360.75 C 426.125 361.425781 426.140625 362.085938 426.160156 362.738281 Z M 426.160156 362.738281 " style="stroke:none;fill-rule:nonzero;fill:#a63811;fill-opacity:1;" />
<path d="M 426.355469 372.144531 L 406.445312 372.144531 C 406.464844 371.476562 406.484375 370.816406 406.507812 370.15625 L 426.324219 370.15625 C 426.335938 370.84375 426.351562 371.507812 426.355469 372.144531 Z M 426.355469 372.144531 " style="stroke:none;fill-rule:nonzero;fill:#a63811;fill-opacity:1;" />
<path d="M 272.105469 179.882812 L 257.273438 180.128906 C 217.195312 180.800781 182.789062 204.316406 166.375 238.144531 C 164.761719 241.464844 167.140625 245.332031 170.832031 245.332031 C 172.371094 245.332031 173.839844 244.632812 174.765625 243.398438 C 186.589844 227.664062 205.277344 217.367188 226.445312 217.011719 L 277.546875 216.15625 C 296.976562 216.15625 314.183594 225.640625 324.808594 240.21875 C 326.636719 242.730469 330.5625 241.445312 330.5625 238.339844 C 330.5625 206.054688 304.390625 179.882812 272.105469 179.882812 Z M 272.105469 179.882812 " style="stroke:none;fill-rule:nonzero;fill:#cff5ff;fill-opacity:1;" />
<path d="M 280.171875 180.050781 L 280.171875 180.359375 C 222.621094 183.660156 199.988281 214.089844 191.210938 249.730469 C 186.480469 268.878906 185.75 289.539062 185.75 308.300781 C 185.75 357.199219 218.960938 400.441406 269.78125 426.570312 L 65.128906 426.570312 C 63.96875 425.28125 62.820312 423.96875 61.691406 422.648438 C 61.101562 421.960938 60.511719 421.269531 59.941406 420.578125 C 53.558594 413 47.621094 405.050781 42.160156 396.75 C 42.089844 396.648438 42.019531 396.539062 41.949219 396.441406 C 38.011719 390.460938 34.320312 384.300781 30.890625 377.980469 C 27.601562 371.949219 24.558594 365.769531 21.769531 359.449219 C 21.039062 357.789062 20.320312 356.128906 19.628906 354.449219 C 12.628906 337.691406 7.371094 320.019531 4.070312 301.679688 C 15.480469 260.160156 50.058594 224.78125 97.53125 203.050781 C 129.378906 188.480469 167.03125 180.050781 207.371094 180.050781 Z M 280.171875 180.050781 " style="stroke:none;fill-rule:nonzero;fill:#cff5ff;fill-opacity:1;" />
<path d="M 185.761719 305.421875 C 185.761719 306.371094 185.75 307.328125 185.75 308.300781 C 185.75 357.199219 218.960938 400.441406 269.78125 426.570312 L 65.128906 426.570312 C 63.96875 425.28125 62.820312 423.96875 61.691406 422.648438 C 61.101562 421.960938 60.511719 421.269531 59.941406 420.578125 C 53.558594 413 47.621094 405.050781 42.160156 396.75 L 41.429688 331.078125 C 41.910156 250.21875 128.878906 184.28125 238.171875 180.238281 L 280.171875 180.238281 L 280.171875 180.359375 C 272 180.828125 264.539062 181.839844 257.71875 183.339844 C 216.46875 192.398438 198.738281 219.148438 191.210938 249.730469 C 186.71875 267.910156 185.828125 287.441406 185.761719 305.421875 Z M 185.761719 305.421875 " style="stroke:none;fill-rule:nonzero;fill:#82c2f5;fill-opacity:1;" />
<path d="M 185.761719 305.421875 C 185.761719 306.371094 185.75 307.328125 185.75 308.300781 C 185.75 357.199219 218.960938 400.441406 269.78125 426.570312 L 84.480469 426.570312 L 83.429688 331.078125 C 83.898438 252.488281 166.058594 187.988281 271.019531 180.730469 C 267.371094 181.160156 262.808594 181.941406 257.71875 183.339844 C 216.46875 192.398438 198.738281 219.148438 191.210938 249.730469 C 186.71875 267.910156 185.828125 287.441406 185.761719 305.421875 Z M 185.761719 305.421875 " style="stroke:none;fill-rule:nonzero;fill:#63b0ff;fill-opacity:1;" />
<path d="M 280.171875 180.238281 C 277.101562 180.351562 274.050781 180.519531 271.019531 180.730469 C 273.859375 180.398438 276.160156 180.269531 277.738281 180.238281 C 279.300781 180.199219 280.171875 180.238281 280.171875 180.238281 Z M 280.171875 180.238281 " style="stroke:none;fill-rule:nonzero;fill:#63b0ff;fill-opacity:1;" />
<path d="M 462.839844 406.859375 C 460.789062 409.660156 458.691406 412.421875 456.539062 415.128906 C 409.640625 474.148438 337.238281 512 256 512 C 174.761719 512 102.359375 474.148438 55.460938 415.128906 C 53.308594 412.421875 51.210938 409.660156 49.160156 406.859375 C 54.449219 404.679688 60.851562 403.140625 69.859375 403.140625 C 100.878906 403.140625 100.878906 421.339844 131.898438 421.339844 C 162.929688 421.339844 162.929688 403.140625 193.949219 403.140625 C 224.96875 403.140625 224.96875 421.339844 255.988281 421.339844 C 287.011719 421.339844 287.011719 403.140625 318.039062 403.140625 C 349.058594 403.140625 349.058594 421.339844 380.078125 421.339844 C 411.109375 421.339844 411.109375 403.140625 442.128906 403.140625 C 451.148438 403.140625 457.539062 404.679688 462.839844 406.859375 Z M 462.839844 406.859375 " style="stroke:none;fill-rule:nonzero;fill:#cff5ff;fill-opacity:1;" />
<path d="M 438.070312 435.941406 C 425.421875 448.738281 411.429688 460.21875 396.328125 470.140625 C 385.308594 477.371094 373.699219 483.78125 361.589844 489.269531 C 329.398438 503.871094 293.648438 512 256 512 C 218.351562 512 182.589844 503.871094 150.398438 489.261719 C 138.53125 483.890625 127.148438 477.628906 116.339844 470.578125 C 100.980469 460.558594 86.761719 448.929688 73.921875 435.941406 C 100.941406 437.460938 102.300781 454.050781 131.898438 454.050781 C 162.929688 454.050781 162.929688 435.828125 193.949219 435.828125 C 224.96875 435.828125 224.96875 454.050781 255.988281 454.050781 C 287.011719 454.050781 287.011719 435.828125 318.039062 435.828125 C 349.058594 435.828125 349.058594 454.050781 380.078125 454.050781 C 409.691406 454.050781 411.050781 437.460938 438.070312 435.941406 Z M 438.070312 435.941406 " style="stroke:none;fill-rule:nonzero;fill:#63b0ff;fill-opacity:1;" />
<path d="M 361.589844 489.269531 C 329.398438 503.871094 293.648438 512 256 512 C 218.351562 512 182.589844 503.871094 150.398438 489.261719 C 164.890625 484.128906 170.730469 473.910156 193.949219 473.910156 C 224.96875 473.910156 224.96875 492.140625 255.988281 492.140625 C 287.011719 492.140625 287.011719 473.910156 318.039062 473.910156 C 341.269531 473.910156 347.101562 484.128906 361.589844 489.269531 Z M 361.589844 489.269531 " style="stroke:none;fill-rule:nonzero;fill:#0c99e6;fill-opacity:1;" />
<path d="M 101.558594 111.832031 C 100.808594 111.035156 100.445312 110.644531 99.695312 109.847656 C 100.597656 96.691406 111.554688 86.300781 124.9375 86.300781 C 127.738281 86.300781 130.433594 86.761719 132.953125 87.605469 C 133.746094 87.867188 134.632812 87.5625 135.070312 86.851562 C 140.855469 77.496094 151.199219 71.257812 163.007812 71.257812 C 178.472656 71.257812 191.433594 81.953125 194.90625 96.351562 C 195.117188 97.222656 195.941406 97.78125 196.832031 97.730469 C 197.179688 97.710938 197.53125 97.699219 197.882812 97.699219 C 205.652344 97.699219 212.296875 102.5 215.023438 109.296875 C 215.507812 110.507812 214.601562 111.832031 213.292969 111.832031 Z M 101.558594 111.832031 " style="stroke:none;fill-rule:nonzero;fill:#ffffff;fill-opacity:1;" />
<path d="M 126.300781 111.832031 C 125.523438 110.921875 125.242188 110.59375 124.464844 109.679688 C 125.449219 102.601562 131.527344 97.152344 138.875 97.152344 C 140.289062 97.152344 141.65625 97.355469 142.949219 97.734375 C 143.722656 97.960938 144.554688 97.675781 145 97 C 148.375 91.882812 154.175781 88.5 160.765625 88.5 C 169.453125 88.5 176.765625 94.371094 178.960938 102.359375 C 179.1875 103.183594 179.953125 103.707031 180.804688 103.707031 C 180.808594 103.707031 180.816406 103.707031 180.820312 103.707031 C 184.78125 103.707031 188.234375 105.878906 190.058594 109.09375 C 190.753906 110.316406 189.832031 111.832031 188.429688 111.832031 Z M 126.300781 111.832031 " style="stroke:none;fill-rule:nonzero;fill:#cff5ff;fill-opacity:1;" />
<path d="M 325.558594 119.832031 C 324.808594 119.035156 324.445312 118.644531 323.695312 117.847656 C 324.597656 104.691406 335.554688 94.300781 348.9375 94.300781 C 351.738281 94.300781 354.433594 94.761719 356.953125 95.605469 C 357.746094 95.867188 358.632812 95.5625 359.070312 94.851562 C 364.855469 85.496094 375.199219 79.257812 387.007812 79.257812 C 402.472656 79.257812 415.433594 89.953125 418.90625 104.351562 C 419.117188 105.222656 419.941406 105.78125 420.832031 105.730469 C 421.179688 105.710938 421.53125 105.699219 421.882812 105.699219 C 429.652344 105.699219 436.296875 110.5 439.023438 117.296875 C 439.507812 118.507812 438.601562 119.832031 437.292969 119.832031 Z M 325.558594 119.832031 " style="stroke:none;fill-rule:nonzero;fill:#ffffff;fill-opacity:1;" />
<path d="M 350.300781 119.832031 C 349.523438 118.921875 349.242188 118.59375 348.464844 117.679688 C 349.449219 110.601562 355.527344 105.152344 362.875 105.152344 C 364.289062 105.152344 365.65625 105.355469 366.949219 105.734375 C 367.722656 105.960938 368.554688 105.675781 369 105 C 372.375 99.882812 378.175781 96.5 384.765625 96.5 C 393.453125 96.5 400.765625 102.371094 402.960938 110.359375 C 403.1875 111.183594 403.953125 111.707031 404.804688 111.707031 C 404.808594 111.707031 404.816406 111.707031 404.820312 111.707031 C 408.78125 111.707031 412.238281 113.878906 414.0625 117.09375 C 414.753906 118.316406 413.832031 119.832031 412.429688 119.832031 Z M 350.300781 119.832031 " style="stroke:none;fill-rule:nonzero;fill:#cff5ff;fill-opacity:1;" />
</g>
</svg>