<?xml version="1.0" encoding="UTF-8" standalone="no"?>
<svg xmlns="http://www.w3.org/2000/svg"
     width="256"
     viewBox="0 0 191.99999 191.99999"
     version="1.1"
     height="256">
  <g transform="scale(0.37499999)"
     id="surface1">
    <path
       id="path2"
       style="fill:#ffe854;fill-opacity:1;fill-rule:nonzero;stroke:none"
       d="M 512,256 C 512,397.38672 397.38672,512 256,512 114.61328,512 0,397.38672 0,256 0,114.61328 114.61328,0 256,0 397.38672,0 512,114.61328 512,256 Z m 0,0" />
    <path
       id="path4"
       style="fill:#ffcf11;fill-opacity:1;fill-rule:nonzero;stroke:none"
       d="m 512,256 c 0,26.05078 -3.89063,51.19141 -11.12891,74.87109 -2.44922,8.02735 -5.29297,15.89844 -8.5,23.57813 -3.35156,8.0625 -7.10937,15.91015 -11.25,23.53125 -3.42968,6.32812 -7.12109,12.48828 -11.07031,18.46875 -5.51953,8.41015 -11.53125,16.46094 -17.98047,24.14062 -0.58203,0.69141 -1.16015,1.37891 -1.75,2.0586 -6.71875,7.83203 -13.89844,15.24218 -21.5,22.20312 C 383.28906,486.55859 322.60937,512 256,512 189.39062,512 128.71094,486.55859 83.191406,444.85156 c -6.332031,-5.79297 -12.351562,-11.88281 -18.0625,-18.28125 -1.160156,-1.28906 -2.308594,-2.60156 -3.4375,-3.92187 -0.589844,-0.6875 -1.179687,-1.37891 -1.75,-2.07032 -6.460937,-7.66796 -12.472656,-15.72656 -17.992187,-24.13671 -3.9375,-5.98047 -7.628907,-12.14063 -11.058594,-18.46094 -3.289063,-6.03125 -6.332031,-12.21094 -9.121094,-18.53125 -0.730469,-1.66016 -1.449219,-3.32031 -2.140625,-5 -7,-16.75781 -12.257812,-34.42969 -15.558594,-52.76953 C 1.390625,286.85156 0,271.58984 0,256 0,209.78125 12.25,166.42969 33.679688,129 c 16.378906,28.60937 38.121093,53.75 63.851562,74.05078 27.27734,21.55078 59.05859,37.64844 93.67969,46.67969 C 211.91016,255.12891 233.62109,258 256,258 351.16016,258 434.21094,206.07031 478.32031,129 499.75,166.42969 512,209.78125 512,256 Z m 0,0" />
    <path
       id="path6"
       style="fill:#eb7521;fill-opacity:1;fill-rule:nonzero;stroke:none"
       d="m 481.26172,377.69922 c -5.5,10.15234 -11.65235,19.89062 -18.42188,29.16015 -2.05078,2.80079 -4.14843,5.5625 -6.30078,8.26954 C 409.64062,474.14844 337.23828,512 256,512 174.76172,512 102.35938,474.14844 55.460938,415.12891 c -2.152344,-2.70704 -4.25,-5.46875 -6.300782,-8.26954 -6.769531,-9.26953 -12.921875,-19.00781 -18.421875,-29.16015 z m 0,0" />
    <path
       id="path8"
       style="fill:#009e3f;fill-opacity:1;fill-rule:nonzero;stroke:none"
       d="m 416.30859,281.75781 14.27344,-8.27344 3.17969,-13.72656 13.49219,4.0625 19.40234,-11.24609 3.17969,-13.72656 13.48828,4.0625 14.27344,-8.27344 C 482,221.22656 459.02344,218.42969 440.21875,229.33203 c -18.80078,10.89844 -27.79297,32.22266 -23.91016,52.42578 z m 0,0" />
    <path
       id="path10"
       style="fill:#6bdc2b;fill-opacity:1;fill-rule:nonzero;stroke:none"
       d="m 414.98828,279.16016 14.17578,6.79687 12.51563,-4.86719 4.03906,12.80469 19.27344,9.24219 12.51562,-4.86719 4.04297,12.80469 14.17578,6.79687 c 2.1836,-19.48047 -7.94922,-39.07031 -26.625,-48.02734 -18.67187,-8.95313 -40.29297,-4.58594 -54.11328,9.31641 z m 0,0" />
    <path
       id="path12"
       style="fill:#6bdc2b;fill-opacity:1;fill-rule:nonzero;stroke:none"
       d="m 416.82812,279.23047 -14.29296,-8.28516 -3.1836,-13.74609 -13.51172,4.07031 -19.43359,-11.26562 -3.18359,-13.7461 -13.50782,4.06641 -14.29687,-8.28516 c 15.625,-13.42969 38.63672,-16.23047 57.46875,-5.3125 18.82812,10.91406 27.83203,32.27344 23.9414,52.50391 z m 0,0" />
    <path
       id="path14"
       style="fill:#009e3f;fill-opacity:1;fill-rule:nonzero;stroke:none"
       d="m 418.93359,279.16016 -14.17578,6.79687 -12.51562,-4.86719 -4.04297,12.80469 -19.27344,9.24219 -12.51172,-4.86719 -4.04297,12.80469 -14.17578,6.79687 c -2.1875,-19.48047 7.94531,-39.07031 26.6211,-48.02734 18.67578,-8.95313 40.29296,-4.58594 54.11718,9.31641 z m 0,0" />
    <path
       id="path16"
       style="fill:#ff9e00;fill-opacity:1;fill-rule:nonzero;stroke:none"
       d="m 426.4375,383.17187 h -20.30078 c 0.0859,-3.77343 0.1914,-7.44921 0.30469,-11.02734 0.0234,-0.66797 0.043,-1.32812 0.0664,-1.98828 0.0859,-2.51953 0.17578,-4.99609 0.26953,-7.41797 0.0234,-0.66797 0.0469,-1.32812 0.0742,-1.98828 0.0977,-2.53125 0.20703,-5.00391 0.31641,-7.42578 0.0312,-0.66406 0.0664,-1.33203 0.0937,-1.98828 0.12109,-2.53125 0.25,-5.00782 0.3789,-7.42188 0.0352,-0.67187 0.0703,-1.33203 0.10938,-1.98828 0.14062,-2.53906 0.28906,-5.01562 0.4375,-7.42578 0.0391,-0.66406 0.082,-1.33203 0.125,-1.98828 0.16406,-2.54688 0.33203,-5.02344 0.50391,-7.42188 0.0508,-0.67187 0.10156,-1.33203 0.14453,-1.98828 0.19531,-2.55859 0.39062,-5.03515 0.58593,-7.42578 0.0547,-0.66797 0.10938,-1.33203 0.16407,-1.98828 0.21875,-2.57422 0.4414,-5.04688 0.66797,-7.42188 0.0586,-0.67187 0.125,-1.33203 0.1875,-1.98828 0.2539,-2.59375 0.50781,-5.0664 0.76171,-7.42578 0.0742,-0.66797 0.14454,-1.33594 0.21875,-1.98828 0.29297,-2.62891 0.58204,-5.10156 0.875,-7.42187 0.0781,-0.67969 0.16407,-1.34375 0.2461,-1.98829 0.34375,-2.6914 0.68359,-5.16406 1.01172,-7.42578 0.0937,-0.68359 0.1914,-1.34375 0.28515,-1.98828 1.80469,-12.10156 3.1875,-17.50781 3.1875,-17.50781 0.94922,5.80469 1.80078,11.66016 2.56641,17.50781 0.0859,0.66406 0.17578,1.32813 0.25391,1.98828 0.3164,2.48047 0.62109,4.96094 0.90625,7.42578 0.0781,0.66407 0.15234,1.32813 0.22656,1.98829 0.28515,2.48828 0.54687,4.96484 0.80078,7.42187 0.0703,0.66797 0.13281,1.32813 0.19922,1.98828 0.2539,2.4961 0.48828,4.96875 0.71094,7.42578 0.0586,0.66407 0.11328,1.32813 0.17187,1.98828 0.22266,2.50391 0.42969,4.97657 0.61719,7.42188 0.0547,0.66797 0.10547,1.33203 0.15625,1.98828 0.1914,2.51563 0.37109,4.98828 0.53515,7.42578 0.0469,0.66406 0.0899,1.32813 0.13282,1.98828 0.16406,2.52344 0.32031,5.00391 0.45703,7.42188 0.043,0.66797 0.0781,1.33203 0.11719,1.98828 0.13671,2.54687 0.26171,5.01953 0.38281,7.42578 0.0273,0.67188 0.0625,1.33203 0.0937,1.98828 0.11328,2.56641 0.21875,5.04297 0.30469,7.42188 0.0312,0.67187 0.0586,1.33203 0.0781,1.98828 0.0937,2.61328 0.17188,5.09375 0.23828,7.42578 0.0234,0.67578 0.0391,1.33594 0.0586,1.98828 0.0703,2.70313 0.125,5.1875 0.16406,7.41797 0.0117,0.6875 0.0234,1.35156 0.0312,1.98828 0.10937,6.98438 0.082,11.02734 0.082,11.02734 z m 0,0" />
    <path
       id="path18"
       style="fill:#eb7521;fill-opacity:1;fill-rule:nonzero;stroke:none"
       d="m 426.4375,383.17187 h -9.28516 V 258.53516 c 0.94922,5.80468 1.80469,11.66015 2.57032,17.51171 0.082,0.66016 0.17187,1.32422 0.25,1.98829 0.32031,2.48046 0.62109,4.95703 0.90625,7.42187 0.0781,0.66797 0.15234,1.32813 0.22656,1.98828 0.28515,2.49219 0.54687,4.96485 0.80078,7.42578 0.0703,0.66407 0.13281,1.32422 0.19922,1.98828 0.2539,2.49219 0.48828,4.96875 0.71094,7.42188 0.0625,0.66797 0.11328,1.32812 0.17578,1.98828 0.21875,2.50391 0.42578,4.98047 0.61328,7.42578 0.0547,0.66406 0.10547,1.33203 0.15625,1.98828 0.1914,2.51172 0.37109,4.98828 0.53515,7.42188 0.0469,0.66797 0.0899,1.32812 0.13672,1.98828 0.16407,2.52344 0.31641,5.00391 0.45703,7.42578 0.0391,0.66406 0.0742,1.33203 0.11329,1.98828 0.13671,2.54297 0.26171,5.01563 0.38281,7.42188 0.0273,0.67187 0.0625,1.33203 0.0937,1.98828 0.11328,2.57031 0.21875,5.04297 0.30859,7.42578 0.0274,0.66797 0.0547,1.33203 0.0742,1.98437 0.0937,2.61719 0.17188,5.09375 0.23828,7.42579 0.0234,0.67578 0.0391,1.33593 0.0586,1.98828 0.0703,2.70312 0.125,5.1875 0.16406,7.41797 0.0117,0.6875 0.0273,1.35156 0.0312,1.98828 0.10937,6.98047 0.082,11.02343 0.082,11.02343 z m 0,0" />
    <path
       id="path20"
       style="fill:#a63811;fill-opacity:1;fill-rule:nonzero;stroke:none"
       d="m 419.97656,278.03516 h -6.29687 c 0.0937,-0.6875 0.1914,-1.34766 0.28906,-1.98829 h 5.75391 c 0.082,0.66016 0.17187,1.32422 0.2539,1.98829 z m 0,0" />
    <path
       id="path22"
       style="fill:#a63811;fill-opacity:1;fill-rule:nonzero;stroke:none"
       d="m 421.10937,287.44531 h -8.6875 c 0.0781,-0.67969 0.16407,-1.33984 0.25,-1.98828 h 8.20704 c 0.082,0.66797 0.15234,1.32813 0.23046,1.98828 z m 0,0" />
    <path
       id="path24"
       style="fill:#a63811;fill-opacity:1;fill-rule:nonzero;stroke:none"
       d="m 422.10547,296.85547 h -10.77735 c 0.0742,-0.66797 0.14454,-1.33594 0.21875,-1.98828 h 10.35938 c 0.0703,0.66797 0.13672,1.32812 0.19922,1.98828 z m 0,0" />
    <path
       id="path26"
       style="fill:#a63811;fill-opacity:1;fill-rule:nonzero;stroke:none"
       d="m 422.99219,306.26953 h -12.61328 c 0.0586,-0.67187 0.125,-1.33203 0.1875,-1.98828 h 12.25 c 0.0625,0.66406 0.11328,1.32812 0.17578,1.98828 z m 0,0" />
    <path
       id="path28"
       style="fill:#a63811;fill-opacity:1;fill-rule:nonzero;stroke:none"
       d="m 423.76172,315.67969 h -14.21094 c 0.0547,-0.67188 0.10938,-1.33203 0.16406,-1.98828 h 13.89453 c 0.0508,0.66796 0.10157,1.33203 0.15235,1.98828 z m 0,0" />
    <path
       id="path30"
       style="fill:#a63811;fill-opacity:1;fill-rule:nonzero;stroke:none"
       d="m 424.43359,325.08984 h -15.61328 c 0.0469,-0.66797 0.0977,-1.33203 0.14453,-1.98828 h 15.33203 c 0.0469,0.66797 0.0899,1.32813 0.13672,1.98828 z m 0,0" />
    <path
       id="path32"
       style="fill:#a63811;fill-opacity:1;fill-rule:nonzero;stroke:none"
       d="M 425.00391,334.50391 H 408.1875 c 0.0391,-0.66797 0.0859,-1.33204 0.125,-1.98829 h 16.57812 c 0.0391,0.66407 0.0742,1.33204 0.11329,1.98829 z m 0,0" />
    <path
       id="path34"
       style="fill:#a63811;fill-opacity:1;fill-rule:nonzero;stroke:none"
       d="m 425.48047,343.91406 h -17.83985 c 0.0352,-0.67187 0.0703,-1.33203 0.10938,-1.98828 h 17.63672 c 0.0273,0.67188 0.0625,1.33203 0.0937,1.98828 z m 0,0" />
    <path
       id="path36"
       style="fill:#a63811;fill-opacity:1;fill-rule:nonzero;stroke:none"
       d="m 425.86328,353.32422 h -18.69531 c 0.0312,-0.66406 0.0664,-1.33203 0.0937,-1.98438 h 18.52734 c 0.0274,0.66797 0.0547,1.33203 0.0742,1.98438 z m 0,0" />
    <path
       id="path38"
       style="fill:#a63811;fill-opacity:1;fill-rule:nonzero;stroke:none"
       d="m 426.16016,362.73828 h -19.38282 c 0.0234,-0.66797 0.0508,-1.32812 0.0742,-1.98828 h 19.25 c 0.0234,0.67578 0.0391,1.33594 0.0586,1.98828 z m 0,0" />
    <path
       id="path40"
       style="fill:#a63811;fill-opacity:1;fill-rule:nonzero;stroke:none"
       d="m 426.35547,372.14453 h -19.91016 c 0.0195,-0.66797 0.0391,-1.32812 0.0625,-1.98828 h 19.81641 c 0.0117,0.6875 0.0273,1.35156 0.0312,1.98828 z m 0,0" />
    <path
       id="path42"
       style="fill:#cff5ff;fill-opacity:1;fill-rule:nonzero;stroke:none"
       d="m 272.10547,179.88281 -14.83203,0.2461 c -40.07813,0.67187 -74.48438,24.1875 -90.89844,58.01562 -1.61328,3.32031 0.76562,7.1875 4.45703,7.1875 1.53906,0 3.00781,-0.69922 3.93359,-1.93359 11.82422,-15.73438 30.51172,-26.03125 51.67969,-26.38672 l 51.10156,-0.85547 c 19.42969,0 36.63672,9.48437 47.26172,24.0625 1.82813,2.51172 5.75391,1.22656 5.75391,-1.87891 0,-32.28515 -26.17188,-58.45703 -58.45703,-58.45703 z m 0,0" />
    <path
       id="path44"
       style="fill:#cff5ff;fill-opacity:1;fill-rule:nonzero;stroke:none"
       d="m 280.17187,180.05078 v 0.30859 c -57.55078,3.30079 -80.18359,33.73047 -88.96093,69.3711 -4.73047,19.14844 -5.46094,39.80859 -5.46094,58.57031 0,48.89844 33.21094,92.14063 84.03125,118.26953 H 65.128906 c -1.160156,-1.28906 -2.308594,-2.60156 -3.4375,-3.92187 -0.589844,-0.6875 -1.179687,-1.37891 -1.75,-2.07032 C 53.558594,413 47.621094,405.05078 42.160156,396.75 c -0.07031,-0.10156 -0.140625,-0.21094 -0.210937,-0.30859 -3.9375,-5.98047 -7.628907,-12.14063 -11.058594,-18.46094 -3.289063,-6.03125 -6.332031,-12.21094 -9.121094,-18.53125 -0.730469,-1.66016 -1.449219,-3.32031 -2.140625,-5 -7,-16.75781 -12.257812,-34.42969 -15.558594,-52.76953 11.410157,-41.51953 45.988282,-76.89844 93.460938,-98.62891 31.84766,-14.57031 69.5,-23 109.83984,-23 z m 0,0" />
    <path
       id="path46"
       style="fill:#82c2f5;fill-opacity:1;fill-rule:nonzero;stroke:none"
       d="m 185.76172,305.42187 c 0,0.94922 -0.0117,1.90625 -0.0117,2.87891 0,48.89844 33.21094,92.14063 84.03125,118.26953 H 65.128906 c -1.160156,-1.28906 -2.308594,-2.60156 -3.4375,-3.92187 -0.589844,-0.6875 -1.179687,-1.37891 -1.75,-2.07032 C 53.558594,413 47.621094,405.05078 42.160156,396.75 L 41.429688,331.07812 C 41.910156,250.21875 128.87891,184.28125 238.17187,180.23828 h 42 v 0.12109 c -8.17187,0.46875 -15.63281,1.48047 -22.45312,2.98047 -41.25,9.0586 -58.98047,35.8086 -66.50781,66.39063 -4.49219,18.17969 -5.38282,37.71094 -5.44922,55.6914 z m 0,0" />
    <path
       id="path48"
       style="fill:#63b0ff;fill-opacity:1;fill-rule:nonzero;stroke:none"
       d="m 185.76172,305.42187 c 0,0.94922 -0.0117,1.90625 -0.0117,2.87891 0,48.89844 33.21094,92.14063 84.03125,118.26953 H 84.480469 l -1.050781,-95.49219 c 0.46875,-78.58984 82.628902,-143.08984 187.589842,-150.34765 -3.64844,0.42969 -8.21094,1.21094 -13.30078,2.60937 -41.25,9.0586 -58.98047,35.8086 -66.50781,66.39063 -4.49219,18.17969 -5.38282,37.71094 -5.44922,55.6914 z m 0,0" />
    <path
       id="path50"
       style="fill:#63b0ff;fill-opacity:1;fill-rule:nonzero;stroke:none"
       d="m 280.17187,180.23828 c -3.07031,0.11328 -6.12109,0.28125 -9.15234,0.49219 2.83984,-0.33203 5.14063,-0.46094 6.71875,-0.49219 1.5625,-0.0391 2.43359,0 2.43359,0 z m 0,0" />
    <path
       id="path52"
       style="fill:#cff5ff;fill-opacity:1;fill-rule:nonzero;stroke:none"
       d="m 462.83984,406.85937 c -2.05078,2.80079 -4.14843,5.5625 -6.30078,8.26954 C 409.64062,474.14844 337.23828,512 256,512 174.76172,512 102.35938,474.14844 55.460938,415.12891 c -2.152344,-2.70704 -4.25,-5.46875 -6.300782,-8.26954 5.289063,-2.17968 11.691406,-3.71875 20.699219,-3.71875 31.019535,0 31.019535,18.19922 62.039065,18.19922 31.03125,0 31.03125,-18.19922 62.05078,-18.19922 31.01953,0 31.01953,18.19922 62.03906,18.19922 31.02344,0 31.02344,-18.19922 62.05078,-18.19922 31.01953,0 31.01953,18.19922 62.03906,18.19922 31.03125,0 31.03125,-18.19922 62.05079,-18.19922 9.01953,0 15.41015,1.53907 20.71093,3.71875 z m 0,0" />
    <path
       id="path54"
       style="fill:#63b0ff;fill-opacity:1;fill-rule:nonzero;stroke:none"
       d="m 438.07031,435.94141 c -12.64844,12.79687 -26.64062,24.27734 -41.74219,34.19921 -11.01953,7.23047 -22.6289,13.64063 -34.73828,19.12891 C 329.39844,503.87109 293.64844,512 256,512 c -37.64844,0 -73.41016,-8.12891 -105.60156,-22.73828 -11.86719,-5.3711 -23.25,-11.63281 -34.0586,-18.6836 -15.35937,-10.01953 -29.578121,-21.64843 -42.417965,-34.63671 27.019535,1.51953 28.378905,18.10937 57.976565,18.10937 31.03125,0 31.03125,-18.22266 62.05078,-18.22266 31.01953,0 31.01953,18.22266 62.03906,18.22266 31.02344,0 31.02344,-18.22266 62.05078,-18.22266 31.01953,0 31.01953,18.22266 62.03906,18.22266 29.61329,0 30.97266,-16.58984 57.99219,-18.10937 z m 0,0" />
    <path
       id="path56"
       style="fill:#0c99e6;fill-opacity:1;fill-rule:nonzero;stroke:none"
       d="M 361.58984,489.26953 C 329.39844,503.87109 293.64844,512 256,512 c -37.64844,0 -73.41016,-8.12891 -105.60156,-22.73828 14.49218,-5.13281 20.33203,-15.35156 43.55078,-15.35156 31.01953,0 31.01953,18.23046 62.03906,18.23046 31.02344,0 31.02344,-18.23046 62.05078,-18.23046 23.23047,0 29.0625,10.21875 43.55078,15.35937 z m 0,0" />
    <path
       id="path58"
       style="fill:#ffffff;fill-opacity:1;fill-rule:nonzero;stroke:none"
       d="m 101.55859,111.83203 c -0.75,-0.79687 -1.11328,-1.1875 -1.863278,-1.98437 0.902348,-13.156254 11.859378,-23.546879 25.242188,-23.546879 2.80078,0 5.49609,0.460938 8.01562,1.304688 0.79297,0.261719 1.67969,-0.04297 2.11719,-0.753907 5.78516,-9.355468 16.12891,-15.59375 27.9375,-15.59375 15.46485,0 28.42578,10.695313 31.89844,25.09375 0.21094,0.871094 1.03516,1.429688 1.92578,1.378907 0.34766,-0.01953 0.69922,-0.03125 1.05078,-0.03125 7.76953,0 14.41406,4.800781 17.14063,11.597661 0.48437,1.21093 -0.42188,2.53515 -1.73047,2.53515 z m 0,0" />
    <path
       id="path60"
       style="fill:#cff5ff;fill-opacity:1;fill-rule:nonzero;stroke:none"
       d="m 126.30078,111.83203 c -0.77734,-0.91015 -1.05859,-1.23828 -1.83594,-2.15234 0.98438,-7.07813 7.0625,-12.527346 14.41016,-12.527346 1.41406,0 2.78125,0.203125 4.07422,0.582031 C 143.72266,97.960938 144.55469,97.675781 145,97 c 3.375,-5.117188 9.17578,-8.5 15.76562,-8.5 8.6875,0 16,5.871094 18.19532,13.85938 0.22656,0.82421 0.99218,1.34765 1.84375,1.34765 0.004,0 0.0117,0 0.0156,0 3.96094,0 7.41406,2.17188 9.23828,5.38672 0.69532,1.22266 -0.22656,2.73828 -1.6289,2.73828 z m 0,0" />
    <path
       id="path62"
       style="fill:#ffffff;fill-opacity:1;fill-rule:nonzero;stroke:none"
       d="m 325.55859,119.83203 c -0.75,-0.79687 -1.11328,-1.1875 -1.86328,-1.98437 0.90235,-13.15625 11.85938,-23.546879 25.24219,-23.546879 2.80078,0 5.49609,0.460938 8.01562,1.304688 0.79297,0.261719 1.67969,-0.04297 2.11719,-0.753907 5.78516,-9.355468 16.12891,-15.59375 27.9375,-15.59375 15.46485,0 28.42578,10.695313 31.89844,25.093748 0.21094,0.8711 1.03516,1.42969 1.92578,1.37891 0.34766,-0.0195 0.69922,-0.0312 1.05078,-0.0312 7.76953,0 14.41406,4.80078 17.14063,11.59766 0.48437,1.21093 -0.42188,2.53515 -1.73047,2.53515 z m 0,0" />
    <path
       id="path64"
       style="fill:#cff5ff;fill-opacity:1;fill-rule:nonzero;stroke:none"
       d="m 350.30078,119.83203 c -0.77734,-0.91015 -1.05859,-1.23828 -1.83594,-2.15234 0.98438,-7.07813 7.0625,-12.52735 14.41016,-12.52735 1.41406,0 2.78125,0.20313 4.07422,0.58204 0.77344,0.22656 1.60547,-0.0586 2.05078,-0.73438 3.375,-5.117188 9.17578,-8.5 15.76562,-8.5 8.6875,0 16,5.87109 18.19532,13.85938 0.22656,0.82421 0.99218,1.34765 1.84375,1.34765 0.004,0 0.0117,0 0.0156,0 3.96094,0 7.41797,2.17188 9.24219,5.38672 0.69141,1.22266 -0.23047,2.73828 -1.63281,2.73828 z m 0,0" />
  </g>
</svg>
